<svg id="Layer_1" data-name="Layer 1" xmlns="http://www.w3.org/2000/svg" viewBox="0 0 51 51"><defs><style>.cls-1{fill:#ff3285;}.cls-2{fill:#fff;stroke:#fff;stroke-miterlimit:22.93;stroke-width:0.08px;fill-rule:evenodd;}</style></defs><path class="cls-1" d="M25.67,50.68A25.47,25.47,0,0,0,51.26,25.34a25.59,25.59,0,0,0-51.18,0A25.47,25.47,0,0,0,25.67,50.68Z"/><path class="cls-2" d="M27.32,20.8V17.4c0-1.51.55-2.36,1.75-2.58l4.26-.05V10a15.53,15.53,0,0,0-8.53.5,6.55,6.55,0,0,0-3.43,4.76v5.56l-3.21,0c-.05,3.39-.08,5.09-.08,5.09l3.46.05q0,16.8.05,16.8l5.92,0Q27.41,26,27.4,26l5.18-.14c0-3.37,0-5.06,0-5.06Z"/></svg>