<svg id="Layer_1" data-name="Layer 1" xmlns="http://www.w3.org/2000/svg" viewBox="0 0 51 51"><defs><style>.cls-1{fill:#ff3285;}.cls-2,.cls-3{fill:none;}.cls-2,.cls-3,.cls-4{stroke:#fff;stroke-miterlimit:22.93;}.cls-2{stroke-width:3px;}.cls-3{stroke-width:2.75px;}.cls-4{fill:#fff;stroke-width:0.2px;}</style></defs><path class="cls-1" d="M25.66,50A25.34,25.34,0,1,0,.08,24.66,25.46,25.46,0,0,0,25.66,50Z"/><path class="cls-2" d="M32.38,10.83H18.94a7.55,7.55,0,0,0-7.54,7.55V31a7.54,7.54,0,0,0,7.54,7.54H32.38A7.53,7.53,0,0,0,39.92,31V18.38A7.54,7.54,0,0,0,32.38,10.83Z"/><path class="cls-3" d="M25.84,29.25A4.84,4.84,0,1,0,21,24.41,4.85,4.85,0,0,0,25.84,29.25Z"/><path class="cls-4" d="M32.71,18.54a1.28,1.28,0,1,0-1.27-1.28A1.27,1.27,0,0,0,32.71,18.54Z"/></svg>