<svg id="Layer_1" data-name="Layer 1" xmlns="http://www.w3.org/2000/svg" viewBox="0 0 188 115"><defs><style>.cls-1{fill:#e20071;}.cls-2{fill:#dde3e9;}.cls-3{fill:#fff;}.cls-4{fill:#c5cfd6;}.cls-4,.cls-5,.cls-7,.cls-8{fill-rule:evenodd;}.cls-5{fill:#afb9c5;}.cls-6{fill:#4d4d4d;}.cls-7{fill:gray;}.cls-8{fill:#ccc;}</style></defs><rect class="cls-1" x="18.66" y="14.56" width="128" height="86"/><path class="cls-2" d="M135.12-.34H-.34V88H135.12Z"/><path class="cls-3" d="M27.89,38.81A11.61,11.61,0,1,0,16.29,27.2,11.61,11.61,0,0,0,27.89,38.81Z"/><path class="cls-4" d="M78.56,88,7.45,87.75l30.49-39c3.77-4.42,5.59-4.85,8.31-1.94Z"/><path class="cls-5" d="M77.93,88,60.13,64.33,83,27.29,123.25,86.9,123.9,88Z"/><path class="cls-6" d="M147.76,15.64,130.3,23.07a1.52,1.52,0,0,0-1,1.87l38.1,89.8a1.52,1.52,0,0,0,2.05.56l17.47-7.43a1.53,1.53,0,0,0,1-1.87L149.81,16.2A1.52,1.52,0,0,0,147.76,15.64Z"/><path class="cls-7" d="M139.37,5.49,132.69-.18c-.78,5.31-1.16,8-1.16,8C136.21,8.11,138.82,7.35,139.37,5.49Z"/><path class="cls-8" d="M138.87,5q-2.25,3.17-7.47,2.11a139.17,139.17,0,0,0-1.92,17.79c10.05-.51,16.3-3.21,20.57-8.61Q138.86,5,138.87,5Z"/></svg>