<svg id="Layer_1" data-name="Layer 1" xmlns="http://www.w3.org/2000/svg" viewBox="0 0 188 115"><defs><style>.cls-1{fill:#e20071;}.cls-2{fill:#dde3e9;}.cls-3{fill:#fff;}.cls-4{fill:#c5cfd6;}.cls-4,.cls-5{fill-rule:evenodd;}.cls-5{fill:#afb9c5;}.cls-6{fill:#4d4d4d;}</style></defs><rect class="cls-1" x="18.93" y="14.86" width="128" height="86"/><path class="cls-2" d="M135.39,0H-.07V88.3H135.39Z"/><path class="cls-3" d="M28.17,39.1A11.61,11.61,0,1,0,16.56,27.5,11.6,11.6,0,0,0,28.17,39.1Z"/><path class="cls-4" d="M78.83,88.3,7.72,88.05l30.49-39c3.78-4.42,5.59-4.85,8.32-1.94Z"/><path class="cls-5" d="M79.71,87.8,61.9,64.13l22.85-37L125,86.69l.65,1.09Z"/><path class="cls-6" d="M107.71,111.36c.4-1.26.71-2.25,1-3.23q4.91-15,9.83-30a1.11,1.11,0,0,0-.47-1.52q-13.72-9.87-27.41-19.8L90,56.29c.16-.39.47-.21.69-.21q17,0,33.94.06a1.21,1.21,0,0,0,1.42-1q5.12-16,10.31-32a1.82,1.82,0,0,1,.49-1c.92,2.85,1.84,5.66,2.75,8.47,2.67,8.27,5.35,16.54,8,24.82.25.76.68.73,1.24.73l33.65-.06h1.09c0,.41-.34.48-.56.64q-13.73,9.95-27.48,19.87a1.15,1.15,0,0,0-.52,1.58q5.37,16.29,10.68,32.6c0,.12.05.24.09.43a2.37,2.37,0,0,1-1.1-.66q-13.59-9.9-27.16-19.82a1,1,0,0,0-1.5,0Q122.17,100.89,108.3,111Z"/></svg>