<svg id="Layer_1" data-name="Layer 1" xmlns="http://www.w3.org/2000/svg" viewBox="0 0 51 51"><defs><style>.cls-1{fill:#ff3285;}.cls-2{fill:#fff;fill-rule:evenodd;}</style></defs><path class="cls-1" d="M25.67,50.68A25.47,25.47,0,0,0,51.26,25.34a25.59,25.59,0,0,0-51.18,0A25.47,25.47,0,0,0,25.67,50.68Z"/><path class="cls-2" d="M37.58,16.65c-.16.57.77.75,2.79.53-.07,1.08-.86,1.78-2.38,2.1Q39.13,27.78,31.6,34,21.21,41.66,11,35.74c4.62-.54,7.41-1.28,8.35-2.21-2.85-1.17-4.59-2.76-5.2-4.76l2.57-.06q-4.31-3.15-5.28-5.61L14.53,23Q11,18.3,12.43,15q4.83,5.8,13.5,6.37-.69-6.09,5.53-7.67A5.62,5.62,0,0,1,35.94,15q2.73,0,3.6-1.47C39.81,14.63,39.15,15.68,37.58,16.65Z"/></svg>