<svg id="Layer_1" data-name="Layer 1" xmlns="http://www.w3.org/2000/svg" viewBox="0 0 51 51"><defs><style>.cls-1,.cls-3{fill:#ff3285;}.cls-2{fill:#fff;}.cls-3{stroke:#ff3285;stroke-miterlimit:22.93;stroke-width:0.08px;fill-rule:evenodd;}</style></defs><path class="cls-1" d="M25.67,50.68A25.47,25.47,0,0,0,51.26,25.34a25.59,25.59,0,0,0-51.18,0A25.47,25.47,0,0,0,25.67,50.68Z"/><path class="cls-2" d="M38.45,15.6H12.89a2.16,2.16,0,0,0-2.16,2.16V32.92a2.16,2.16,0,0,0,2.16,2.15H38.45a2.16,2.16,0,0,0,2.16-2.15V17.76A2.16,2.16,0,0,0,38.45,15.6Z"/><path class="cls-3" d="M30.12,26.14q-4.49-2.33-7.88-3.95l0,7.19Z"/></svg>