<?xml version="1.0" encoding="utf-8"?>
<!-- Generator: Adobe Illustrator 24.2.3, SVG Export Plug-In . SVG Version: 6.00 Build 0)  -->
<svg version="1.2" baseProfile="tiny" xmlns="http://www.w3.org/2000/svg" xmlns:xlink="http://www.w3.org/1999/xlink" x="0px"
	 y="0px" viewBox="0 0 226.8 171.6" overflow="visible" xml:space="preserve">
<g id="Layer_2">
</g>
<g id="Layer_1">
	<g>
		<ellipse fill-rule="evenodd" fill="#FF3185" cx="53.4" cy="159.8" rx="45.6" ry="11.6"/>
		<ellipse fill-rule="evenodd" fill="#FF3185" cx="173.8" cy="143.9" rx="45.6" ry="11.6"/>
		<ellipse fill-rule="evenodd" fill="#FF3185" cx="110.4" cy="92.5" rx="45.6" ry="11.6"/>
		<path fill-rule="evenodd" fill="#85A67B" d="M203.6,67.9c0.9,0.5,1.3,0.3,1.1-0.7c-1.7-3-2.1-5.2-1.1-6.6
			c2.8-5.5,3.6-9.6,2.4-12.4c-1.3-2.1-2.8-1.9-4.4,0.4c-1.4,4.1-2.5,5.1-3.4,3.2c1.3-4.5,1.8-7.4,1.4-8.6c-0.7-1.7-1.7-1.8-3-0.2
			c-1.3,1.3-2,1.2-2-0.3c0.2-2.2,0-3.6-0.7-4c-1.1-0.2-1.9,0.5-2.2,1.9c-0.4,0.8-0.9,0.3-1.7-1.4c-1.4-2.4-2.8-2.8-4.1-1.3
			c-0.5,1,0.1,2.6,1.8,4.9c0.6,0.9,0.3,1.3-0.7,1.4c-2.6,0.3-3.5,1.4-2.7,3.1c0.3,0.6,2.1,1.3,5.5,2.2c0.8,0.6,0.8,1,0,1.4
			c-2.6-0.2-4,0.4-4.3,1.8c-0.1,1.6,1.1,2.5,3.5,2.8c2.6-0.1,4,0.4,4.2,1.5c0.1,1.1-1.1,1.4-3.4,1c-1.8,0.5-2.2,1.5-1.2,3
			c1.2,1.8,5,2.7,11.6,2.8C201,64.1,202.2,65.5,203.6,67.9L203.6,67.9z"/>
		<path fill-rule="evenodd" fill="#BCDAB4" d="M200,62c1.3,1.8,2.2,2.6,2.6,2.4c-1.7-3.2-2.5-5.2-2.4-6.1c0.9-2.8,1.9-4.9,2.9-6.5
			c-0.2-0.6-0.6-0.4-1.3,0.6c-1.6,3.4-2.4,5-2.4,5c-0.4,0.2-0.7-0.2-1.1-1c-1.8-3.5-2.7-5.3-2.7-5.3c-0.3-0.3,0.5-2.1,2.4-5.4
			c0.1-0.7-0.2-0.5-0.9,0.5c-1.6,2.5-2.4,3.8-2.4,3.8c-1.6-2.7-2.4-4.1-2.4-4.1c-0.3-1.4,0-3,0.9-4.8c-0.2-1.1-0.7-0.4-1.3,2.1
			c-0.3,2-0.6,2.5-0.9,1.4c-1.8-3.1-2.7-4.7-2.7-4.7c-0.5,0.1-0.4,0.6,0.2,1.5c1.5,2.6,2.2,3.9,2.2,3.9c-0.2,0.5-1.4,0.6-3.5,0.2
			c-1,0-0.8,0.2,0.7,0.7c2.8,0.2,4.4,1.1,4.9,2.9c1.2,2.2,1.8,3.3,1.8,3.3c-0.3,0.6-2.6,0.6-6.9-0.1c-0.5,0.2-0.4,0.5,0.4,0.8
			c2,0.6,4.3,0.8,6.9,0.5c0.3,0.1,1.3,1.6,3,4.6c0.7,1.1,0.8,1.7,0.3,1.8c-4.2-0.1-6.2-0.1-6.2-0.1c-1,0.3-0.9,0.5,0.4,0.8
			C197,60.5,199.5,61,200,62L200,62z"/>
		<path fill-rule="evenodd" fill="#85A67B" d="M201.8,84.9c0.4,1.5,1.1,1.7,2,0.4c1.4-5.2,3.4-8.1,6.1-8.5c9.2-3,14.6-6.7,16.3-11.2
			c0.9-3.7-0.9-5.2-5.3-4.5c-6,3-8.4,2.9-7.3-0.1c6.4-3.6,10.1-6.2,11-7.9c1.1-2.7,0.1-3.9-3.1-3.6c-2.9,0-3.6-0.8-2-2.5
			c2.7-2.3,3.9-4,3.7-5.3c-1.1-1.4-2.6-1.6-4.6-0.3c-1.3,0.4-1.3-0.7-0.3-3.4c1.1-4.2,0-6.2-3.2-5.9c-1.6,0.5-2.8,3-3.4,7.4
			c-0.3,1.6-1.1,1.9-2.2,0.8c-3.2-2.5-5.3-2.3-6.3,0.4c-0.4,1,0.8,3.8,3.6,8.5c0.3,1.6-0.2,2.1-1.6,1.5c-2.6-3.1-4.9-4-6.8-2.7
			c-1.8,1.7-1.6,4,0.8,6.9c3,2.8,4,4.9,3,6.4c-1.1,1.2-2.7,0.4-4.9-2.7c-2.5-1.4-4-0.8-4.7,2c-0.7,3.3,2.6,8.6,9.7,15.8
			C203.1,77.9,202.9,80.7,201.8,84.9z"/>
		<path fill-rule="evenodd" fill="#BCDAB4" d="M204.3,74.4c-0.5,3.4-0.4,5.3,0.2,5.5c1.6-5.4,2.9-8.5,4.1-9.4c4-2,7.5-3.4,10.3-4
			c0.5-0.8-0.2-1-2-0.7c-5.5,2-8.2,3-8.2,3c-0.6-0.2-0.6-1-0.1-2.4c1.9-5.9,2.8-8.8,2.8-8.8c0-0.7,2.9-1.8,8.7-3.3
			c0.8-0.6,0.3-0.8-1.5-0.5c-4.5,1.1-6.8,1.6-6.8,1.6c1.3-4.8,1.9-7.2,1.9-7.2c1.3-1.9,3.3-3.3,6.3-4.3c0.9-1.4-0.3-1.2-3.8,0.9
			c-2.5,2-3.4,2.1-2.6,0.5c1.4-5.4,2.1-8.2,2.1-8.2c-0.6-0.5-1.1,0.2-1.5,1.9c-1.3,4.5-1.9,6.8-1.9,6.8c-0.8,0.3-2.1-0.9-4.1-3.7
			c-1.1-1.1-1.1-0.6,0,1.5c2.9,3.2,3.7,6.1,2.3,8.6c-1.1,3.8-1.6,5.6-1.6,5.6c-1.1,0.3-3.6-2.2-7.6-7.7c-0.9-0.3-1,0.1-0.5,1.3
			c1.5,2.9,3.9,5.6,7.2,8.2c0.2,0.5-0.3,3.3-1.7,8.4c-0.4,2-1,2.8-1.7,2.3c-4.5-4.7-6.7-7-6.7-7c-1.5-0.9-1.6-0.4-0.4,1.3
			C202.6,69.4,204.9,72.7,204.3,74.4L204.3,74.4z"/>
		<path fill-rule="evenodd" fill="#85A67B" d="M199.8,89.8c0.6,0.9,1.1,0.8,1.4-0.2c-0.4-3.8,0.3-6.1,1.9-7c5.3-4.2,7.9-7.9,8-11.2
			c-0.3-2.6-1.8-3.2-4.5-1.6c-3.2,3.4-4.8,4-4.8,1.7c3.3-3.9,5.1-6.5,5.3-7.8c0.1-2-0.9-2.6-2.9-1.6c-1.9,0.7-2.5,0.3-1.9-1.2
			c1.2-2.1,1.6-3.6,1.1-4.3c-1-0.7-2.1-0.4-3.1,0.9c-0.7,0.6-1.1-0.2-1-2.2c-0.3-3-1.5-4-3.5-3.1c-0.9,0.7-1.1,2.6-0.4,5.7
			c0.2,1.1-0.3,1.5-1.3,1c-2.7-0.8-4-0.2-4,1.8c0,0.7,1.5,2.3,4.4,4.7c0.6,0.9,0.4,1.4-0.7,1.4c-2.5-1.4-4.2-1.4-5.1-0.1
			c-0.8,1.5-0.1,3,2.2,4.3c2.6,1.1,3.8,2.3,3.5,3.4c-0.4,1.1-1.7,0.9-3.8-0.6c-2-0.3-2.8,0.5-2.6,2.4c0.3,2.3,3.7,5,10.2,8
			C199,84.9,199.5,86.8,199.8,89.8L199.8,89.8z"/>
		<path fill-rule="evenodd" fill="#BCDAB4" d="M199,82.3c0.5,2.4,1,3.5,1.5,3.5c-0.3-3.9-0.2-6.3,0.4-7.1c2.1-2.3,4.1-4,5.8-5.1
			c0.1-0.6-0.4-0.6-1.5,0c-3.1,2.6-4.6,3.9-4.6,3.9c-0.4,0-0.6-0.5-0.6-1.5c-0.2-4.3-0.3-6.4-0.3-6.4c-0.2-0.5,1.4-1.9,4.9-4.3
			c0.4-0.6,0-0.6-1.1,0.1c-2.7,1.8-4.1,2.7-4.1,2.7c-0.3-3.4-0.5-5.1-0.5-5.1c0.4-1.5,1.4-3,3-4.3c0.3-1.2-0.5-0.7-2.3,1.5
			c-1.2,1.9-1.7,2.2-1.5,0.9c-0.4-3.9-0.6-5.8-0.6-5.8c-0.5-0.2-0.7,0.4-0.5,1.6c0.3,3.3,0.4,4.9,0.4,4.9c-0.4,0.4-1.6-0.1-3.5-1.4
			c-1-0.5-0.9-0.1,0.3,1c2.7,1.4,3.9,3.1,3.6,5.1c0.2,2.7,0.3,4.1,0.3,4.1c-0.6,0.5-2.9-0.6-6.8-3.2c-0.6,0-0.6,0.3,0,1
			c1.7,1.5,3.9,2.7,6.6,3.6c0.3,0.3,0.6,2.2,0.9,5.9c0.2,1.4,0,2.1-0.5,1.9c-4.1-2-6.1-3-6.1-3c-1.2-0.2-1.1,0.1,0,0.9
			C196.6,79.5,198.9,81.1,199,82.3L199,82.3z"/>
		<path fill-rule="evenodd" fill="#B3B3B3" d="M206.8,100.9c-13.2,1.9-19.9-3.1-20.1-15.1c20.5,0,30.8,0,30.8,0
			C218.3,92.2,214,100.2,206.8,100.9z"/>
		<ellipse fill-rule="evenodd" fill="#B3B3B3" cx="83.4" cy="70" rx="24.6" ry="24"/>
		<path fill-rule="evenodd" fill="#1F28CF" d="M103,61.2c2.8,0.1,4.1,1,3.7,2.6c0,0-4.1,5.1-12.3,15.4c0,0,2.3,1.4,7,4.3
			c19.8-18,25.6-28.2,17.6-30.7c0,0-6.5-2.9-19.5-8.7c0,0-2.8,0.1-8.5,0.2c-10.3,0.2-15.5,0.3-15.5,0.3c-2.2,6.3,0.2,11,7,14.1
			C87.4,59.9,94.2,60.7,103,61.2L103,61.2z"/>
		<path fill-rule="evenodd" fill="#191847" d="M91,17.7c-2.9-0.4-5.9-0.4-9-0.1c-2.3,0.2-4-1.9-1.8-3.6c2.4-2,3.4-4.4,3.1-7
			c-0.3-3,1.1-4.7,4.3-5.3c3.1-0.4,5.3,0.2,6.6,2C96.8,9.5,97.4,14,96,17.3C95.7,17.9,94,18,91,17.7L91,17.7z"/>
		<path fill-rule="evenodd" fill="#DB2721" d="M91.8,23.8c-1-2.9-1.3-5.2-0.8-7.2c4.4,9.7,6.6,14.5,6.6,14.5c1,2.4,2.4,2.6,6.1,2.9
			c2.9-0.1,5.6-0.9,8.1-2.3c1.3,2.3,2,3.4,2,3.4c-3.4,3.9-7.6,6.3-12.3,7.1c-2.1,0.3-3.3-0.2-3.6-1.5C93.8,29.5,91.8,23.8,91.8,23.8
			L91.8,23.8z"/>
		<path fill-rule="evenodd" fill="#69A1AC" stroke="#69A1AC" stroke-width="0.5669" stroke-miterlimit="10" d="M90.8,20
			c-0.1-1.2-0.1-2.5,0.1-3.8c-2.7-0.2-4.1-0.3-4.1-0.3c1.5,3.9,2.9,9.1,4.1,15.5c0.7,4.8,1.1,9.2,1.2,13.1c4-0.1,6-0.2,6-0.2
			c-0.2-2.3-0.3-3.4-0.3-3.4c-2.1-5.9-3.4-9.8-4.2-11.8C91.9,24.6,91,21.6,90.8,20L90.8,20z"/>
		<path fill-rule="evenodd" fill="#69A1AC" d="M91.4,81.9c1.7-1.9,3.2-3.3,4.6-4c1.9,2.7,2.9,4.1,2.9,4.1c1.8,6.6,2.7,9.8,2.7,9.8
			c0.2,0.6,0,0.9-0.7,0.8C94.6,85.5,91.4,81.9,91.4,81.9z"/>
		<path fill-rule="evenodd" fill="#69A1AC" d="M129.7,86c1.5,0,2.9,0,4.2-0.1c7.1,3.2,10.7,4.8,10.7,4.8c0.5,0.5,0.4,0.8-0.2,1
			c-9.8,0-14.7,0.1-14.7,0.1C129.2,90.9,129.2,89,129.7,86z"/>
		<path fill-rule="evenodd" fill="#FF4133" d="M82.9,16.9c1.5-1.2,2.8-1.5,3.9-1.1c3,8.5,4.7,16.5,5.1,24.2c0.5,5.2,0.2,8.5-1,9.9
			c-8.8,0.5-14.4,0.3-16.8-0.7c1.4-7.7,2-11.6,2-11.6c-1.3,0.1-4.5,4.9-9.5,14.3c-3-0.3-4.5-0.5-4.5-0.5
			c2.5-11.8,6.3-20.6,11.4-26.3C76.2,21.7,79.3,19,82.9,16.9z"/>
		<path fill-rule="evenodd" fill="#EAC7A8" d="M94.8,11.3c0.1-3.6-0.3-5.9-1.2-6.9c-1.4,1.9-2.9,3-4.7,3.2c-1.5-0.3-2.3,0.3-2.3,1.8
			c0.1,0.7,0.7,1,1.4,1c0,3.6,0,5.4,0,5.4c1.2,0,1.8,0,1.8,0c0-1.1,0-1.7,0-1.7c1.2,0.8,2.5,1,3.9,0.4
			C94.5,13.9,94.9,12.7,94.8,11.3z"/>
		<path fill-rule="evenodd" fill="#EAC7A8" d="M62.1,51.4c1.2,0.1,2.2,0.2,3.1,0.4c-0.6,1.7-0.6,3.1-0.2,4.1
			c0.3,1.3,0.2,1.9-0.4,1.7c-0.4-0.8-0.9-1.5-1.5-1.9c-4,1.1-6.3,1.2-7,0.3c-0.7-0.8,0.8-1.8,4.3-3C61.2,52.6,61.8,52.1,62.1,51.4z"
			/>
		<path fill-rule="evenodd" fill="#EAC7A8" d="M113.5,34.8c-0.8-1.4-1.2-2.1-1.2-2.1c5.6-4.5,8.3-6.1,7.9-4.9
			c-0.6,0.9-1,1.7-1.4,2.3c-1,1.2-0.7,1.8,0.9,1.7c0.9,0.2,0.7,0.5-0.5,0.9C116.9,33,115,33.7,113.5,34.8L113.5,34.8z"/>
		<path fill-rule="evenodd" fill="#2B44FF" stroke="#2B44FF" stroke-width="0.5669" stroke-miterlimit="10" d="M122.4,57.8
			c0,0,4.2,9.1,12.5,27.2c0,0-2.3,1.2-7,3.6c0,0-4.2-5.6-12.7-16.8c-0.5-0.7-0.9-1.1-0.9-1.1C118.1,66.4,121.1,61.7,122.4,57.8z"/>
		<path fill-rule="evenodd" fill="#EAC7A8" stroke="#EAC7A8" stroke-width="0.5669" stroke-miterlimit="10" d="M190.4,142.7
			c2.8,0.6,4.6,0.5,5.5-0.1c0,0-0.3-1.2-0.9-3.6c-3.8,0.1-5.7,0.1-5.7,0.1C189.5,140.4,189.9,141.6,190.4,142.7L190.4,142.7z"/>
		<path fill-rule="evenodd" fill="#EAC7A8" stroke="#EAC7A8" stroke-width="0.5669" stroke-miterlimit="10" d="M159.9,141.9
			c1.5,1.1,3.4,1.3,5.9,0.5c0,0,0-1.5,0-4.6c-4,0-6,0-6,0C159.9,140.5,159.9,141.9,159.9,141.9L159.9,141.9z"/>
		<path fill-rule="evenodd" fill="#89C5CC" d="M188,73.9c-0.8,20.1,2,41.8,8.2,65c-5.5,0.1-8.3,0.2-8.3,0.2
			c-5.4-11.5-9-20.5-10.8-26.9c-6.1-19.9-9.6-32.8-10.5-38.6C180.8,73.8,188,73.9,188,73.9L188,73.9z"/>
		<path fill-rule="evenodd" fill="#69A1AC" d="M166.6,73.6c3,13,5.9,23.9,8.7,32.7c-5.5,21.1-8.2,31.6-8.2,31.6c-5.2,0-7.8,0-7.8,0
			c-1.1-26.5,0.7-47.7,5.4-63.7c0.1-0.3,0.1-0.5,0.1-0.5C165.9,73.6,166.6,73.6,166.6,73.6z"/>
		<path fill-rule="evenodd" fill="#191847" d="M176.9,28c-0.1-0.5-0.3-0.8-0.7-0.9c-2.2-0.5-3.6-1.7-4.3-3.6c-3.9,0.1-5.8-1.1-6-3.6
			c6.2-1.2,10.4-0.6,12.5,1.8c1.8,2.5,2.3,5,1.6,7.6c-0.7,1.4-1.6,2.3-2.7,2.9C177,31.4,176.8,30,176.9,28L176.9,28z"/>
		<path fill-rule="evenodd" fill="#EAC7A8" d="M171.9,23.5c-1.1,0.1-2.5-0.1-4.3-0.8c-0.7,4.9-1.2,7.6-1.2,7.6
			c-0.3,3.5,1.5,5.5,3.4,5.6c1.3,0,2.5-0.5,3.8-1.6c0.1,2,0.1,3.1,0.1,3.1c3.3,0,4.7,0,4.4,0c0-3.5,0.1-5.3,0.1-5.3
			c-0.2-0.3-0.4-0.3-0.7,0c-0.5-1.3-0.7-2.7-0.5-4.1c-0.1-0.7-0.6-1.1-1.6-1.2C173.3,25.8,172.2,24.7,171.9,23.5L171.9,23.5z"/>
		<path fill-rule="evenodd" fill="#FF9B21" d="M194.3,87.6c-1.4-4.5-2.6-6.6-3.4-6.5c-13-0.2-19.4-0.3-19.4-0.3
			c-2.4-8.7-1.4-20.8,3.1-36.3c0.6-4.7,2-7.2,4.1-7.3c7.9-2,12.3-1.6,13.4,1.1c0.6,3-0.7,5.6-4.1,8c4.9,5.8,8.2,14.5,9.9,26.1
			c0.9,4.8,1.4,9.8,1.4,15.1C196,87.6,194.3,87.6,194.3,87.6z"/>
		<path fill-rule="evenodd" fill="#E68C1E" d="M190.9,81.1c-2.8,0-5.2-0.1-7.3-0.1c1.8-7.3,2.8-11,2.8-11
			C189.4,77.5,190.9,81.1,190.9,81.1L190.9,81.1z"/>
		<path fill-rule="evenodd" fill="#FF9B21" stroke="#FF9B21" stroke-width="0.5669" stroke-miterlimit="10" d="M195.7,142.6
			c-1.6,0.6-3.4,0.6-5.4,0c-7.1,1.7-11.2,3.2-12.4,4.5c-0.7,0.7-0.4,1.3,1.1,1.6c11.7,0.1,17.5,0.2,17.5,0.2c0.7,0,0.9-1.3,0.7-4
			C197.2,143.5,196.7,142.7,195.7,142.6L195.7,142.6z"/>
		<path fill-rule="evenodd" fill="#FF9B21" stroke="#FF9B21" stroke-width="0.5669" stroke-miterlimit="10" d="M147.7,148.3
			c-0.3-0.1-0.3-0.5-0.1-1c2.2-2.1,6.3-3.9,12.5-5.5c1.1,1.1,3,1.3,5.9,0.5c0.8,1.9,0.8,3.9,0,5.9
			C153.9,148.3,147.7,148.3,147.7,148.3z"/>
		<path fill-rule="evenodd" fill="#EAC7A8" d="M194.5,87.6c1.8-0.1,3.3-0.1,4.8-0.1c4.3,3.1,6.4,5.5,6.5,7c-0.1,0.9-1.6,0.9-4.4,0.2
			c-2.6-1.5-4.3-1.9-5.1-1.2c-0.9,1.3-1.7,1.7-2.3,1.2c-0.3-0.4,0.2-1.4,1.2-3.1C195.6,89.4,195,88.5,194.5,87.6L194.5,87.6z"/>
		<path fill-rule="evenodd" fill="#B3B3B3" stroke="#B3B3B3" stroke-width="0.5669" stroke-miterlimit="10" d="M174.6,44.5
			c0.4-3.7,1.5-6.1,3.2-7.1c-3.8,0-5.7,0-5.7,0c-2,10.5-4.3,19.7-6.7,27.3c-1.5,6.1-2.3,9.1-2.3,9.1c4.8,0,7.2,0,7.2,0
			c-0.3-4.6,0-9.4,0.8-14.3C171.9,54.6,173.1,49.6,174.6,44.5L174.6,44.5z"/>
		<path fill-rule="evenodd" fill="#E87613" stroke="#E87613" stroke-width="0.5669" stroke-miterlimit="10" d="M164.6,67.8
			c-2.1,7-6.4,10.7-15.8,10.7c0,0-0.9-1.3-2.7-3.8c5.8-4.7,10.3-9.9,13.4-15.8c3.5-6.9,7.4-12.9,11.8-18.1
			C170,47.7,167.8,56.7,164.6,67.8L164.6,67.8z"/>
		<path fill-rule="evenodd" fill="#EAC7A8" d="M146.6,75.7c0.7,0.8,1.1,1.5,1.1,2c-1.4,1.9-2.7,3.3-4,4c-0.4,0.3-0.6,0.1-0.6-0.8
			c0.3-1.6-0.3-2.3-1.7-2c-3.5,0.6-4.4,0.4-2.7-0.7C142.1,76.2,144.7,75.4,146.6,75.7z"/>
		<path fill-rule="evenodd" fill="#698262" d="M20.9,70.8c0.9,0.9,0.7,1,2.1,0.6c0.5-6.5,2.5-11,4.4-13.8c3.7-6.7,6.6-10.1,8.7-10.2
			c-1.3-2-2.7-1.7-4.5,0.9c-3.8,4.7-5.7,7-5.7,7c-0.6,0.9-0.7,0.2-0.1-2.3c1-7.1,1.5-10.7,1.6-10.8c-0.6-1.3-1.2-0.7-1.6,1.6
			C24.5,51.4,24,55.3,24,55.3c-0.5,1.1-1,0.6-1.3-1.4c-2.3-6.8-3.5-10.1-3.6-9.9c-0.8-0.5-1.2,0.5-1.1,3c2.8,7.8,4.3,11.7,4.3,11.7
			C22.3,62.3,22.2,66.5,20.9,70.8z"/>
		<path fill-rule="evenodd" fill="#F65A03" d="M33.7,48.2c8.5,1.9,13.4-1.9,14.5-11.4C40.7,37.2,35.9,41,33.7,48.2z"/>
		<path fill-rule="evenodd" fill="#FFF7E8" d="M37.1,45.9c4.2-1.5,7-3.6,8.6-6.2C42.3,41,39.5,43.1,37.1,45.9z"/>
		<path fill-rule="evenodd" fill="#FFF7E8" d="M36.5,46.4c1.9-1.8,2.9-3.6,3.1-5.4C38.1,42.5,36.3,44.3,36.5,46.4z"/>
		<path fill-rule="evenodd" fill="#FFF7E8" d="M42.1,44.9c-2.2,1.5-4.1,2.2-5.9,2C38,45.7,39.9,45.1,42.1,44.9z"/>
		<path fill-rule="evenodd" fill="#F65A03" d="M26.7,46.4c-6.6-5.8-6.3-11.9,0.7-18.4C31.4,34.2,31.2,40.4,26.7,46.4z"/>
		<path fill-rule="evenodd" fill="#FFF7E8" d="M26.5,42.4c-1.3-4.3-1.3-7.8,0-10.6C27.4,35.2,27.4,38.7,26.5,42.4z"/>
		<path fill-rule="evenodd" fill="#FFF7E8" d="M26.4,43.1c0.4-2.6,1.2-4.5,2.6-5.7C28.7,39.5,28.3,42,26.4,43.1z"/>
		<path fill-rule="evenodd" fill="#FFF7E8" d="M24.4,37.7c0.1,2.6,0.7,4.6,1.9,6C26.2,41.5,25.5,39.5,24.4,37.7z"/>
		<path fill-rule="evenodd" fill="#F65A03" d="M18.9,46.7c-8.4-2.4-10.8-8.1-7.3-17C18,33.7,20.5,39.3,18.9,46.7z"/>
		<path fill-rule="evenodd" fill="#FFF7E8" d="M17.1,43.1c-3-3.3-4.5-6.5-4.5-9.6C14.8,36.3,16.3,39.5,17.1,43.1z"/>
		<path fill-rule="evenodd" fill="#FFF7E8" d="M17.3,43.8c-0.8-2.5-0.8-4.6-0.1-6.3C17.9,39.6,18.5,42.1,17.3,43.8z"/>
		<path fill-rule="evenodd" fill="#FFF7E8" d="M13.1,39.8c1.2,2.4,2.6,3.9,4.3,4.6C16.4,42.5,15,41,13.1,39.8z"/>
		<path fill-rule="evenodd" fill="#698262" d="M23.4,61.7c0.9,0.1,0.8,0.2,1.4-0.6c-2.7-3.6-3.6-6.9-3.9-9.1c-1.1-5.1-1.1-8.2,0-9.2
			c-1.5-0.5-2.2,0.3-1.9,2.4c0.1,4.1,0.1,6.2,0.1,6.2c0.1,0.8-0.3,0.4-1.1-1.1c-2.6-4.1-4-6.3-4-6.3c-0.9-0.4-0.9,0.1-0.1,1.6
			c2.9,4.5,4.3,6.7,4.3,6.7c0.2,0.8-0.2,0.8-1.3-0.1c-4.2-2.5-6.3-3.7-6.3-3.5c-0.6,0.1-0.4,0.8,0.8,2c4.9,2.8,7.4,4.2,7.4,4.2
			C20.3,56.7,22.1,58.9,23.4,61.7z"/>
		<path fill-rule="evenodd" fill="#F65A03" d="M20,44.3c5.3-2.8,6.1-7,2.4-12.4C18.7,35.4,17.9,39.5,20,44.3z"/>
		<path fill-rule="evenodd" fill="#FFF7E8" d="M20.7,41.6c1.5-2.6,2.1-5,1.7-7C21.2,36.7,20.7,39,20.7,41.6z"/>
		<path fill-rule="evenodd" fill="#FFF7E8" d="M20.6,42.1c0.2-1.8-0.1-3.2-0.8-4.2C19.7,39.4,19.6,41.1,20.6,42.1z"/>
		<path fill-rule="evenodd" fill="#FFF7E8" d="M22.8,38.8c-0.5,1.7-1.2,3-2.2,3.7C21,41.1,21.8,39.9,22.8,38.8z"/>
		<path fill-rule="evenodd" fill="#F65A03" d="M15.5,46.5c-6-0.1-8.6-3.4-7.9-9.9C12.5,38,15.2,41.3,15.5,46.5z"/>
		<path fill-rule="evenodd" fill="#FFF7E8" d="M13.6,44.5C11.1,42.8,9.5,41,8.9,39C10.9,40.3,12.5,42.2,13.6,44.5z"/>
		<path fill-rule="evenodd" fill="#FFF7E8" d="M13.9,44.9c-1-1.5-1.4-2.9-1.2-4.1C13.5,42,14.4,43.5,13.9,44.9z"/>
		<path fill-rule="evenodd" fill="#FFF7E8" d="M10.4,43c1.2,1.3,2.4,2.1,3.6,2.2C13.1,44.2,11.9,43.4,10.4,43z"/>
		<path fill-rule="evenodd" fill="#F65A03" d="M11.6,50.1c-5.4,2.5-9.2,0.6-11.3-5.6C5.3,43.7,9.1,45.6,11.6,50.1z"/>
		<path fill-rule="evenodd" fill="#FFF7E8" d="M9.1,49.1c-3-0.4-5.2-1.4-6.6-2.9C4.8,46.5,7,47.5,9.1,49.1z"/>
		<path fill-rule="evenodd" fill="#FFF7E8" d="M9.5,49.3c-1.5-1-2.5-2-2.8-3.2C7.9,46.9,9.3,47.8,9.5,49.3z"/>
		<path fill-rule="evenodd" fill="#FFF7E8" d="M5.5,49.1c1.7,0.7,3.1,0.9,4.3,0.5C8.4,49,7,48.9,5.5,49.1z"/>
		<path fill-rule="evenodd" fill="#CCCCCC" d="M18.4,70.5h9.3c1.5,0,2.7,1.2,2.7,2.7v10.9c0,1.5-1.2,2.7-2.7,2.7h-9.3
			c-1.5,0-2.7-1.2-2.7-2.7V73.2C15.7,71.7,16.9,70.5,18.4,70.5z"/>
		<path fill-rule="evenodd" fill="#EAC7A8" d="M70.2,156.6c2.2,1.7,3.8,1.3,4.7-1c0,0-0.9-1.8-2.7-5.3c-3.5,1.6-5.3,2.3-5.3,2.3
			C69.1,155.3,70.2,156.6,70.2,156.6L70.2,156.6z"/>
		<path fill-rule="evenodd" fill="#2F3676" d="M72.8,157.7c-0.7,0-1.6-0.3-2.6-1.1c-1.7,1.1-2.3,2.9-1.7,5.5
			c11.3,0.2,16.9,0.2,16.9,0.2c2.3,0.1,3.3-0.3,2.8-1.5c-0.2-1.2-4.7-3-13.3-5.2C74.5,156.8,73.8,157.5,72.8,157.7z"/>
		<path fill-rule="evenodd" fill="#5C63AB" d="M43.4,114.6c0.7-11.3,1.2-19.6,1.4-25c12.9,0.1,19.3,0.2,19.3,0.2
			c0.2,18-3.9,32.1-12.3,42.1c-10.1,11.9-15.2,17.8-15.2,17.8c-8.2-9.3-12.3-13.9-12.3-13.9C37.1,121.6,43.4,114.6,43.4,114.6z"/>
		<path fill-rule="evenodd" fill="#2F3676" stroke="#2F3676" stroke-width="0.5669" stroke-miterlimit="10" d="M64.2,89.8
			c0.7,11.8-1.9,23.8-7.9,36c3.2,18,4.7,27,4.7,27c13-0.7,19.5-1,19.5-1c-9.6-41.4-14.4-62.1-14.4-62.1
			C64.8,89.7,64.2,89.8,64.2,89.8z"/>
		<path fill-rule="evenodd" fill="#EAC7A8" d="M35.2,101.1c-1.6,0-3,0.1-4.2,0.1c-0.9,3-2.5,5.3-4.8,6.8c-2.2,1.2-3.3,2.5-3.4,4.1
			c0.2,1,1.9,0.9,5.2-0.2c2.6-1.6,4.2-2,4.8-1.4c1.3,1.5,2.1,2.1,2.6,1.7c0.5-0.4,0.2-1.4-1.1-3.1C33.6,106.3,33.9,103.7,35.2,101.1
			L35.2,101.1z"/>
		<path fill-rule="evenodd" fill="#2F3676" stroke="#2F3676" stroke-width="0.5669" stroke-miterlimit="10" d="M27.4,101.6
			c-0.1-0.8,0-2.1,0.1-3.9c1.7-15.1,7.3-29.2,16.8-42.4c1.8-3.5,4.4-4.9,7.8-4.3c1.5,15.2,2.9,30.3,4.2,45.4
			c-5.2,0.7-10.8,0.8-16.7,0.2c-0.6-0.1-0.8,0.5-0.4,1.6c0.2,2,0.3,3,0.3,3C31.4,101.5,27.4,101.6,27.4,101.6L27.4,101.6z"/>
		<path fill-rule="evenodd" fill="#2A316A" d="M44.3,96.9c-1.5-0.1-3.1-0.2-4.6-0.3c0.3-10.1,0.5-15.2,0.5-15.2
			c0.4-1.3,0.6-0.6,0.8,1.9C41.3,90.6,42.4,95.2,44.3,96.9z"/>
		<path fill-rule="evenodd" fill="#595E91" d="M51.7,86.4c0.1-2.7,0.1-4,0.1-4c-5.4,2.5-8,3.8-8,3.8C49.1,86.4,51.7,86.4,51.7,86.4z
			"/>
		<path fill-rule="evenodd" fill="#191847" stroke="#2A316A" stroke-width="0.5669" stroke-miterlimit="10" d="M81.3,86.9
			C70.8,78,63,67.9,56.7,55.9c1.3,16.7,6.4,30.9,15.4,42.5C78.3,90.7,80.8,87.7,81.3,86.9L81.3,86.9z"/>
		<path fill-rule="evenodd" fill="#4D4D4D" stroke="#4D4D4D" stroke-width="0.5669" stroke-miterlimit="10" d="M53.2,61.8
			c-0.4-4.2-0.7-7.6-1-10.4c2.1-0.3,3.3,0,3.8,0.7c0.6,1.5,1,4.7,1.3,9.4c1.7,11.5,4.7,20.8,9,28c-7,0.2-10.5,0.3-10.5,0.3
			C54,71.2,53.2,61.8,53.2,61.8z"/>
		<path fill-rule="evenodd" fill="#EAC7A8" d="M28.2,146.6c-2.8,0.3-4.4-0.8-4.6-3.1c0,0,1.4-1.2,4.3-3.5c2.7,2.9,4,4.4,4.1,4.4
			C29.4,145.8,28.2,146.6,28.2,146.6z"/>
		<path fill-rule="evenodd" fill="#2F3676" d="M33.9,159.9c-0.6,3.1-5.5-1.2-14.7-13c0.8-1.1,2.2-2.2,4.4-3.5
			c0.2,2.2,1.6,3.3,4.4,3.1C31.3,151.7,33.3,156.2,33.9,159.9z"/>
		<path fill-rule="evenodd" fill="#EAC7A8" stroke="#EAC7A8" stroke-width="0.5669" stroke-miterlimit="10" d="M54.2,49.9
			c0,0.9-0.1,1.4-0.1,1.4s-1.7-0.1-5.2-0.3c0.3-2.6,0.5-3.9,0.5-3.9c0.6-0.3,0.8-1,0.8-2.1c-0.3-3.4,0.1-5.4,1.3-5.9
			c0.7-0.4,1.7,0.3,2.9,2c0.8,0.5,1.4-0.3,1.9-2.1c1.1-1.2,2.8-1.4,5.1-0.7c0.8,4.7,0.5,8.3-1.1,10.8c-1.2,1.4-3.1,1.2-5.8-0.5
			C54.2,48.5,54.1,48.9,54.2,49.9L54.2,49.9z"/>
		<path fill="none" d="M54.2,51.4c-1.5-0.1-3.2-0.2-5.2-0.3"/>
		<path fill-rule="evenodd" fill="#191847" d="M56.8,38.5c1.3-0.8,2.8-0.9,4.6-0.2c1.3-1.7,0.7-3.7-1.7-6c-3.5-2.3-6.8-2.4-9.9-0.3
			c-2.9,2-4,4.4-3.2,7.4c1.1,1.4,1.8,3,2.2,4.8c0.2,1,0.4,2,0.7,3c0.7-0.6,1-1.6,0.8-2.7c-0.3-2.7,0.1-4.5,1.3-5.3
			c0.8-0.3,1.8,0.3,2.9,2c0.4,0.3,0.8,0.1,1.2-0.4C56,39.4,56.3,38.7,56.8,38.5z"/>
		<path fill-rule="evenodd" fill="#EAC7A8" d="M78,91.3c-0.7,0.9-1.5,1.9-2.3,2.9c3.4,2.1,5.5,4.4,6.3,6.8c0.7,0.8,1.1,0.5,1.2-0.6
			c0-1.2,0.5-1.7,1.7-1.5c1.5,0.1,2.8,0.4,4,0.7c0.9-1.6-0.8-2.8-5-3.8C82.2,95.3,80.2,93.9,78,91.3z"/>
	</g>
</g>
</svg>
