<?xml version="1.0" encoding="utf-8"?>
<!-- Generator: Adobe Illustrator 24.2.3, SVG Export Plug-In . SVG Version: 6.00 Build 0)  -->
<svg version="1.1" id="Layer_1" xmlns="http://www.w3.org/2000/svg" xmlns:xlink="http://www.w3.org/1999/xlink" x="0px" y="0px"
	 viewBox="0 0 226.8 171.8" style="enable-background:new 0 0 226.8 171.8;" xml:space="preserve">
<style type="text/css">
	.st0{fill-rule:evenodd;clip-rule:evenodd;fill:#FF3185;}
	.st1{fill-rule:evenodd;clip-rule:evenodd;fill:#EAC7A8;}
	.st2{fill-rule:evenodd;clip-rule:evenodd;fill:#2F3676;}
	.st3{fill-rule:evenodd;clip-rule:evenodd;fill:#5C63AB;stroke:#5C63AB;stroke-width:0.5669;stroke-miterlimit:10;}
	.st4{fill-rule:evenodd;clip-rule:evenodd;fill:#2F3676;stroke:#2F3676;stroke-width:0.5669;stroke-miterlimit:10;}
	.st5{fill-rule:evenodd;clip-rule:evenodd;fill:#2A316A;}
	.st6{fill-rule:evenodd;clip-rule:evenodd;fill:#595E91;}
	.st7{fill-rule:evenodd;clip-rule:evenodd;fill:#191847;stroke:#2A316A;stroke-width:0.5669;stroke-miterlimit:10;}
	.st8{fill-rule:evenodd;clip-rule:evenodd;fill:#4D4D4D;stroke:#4D4D4D;stroke-width:0.5669;stroke-miterlimit:10;}
	.st9{fill:none;}
	.st10{fill-rule:evenodd;clip-rule:evenodd;fill:#191847;stroke:#191847;stroke-width:0.5669;stroke-miterlimit:10;}
	.st11{fill-rule:evenodd;clip-rule:evenodd;fill:#B3B3B3;}
	.st12{fill-rule:evenodd;clip-rule:evenodd;fill:#1F28CF;}
	.st13{fill-rule:evenodd;clip-rule:evenodd;fill:#191847;}
	.st14{fill-rule:evenodd;clip-rule:evenodd;fill:#DB2721;stroke:#DB2721;stroke-width:0.5669;stroke-miterlimit:10;}
	.st15{fill-rule:evenodd;clip-rule:evenodd;fill:#69A1AC;}
	.st16{fill-rule:evenodd;clip-rule:evenodd;fill:#2B44FF;stroke:#2B44FF;stroke-width:0.5669;stroke-miterlimit:10;}
	.st17{fill-rule:evenodd;clip-rule:evenodd;fill:#69A1AC;stroke:#69A1AC;stroke-width:0.5669;stroke-miterlimit:10;}
	.st18{fill-rule:evenodd;clip-rule:evenodd;fill:#4D4D4D;stroke:#4D4D4D;stroke-width:20;stroke-miterlimit:22.9256;}
	.st19{fill-rule:evenodd;clip-rule:evenodd;fill:#FF4133;stroke:#FF4133;stroke-width:0.5669;stroke-miterlimit:10;}
	.st20{fill-rule:evenodd;clip-rule:evenodd;fill:#85A67B;}
	.st21{fill-rule:evenodd;clip-rule:evenodd;fill:#BCDAB4;}
</style>
<g id="Layer_x0020_1">
	<ellipse class="st0" cx="45.5" cy="111" rx="45.5" ry="11.6"/>
	<g id="_2095548742368">
		<path class="st1" d="M53.8,100c2.4,0.2,3.7-0.7,3.9-2.6c0,0-1.2-1-3.6-3c-2.3,2.5-3.4,3.7-3.4,3.7C52.8,99.4,53.8,100,53.8,100z"
			/>
		<path class="st1" d="M18.6,108.6c-1.9,1.4-3.2,1.1-4-0.9c0,0,0.8-1.5,2.3-4.5c3,1.3,4.5,2,4.5,2C19.5,107.5,18.6,108.6,18.6,108.6
			L18.6,108.6z"/>
		<path class="st2" d="M16.5,109.4c0.6,0,1.4-0.3,2.2-0.9c1.4,0.9,1.9,2.5,1.4,4.6c-9.5,0.1-14.3,0.2-14.3,0.2
			c-2,0.1-2.8-0.3-2.4-1.2c0.2-1,4-2.5,11.3-4.4C15,108.7,15.6,109.2,16.5,109.4L16.5,109.4z"/>
		<path class="st3" d="M41.1,73.1c-0.6-9.6-1-16.7-1.2-21.2C29,52,23.6,52,23.6,52C23.4,67.3,26.9,79.2,34,87.7
			c8.6,10,12.9,15.1,12.9,15.1c7-7.9,10.4-11.8,10.4-11.8C46.5,79,41.1,73.1,41.1,73.1L41.1,73.1z"/>
		<path class="st4" d="M23.6,52c-0.6,10,1.6,20.1,6.7,30.5c-2.7,15.3-4,22.9-4,22.9c-11-0.6-16.5-0.9-16.5-0.9
			C17.9,69.4,22,51.9,22,51.9C23.1,52,23.6,52,23.6,52L23.6,52z"/>
		<path class="st1" d="M48.2,61.6c1.3,0,2.5,0.1,3.5,0.1c0.8,2.5,2.2,4.5,4.1,5.8c1.9,1,2.8,2.1,2.8,3.5c-0.2,0.9-1.6,0.8-4.4-0.2
			c-2.2-1.3-3.6-1.7-4.1-1.2c-1.1,1.3-1.8,1.8-2.2,1.5c-0.5-0.3-0.2-1.2,0.9-2.7C49.4,66.1,49.2,63.8,48.2,61.6L48.2,61.6z"/>
		<path class="st4" d="M54.7,62.1c0-0.7,0-1.8-0.1-3.3C53.1,46,48.4,34,40.4,22.8c-1.5-3-3.7-4.2-6.6-3.6
			c-1.3,12.8-2.5,25.7-3.5,38.5c4.4,0.6,9.1,0.7,14.1,0.2c0.5,0,0.6,0.4,0.4,1.4c-0.2,1.7-0.3,2.6-0.3,2.6
			C51.3,62,54.7,62.1,54.7,62.1L54.7,62.1z"/>
		<path class="st5" d="M40.5,58.1c1.3-0.1,2.6-0.2,3.9-0.3C44.1,49.3,44,45,44,45c-0.3-1.1-0.5-0.5-0.7,1.6
			C43,52.8,42,56.6,40.5,58.1L40.5,58.1z"/>
		<path class="st6" d="M34.1,49.2C34.1,47,34,45.8,34,45.8c4.5,2.1,6.8,3.2,6.8,3.2C36.4,49.1,34.1,49.2,34.1,49.2L34.1,49.2z"/>
		<path class="st7" d="M9.2,49.7c8.8-7.6,15.5-16.1,20.8-26.3c-1.1,14.2-5.4,26.2-13,36C11.7,52.9,9.5,50.4,9.2,49.7L9.2,49.7z"/>
		<path class="st8" d="M32.9,28.4c0.3-3.5,0.7-6.6,1-9c-1.8-0.2-2.9,0.1-3.3,0.8c-0.5,1.3-0.9,3.9-1.1,8c-1.5,9.7-4,17.6-7.6,23.8
			c5.9,0.2,8.9,0.3,8.9,0.3C32.2,36.3,32.9,28.4,32.9,28.4z"/>
		<path class="st2" d="M48.9,111.3c0.5,2.7,4.6-1,12.4-11c-0.6-0.9-1.9-1.9-3.7-2.9c-0.1,1.9-1.4,2.8-3.7,2.6
			C51.1,104.3,49.5,108.1,48.9,111.3L48.9,111.3z"/>
		<path class="st1" d="M32,18.3c0,0.8,0,1.2,0,1.2s1.5-0.1,4.4-0.2C36.2,17,36,15.9,36,15.9c-0.5-0.2-0.7-0.8-0.7-1.8
			c0.2-2.9-0.1-4.6-1.1-5c-0.6-0.3-1.4,0.2-2.4,1.7c-0.7,0.4-1.2-0.2-1.6-1.8c-0.9-1-2.4-1.2-4.3-0.6c-0.7,4-0.4,7.1,1,9.2
			c1,1.2,2.7,1.1,4.9-0.5C32.1,17,32.2,17.4,32,18.3L32,18.3z"/>
		<path class="st9" d="M32.1,19.5c1.3-0.1,2.7-0.2,4.4-0.2"/>
		<path class="st10" d="M29.8,8.6c-1.1-0.7-2.4-0.8-3.9-0.2c-1.1-1.4-0.6-3.1,1.5-5.1c3-2,5.8-2.1,8.4-0.3c2.4,1.7,3.3,3.8,2.7,6.3
			c-0.9,1.2-1.6,2.6-1.9,4c-0.1,0.8-0.3,1.7-0.6,2.6c-0.6-0.5-0.9-1.3-0.7-2.3c0.3-2.3-0.1-3.8-1.1-4.5c-0.7-0.3-1.5,0.3-2.4,1.7
			c-0.3,0.2-0.7,0.1-1.1-0.4C30.5,9.4,30.2,8.8,29.8,8.6z"/>
		<path class="st1" d="M9.6,50.3c0.6,0.8,1.2,1.6,1.9,2.4c-2.8,1.8-4.6,3.7-5.3,5.8c-0.6,0.6-0.9,0.5-1-0.5c0-1-0.5-1.5-1.4-1.3
			c-1.2,0.1-2.4,0.3-3.4,0.6c-0.7-1.3,0.7-2.4,4.2-3.2C6,53.7,7.7,52.4,9.6,50.3L9.6,50.3z"/>
	</g>
	<ellipse class="st0" cx="122.9" cy="156.4" rx="73.9" ry="15.4"/>
	<ellipse class="st11" cx="87.7" cy="119.1" rx="39.5" ry="38.7"/>
	<path class="st12" d="M119.6,105.1c4.5,0.2,6.4,1.6,5.9,4.3c0,0-6.5,8.2-19.6,24.7c0,0,3.7,2.3,11.2,7c31.4-29,40.7-45.4,27.9-49.4
		c0,0-12.9-4.7-33.6-14c0,0-1.9,0-10.9,0.2c-16.4,0.3-24.6,0.4-24.6,0.4C72.3,88.4,76,96,86.9,101
		C94.8,102.9,105.7,104.2,119.6,105.1L119.6,105.1z"/>
	<path class="st13" d="M99.9,35c-4.6-0.6-9.4-0.6-14.4-0.2C81.7,35,79,31.7,82.6,29c3.9-3.3,5.5-7,5-11.3c-0.5-4.8,1.7-7.6,6.8-8.6
		c5-0.7,8.5,0.4,10.6,3.2c4.1,9.3,5.1,16.6,2.9,21.9C107.4,35.2,104.7,35.4,99.9,35L99.9,35z"/>
	<path class="st14" d="M101.2,44.8c-2-4.4-2.1-11.6-1.5-11.7c7.1,15.6,10.7,23.5,10.7,23.5c1.5,3.9,3.9,4.3,9.8,4.7
		c4.7-0.2,9.1-1.5,13-3.8c2.1,3.7,3.2,5.5,3.2,5.5c-5.5,6.3-12.1,10.1-19.8,11.4c-3.4,0.5-5.4-0.3-5.8-2.5
		C104.4,53.9,101.2,44.8,101.2,44.8L101.2,44.8z"/>
	<path class="st15" d="M100.4,141.3c1.9-3.7,3.8-6.4,5.7-8c4,3.5,6,5.3,6,5.3c5.2,9.6,7.9,14.4,7.9,14.4c0.6,0.9,0.3,1.4-0.8,1.5
		C106.7,145.6,100.4,141.3,100.4,141.3z"/>
	<path class="st15" d="M162.1,144.9c2.4,0,4.6-0.1,6.8-0.1c11.4,5.1,17.2,7.7,17.2,7.7c0.8,0.7,0.7,1.3-0.4,1.6
		c-15.8,0.1-23.7,0.1-23.7,0.1C161.2,152.8,161.3,149.7,162.1,144.9L162.1,144.9z"/>
	<path class="st1" d="M106,24.6c0.1-5.8-0.6-9.4-1.9-11c-2.2,3-4.7,4.8-7.6,5.2c-2.5-0.6-3.7,0.4-3.6,2.9c0.2,1.2,1.1,1.7,2.2,1.6
		c0,5.8-0.1,8.7-0.1,8.7c1.8,0.1,2.8,0.2,2.8,0.2c0-1.8,0.1-2.8,0.1-2.8c1.9,1.4,4,1.6,6.3,0.6C105.6,28.7,106.2,26.9,106,24.6
		L106,24.6z"/>
	<path class="st1" d="M135.8,62.4c-1.2-2-1.8-3.1-1.8-3.1c8.3-6.6,12.1-8.9,11.5-7.1c-0.8,1.3-1.5,2.4-2,3.4c-1.4,1.8-1,2.6,1.4,2.5
		c1.3,0.3,1,0.7-0.7,1.3C140.9,59.8,138.1,60.8,135.8,62.4L135.8,62.4z"/>
	<path class="st16" d="M150.4,99.5c0,0,6.7,14.6,20.1,43.7c0,0-3.7,2-11.2,5.9c0,0-6.8-9-20.4-27.1c-0.5-1.1-1.5-2.1-1.5-2.1
		C143.4,112.9,148.3,105.9,150.4,99.5L150.4,99.5z"/>
	<path class="st17" d="M99.6,38.6c-0.2-2-0.2-4,0.1-6.2c-4.4-0.3-6.6-0.5-6.6-0.5c2.4,6.3,4.6,14.7,6.6,25
		c1.2,7.8,1.8,14.8,1.9,21.1c6.4-0.2,9.6-0.3,9.6-0.3c-0.4-3.7-0.5-5.5-0.5-5.5c-3.3-9.4-5.5-15.8-6.7-19.1
		C101.3,46,99.8,41.2,99.6,38.6L99.6,38.6z"/>
	<path class="st18" d="M155.5,35.3L155.5,35.3c-0.9-0.8-2.1-0.4-2.7,0.8l-12.8,24.4c-0.6,1.2-0.5,2.7,0.4,3.4l0.1,0.1
		c0.8,0.7,2,0.3,2.7-0.9l12.8-24.4C156.5,37.5,156.3,36,155.5,35.3z"/>
	<path class="st19" d="M77.3,66.2c0,0.2,0,0.4-0.1,1c0,0-1,6.1-2.9,18.3c3.3,2,12.2,2.5,26.7,1.4c1.1-2.5,1.6-6,1.5-10.7
		c2.8-0.3,6.1-0.9,10-2c9.8-2.5,17.4-5.8,22.9-9.9c-3.5-3.7-5.3-5.5-5.3-5.5c-11.8,3.5-21.4,4.5-29,3c-1.4-10.7-4.1-20.7-8-30
		C84,30.6,80.3,40.8,77.3,66.2L77.3,66.2z"/>
	<path class="st1" d="M131.1,60.5c1.5,2.7,2.2,4.1,2.2,4.1c12.8-4.8,18-7.5,15.6-8.1c-2,0-3.7,0-5.1,0c-2.9,0.4-3.5-0.6-1.9-3.2
		c0.5-1.6-0.1-1.6-1.9-0.1C137.4,56.5,134.4,59,131.1,60.5L131.1,60.5z"/>
	<g id="_2095548734816">
		<path class="st20" d="M201.1,83c1,0.6,1.4,0.3,1.2-0.8c-1.9-3.4-2.3-5.8-1.2-7.4c3.2-6.2,4-10.8,2.6-14c-1.4-2.3-3.1-2.2-4.9,0.4
			c-1.6,4.6-2.8,5.8-3.8,3.6c1.4-5.1,2-8.3,1.6-9.6c-0.8-2-1.9-2-3.4-0.2c-1.5,1.5-2.2,1.4-2.3-0.3c0.2-2.5,0-4-0.8-4.5
			c-1.3-0.2-2.1,0.5-2.5,2.2c-0.4,0.8-1.1,0.3-1.9-1.6c-1.6-2.7-3.1-3.1-4.6-1.4c-0.5,1.1,0.1,2.9,2,5.5c0.6,1,0.4,1.5-0.7,1.5
			c-2.9,0.4-3.9,1.5-3,3.4c0.3,0.7,2.3,1.5,6.1,2.5c0.9,0.6,0.9,1.2,0,1.6c-2.9-0.2-4.5,0.4-4.8,2c-0.1,1.8,1.2,2.8,3.9,3.1
			c2.9-0.1,4.5,0.5,4.8,1.7c0.1,1.2-1.2,1.6-3.8,1.1c-2,0.5-2.5,1.6-1.4,3.4c1.3,2,5.6,3.1,13,3.1C198.2,78.8,199.5,80.4,201.1,83
			L201.1,83z"/>
		<path class="st21" d="M197.1,76.4c1.5,2,2.4,2.9,2.9,2.7c-2-3.6-2.8-5.8-2.7-6.8c1-3.1,2.1-5.5,3.2-7.3c-0.2-0.6-0.6-0.4-1.4,0.7
			c-1.8,3.8-2.6,5.7-2.6,5.7c-0.4,0.2-0.8-0.2-1.2-1.2c-2-3.9-3-5.9-3-5.9c-0.4-0.4,0.5-2.4,2.7-6.1c0.1-0.7-0.2-0.6-1,0.5
			c-1.8,2.8-2.7,4.3-2.7,4.3c-1.8-3.1-2.7-4.6-2.7-4.6c-0.3-1.6,0-3.4,1-5.4c-0.3-1.2-0.8-0.4-1.5,2.4c-0.3,2.3-0.6,2.8-1,1.6
			c-2-3.5-3.1-5.2-3.1-5.2c-0.5,0.1-0.5,0.6,0.2,1.7c1.6,2.9,2.4,4.4,2.4,4.4c-0.2,0.6-1.5,0.6-3.9,0.2c-1.1,0-0.9,0.2,0.7,0.8
			c3.1,0.2,5,1.3,5.5,3.2c1.4,2.5,2,3.7,2,3.7c-0.4,0.7-3,0.7-7.8-0.1c-0.6,0.3-0.5,0.6,0.4,0.9c2.2,0.7,4.8,0.9,7.8,0.5
			c0.4,0.1,1.5,1.8,3.4,5.1c0.8,1.2,0.9,1.9,0.3,2c-4.7-0.1-7-0.2-7-0.2c-1.2,0.3-1,0.6,0.4,0.9C193.7,74.7,196.5,75.2,197.1,76.4
			L197.1,76.4z"/>
		<path class="st20" d="M199.1,102.2c0.5,1.7,1.2,1.9,2.3,0.4c1.6-5.9,3.8-9.1,6.8-9.5c10.3-3.3,16.4-7.5,18.3-12.6
			c1-4.2-1-5.8-5.9-5c-6.7,3.3-9.5,3.3-8.2-0.1c7.2-4,11.3-7,12.4-8.9c1.3-3.1,0.1-4.4-3.5-4c-3.3,0-4-0.9-2.2-2.8
			c3-2.5,4.4-4.5,4.1-5.9c-1.2-1.6-2.9-1.7-5.2-0.3c-1.4,0.5-1.5-0.8-0.3-3.9c1.2-4.7,0-6.9-3.6-6.7c-1.8,0.6-3.1,3.4-3.9,8.4
			c-0.4,1.8-1.2,2.1-2.5,0.9c-3.6-2.8-6-2.6-7.1,0.5c-0.4,1.1,0.9,4.3,4.1,9.5c0.3,1.8-0.2,2.3-1.7,1.7c-3-3.5-5.5-4.5-7.6-3.1
			c-2.1,1.9-1.8,4.5,0.9,7.8c3.3,3.2,4.5,5.6,3.4,7.2c-1.3,1.4-3.1,0.4-5.5-3c-2.8-1.6-4.5-0.9-5.3,2.2c-0.8,3.7,2.9,9.6,10.9,17.8
			C200.5,94.3,200.3,97.5,199.1,102.2L199.1,102.2z"/>
		<path class="st21" d="M201.9,90.3c-0.6,3.9-0.5,5.9,0.3,6.2c1.7-6.1,3.3-9.6,4.6-10.5c4.5-2.3,8.4-3.8,11.6-4.5
			c0.5-0.9-0.2-1.2-2.3-0.8c-6.1,2.2-9.2,3.4-9.2,3.4c-0.7-0.2-0.7-1.1-0.1-2.7c2.1-6.6,3.1-9.9,3.1-9.9c0-0.8,3.2-2,9.8-3.7
			c0.9-0.7,0.4-0.9-1.7-0.5c-5.1,1.2-7.6,1.8-7.6,1.8c1.4-5.4,2.1-8.1,2.1-8.1c1.4-2.1,3.8-3.7,7-4.8c1-1.6-0.4-1.3-4.3,1
			c-2.8,2.2-3.8,2.4-2.9,0.6c1.6-6.1,2.4-9.2,2.4-9.2c-0.7-0.5-1.2,0.2-1.7,2.1c-1.4,5.1-2.2,7.6-2.2,7.6c-0.8,0.4-2.4-1-4.6-4.1
			c-1.2-1.3-1.3-0.7-0.1,1.7c3.3,3.7,4.1,6.9,2.6,9.7c-1.2,4.2-1.8,6.3-1.8,6.3c-1.2,0.4-4.1-2.5-8.5-8.7c-1-0.4-1.2,0.1-0.5,1.5
			c1.7,3.2,4.3,6.3,8,9.2c0.3,0.6-0.4,3.7-1.9,9.4c-0.5,2.3-1.1,3.1-1.9,2.6c-5-5.3-7.6-7.9-7.6-7.9c-1.6-1-1.8-0.5-0.5,1.4
			C200,84.8,202.6,88.5,201.9,90.3z"/>
		<path class="st20" d="M196.9,107.6c0.7,1,1.3,0.9,1.6-0.3c-0.4-4.2,0.3-6.8,2.1-7.9c5.9-4.7,8.9-8.9,8.9-12.6
			c-0.4-3-2.1-3.6-5.1-1.8c-3.6,3.8-5.4,4.4-5.4,1.9c3.7-4.4,5.7-7.3,5.9-8.8c0.1-2.3-1-2.9-3.3-1.8c-2.1,0.8-2.8,0.4-2.1-1.3
			c1.4-2.4,1.8-4,1.3-4.9c-1.2-0.8-2.3-0.4-3.5,1c-0.8,0.6-1.2-0.2-1.1-2.5c-0.4-3.4-1.7-4.5-3.9-3.5c-1,0.8-1.2,3-0.5,6.4
			c0.2,1.3-0.3,1.7-1.4,1.2c-3-0.9-4.5-0.3-4.5,2c0,0.8,1.6,2.6,5,5.2c0.6,1.1,0.4,1.6-0.7,1.5c-2.8-1.6-4.7-1.6-5.7-0.2
			c-0.9,1.7-0.1,3.4,2.4,4.9c2.9,1.3,4.3,2.5,3.9,3.9c-0.5,1.2-1.9,1-4.3-0.6c-2.2-0.4-3.2,0.5-2.9,2.7c0.4,2.6,4.2,5.6,11.4,9
			C195.9,102.1,196.5,104.3,196.9,107.6L196.9,107.6z"/>
		<path class="st21" d="M195.9,99.2c0.5,2.7,1.1,4,1.7,4c-0.3-4.4-0.2-7.1,0.5-8c2.4-2.6,4.6-4.5,6.5-5.8c0.1-0.7-0.4-0.7-1.7,0
			c-3.5,2.9-5.2,4.4-5.2,4.4c-0.5,0-0.7-0.5-0.7-1.7c-0.2-4.8-0.4-7.2-0.4-7.2c-0.2-0.5,1.6-2.1,5.5-4.8c0.4-0.7,0-0.7-1.2,0.1
			c-3,2-4.5,3-4.5,3c-0.4-3.8-0.6-5.8-0.6-5.8c0.4-1.7,1.5-3.4,3.4-4.9c0.3-1.3-0.6-0.8-2.5,1.7c-1.3,2.1-1.9,2.5-1.7,1.1
			c-0.4-4.4-0.7-6.6-0.7-6.6c-0.6-0.2-0.8,0.4-0.6,1.8c0.3,3.7,0.4,5.5,0.4,5.5c-0.5,0.5-1.8-0.1-4-1.6c-1.1-0.5-1-0.2,0.4,1.1
			c3,1.6,4.3,3.5,4,5.7c0.2,3.1,0.3,4.6,0.3,4.6c-0.7,0.5-3.3-0.6-7.6-3.6c-0.7,0-0.7,0.3,0,1.1c1.9,1.7,4.3,3.1,7.5,4.1
			c0.3,0.3,0.7,2.5,1,6.6c0.2,1.6,0,2.3-0.6,2.2c-4.6-2.2-6.8-3.3-6.8-3.3c-1.3-0.2-1.3,0.1,0,1C193.3,96.1,195.9,97.9,195.9,99.2
			L195.9,99.2z"/>
		<path class="st11" d="M204.7,120.2c-14.8,2.1-22.3-3.5-22.6-16.9c23.1,0,34.6,0,34.6,0C217.6,110.4,212.8,119.4,204.7,120.2
			L204.7,120.2z"/>
	</g>
</g>
</svg>
