<?xml version="1.0" encoding="utf-8"?>
<!-- Generator: Adobe Illustrator 24.2.3, SVG Export Plug-In . SVG Version: 6.00 Build 0)  -->
<svg version="1.2" baseProfile="tiny" id="Layer_1" xmlns="http://www.w3.org/2000/svg" xmlns:xlink="http://www.w3.org/1999/xlink"
	 x="0px" y="0px" viewBox="0 0 176 351" overflow="visible" xml:space="preserve">
<path fill="#EE3984" d="M85.7,342.4c43,0,77.9-11.7,77.9-26.2c0-14.4-34.9-26.2-77.9-26.2S7.7,301.8,7.7,316.3
	C7.7,330.7,42.6,342.4,85.7,342.4z"/>
<path d="M151.8,6.6c4.6,0,8.4,1.3,11.2,3.9c2.8,2.6,4.3,6.1,4.3,10.5c0,4.9-1.5,8.5-4.5,10.9c-3,2.3-7.1,3.5-12.3,3.5l-0.2,6.7h-5.5
	L144.4,31h2c4.6,0,8.2-0.7,10.8-2.1c2.6-1.4,3.9-4,3.9-7.9c0-2.8-0.8-5-2.5-6.6c-1.7-1.6-3.9-2.5-6.8-2.5c-2.9,0-5.2,0.8-6.9,2.4
	c-1.6,1.5-2.4,3.7-2.4,6.4h-6c0-2.8,0.6-5.3,1.9-7.4c1.3-2.1,3-3.8,5.3-5C146.1,7.1,148.8,6.6,151.8,6.6z M147.4,56.4
	c-1.2,0-2.2-0.4-3.1-1.3c-0.8-0.8-1.3-1.9-1.3-3.1c0-1.2,0.4-2.2,1.3-3.1s1.9-1.3,3.1-1.3c1.2,0,2.1,0.4,2.9,1.3
	c0.8,0.8,1.3,1.9,1.3,3.1c0,1.2-0.4,2.2-1.3,3.1C149.5,56,148.6,56.4,147.4,56.4z"/>
<path fill-rule="evenodd" fill="#EAC7A9" d="M44.7,302.4c-6.3,1.3-10.4,1.2-12.4-0.3c0,0,0.7-2.7,2-8.1c8.6,0.2,12.9,0.3,12.9,0.3
	C46.7,297.3,45.8,300,44.7,302.4z"/>
<path fill-rule="evenodd" fill="#EAC7A9" d="M113.2,300.6c-3.3,2.6-7.7,3-13.3,1.2c0,0,0-3.4-0.1-10.3c8.9,0,13.4,0,13.4,0
	C113.2,297.6,113.2,300.6,113.2,300.6z"/>
<path fill-rule="evenodd" fill="#89C5CC" stroke="#98D6D5" stroke-width="0.2" stroke-miterlimit="22.9256" d="M50.1,147.9
	c1.7,45.2-4.5,93.8-18.5,146c12.5,0.3,18.7,0.4,18.7,0.4c12.1-25.9,20.2-46,24.3-60.5c13.7-44.7,21.5-73.6,23.5-86.7
	C66.2,147.7,50.1,147.9,50.1,147.9z"/>
<path fill-rule="evenodd" fill="#69A1AC" d="M98.2,147.2c-6.7,29.2-13.2,53.7-19.5,73.4c12.3,47.3,18.4,71,18.4,71
	c11.8-0.1,17.6-0.1,17.6-0.1c2.4-59.5-1.6-107.3-12.1-143.3c-0.2-0.8-0.3-1.2-0.3-1.2C99.6,147.2,98.2,147.2,98.2,147.2z"/>
<path fill-rule="evenodd" fill="#191946" stroke="#191946" stroke-width="0.2" stroke-miterlimit="22.9256" d="M75,44.7
	c0.2-1.2,0.7-1.8,1.5-2c4.9-1.2,8.1-3.9,9.7-8.2c8.7,0.3,13.1-2.4,13.4-8.2c-13.9-2.7-23.3-1.3-28.1,3.9c-4,5.5-5.2,11.3-3.7,17.2
	c1.6,3.1,3.6,5.3,6,6.5C74.8,52.3,75.2,49.3,75,44.7z"/>
<path fill-rule="evenodd" fill="#EAC7A9" d="M86.2,34.5c2.4,0.3,5.6-0.2,9.6-1.7c1.5,11.1,2.8,17.1,2.8,17.1
	c0.7,7.8-3.4,12.5-7.6,12.6c-2.8,0-5.6-1.2-8.4-3.5c-0.2,4.6-0.3,6.9-0.3,6.9c-7.4,0-10.7-0.1-9.9-0.1c0.8-7.5,1.1-9,1.1-9
	c0.1-0.9,0.1-1.7,0.4-3c1.2-2.9,1.6-6,1.2-9.1c0.2-1.7,1.5-2.6,3.7-2.7C83.1,39.7,85.6,37.2,86.2,34.5z"/>
<path fill-rule="evenodd" fill="#F89A25" d="M35.8,178.7c3.2-10.1,5.8-14.9,7.7-14.6c29.1-0.4,43.7-0.6,43.7-0.6
	c5.4-19.6,3.1-46.8-6.9-81.7c-1.5-10.6-4.5-16.1-9.1-16.5c-17.7-4.5-27.7-3.7-30.2,2.4c-1.5,6.7,1.6,12.7,9.2,17.9
	c-11,13-18.4,32.5-22.1,58.7c-2.1,10.7-3.1,22.1-3.1,34C32.2,178.6,35.8,178.7,35.8,178.7z"/>
<path fill-rule="evenodd" fill="#F89A25" d="M32.7,302.3c3.5,1.2,7.6,1.3,12,0.1c15.9,3.8,25.2,7.2,28,10.2c1.6,1.6,0.8,2.9-2.4,3.7
	c-26.3,0.2-39.4,0.4-39.4,0.4c-1.6,0.1-2-2.9-1.5-8.9C29.5,304.3,30.5,302.5,32.7,302.3z"/>
<path fill-rule="evenodd" fill="#F89A25" d="M140.6,315.1c0.7-0.3,0.7-1,0.2-2.2c-4.8-4.7-14.2-8.8-28.2-12.4
	c-2.4,2.5-6.8,2.9-13.3,1.2c-1.8,4.3-1.8,8.7,0.1,13.2C126.8,315.1,140.6,315.1,140.6,315.1z"/>
<path fill-rule="evenodd" fill="#B3B4B4" stroke="#AFB9C5" stroke-width="0.2" stroke-miterlimit="22.9256" d="M80.2,81.8
	c-0.9-8.4-3.3-13.8-7.2-16c8.6,0,12.8,0.1,12.8,0.1c4.6,23.7,9.6,44.2,15,61.5c3.4,13.6,5.1,20.5,5.1,20.5c-10.8,0-16.2,0-16.2,0
	c0.6-10.4,0-21.2-1.8-32.2C86.1,104.5,83.6,93.3,80.2,81.8z"/>
<path fill-rule="evenodd" fill="#E77725" d="M102.6,134c4.6,15.8,14.4,24,35.5,24.1c0,0,2-2.9,6-8.6c-13.1-10.5-23.1-22.3-30-35.5
	C106.3,98.6,97.4,85,87.5,73.4C90.4,89,95.4,109.2,102.6,134z"/>
</svg>
