<?xml version="1.0" encoding="utf-8"?>
<!-- Generator: Adobe Illustrator 24.2.3, SVG Export Plug-In . SVG Version: 6.00 Build 0)  -->
<svg version="1.2" baseProfile="tiny" xmlns="http://www.w3.org/2000/svg" xmlns:xlink="http://www.w3.org/1999/xlink" x="0px"
	 y="0px" viewBox="0 0 226.8 182.3" overflow="visible" xml:space="preserve">
<g id="Layer_2">
</g>
<g id="Layer_1">
	<g>
		
			<ellipse transform="matrix(0.9993 -3.818839e-02 3.818839e-02 0.9993 -2.177 4.8929)" fill-rule="evenodd" fill="#E6E6E6" stroke="#E6E6E6" stroke-width="5.821822e-02" stroke-miterlimit="10" cx="127" cy="59.4" rx="29.6" ry="10.6"/>
		
			<ellipse transform="matrix(0.9846 -0.175 0.175 0.9846 -3.6154 13.0954)" fill-rule="evenodd" fill="#E6E6E6" stroke="#E6E6E6" stroke-width="20" stroke-miterlimit="22.9256" cx="72.5" cy="27.1" rx="19.1" ry="14.7"/>
		<ellipse fill-rule="evenodd" fill="#FF3185" cx="113.4" cy="158.3" rx="113.4" ry="23.4"/>
		<path fill-rule="evenodd" fill="#EAC7A8" stroke="#EAC7A8" stroke-width="0.5669" stroke-miterlimit="10" d="M17.2,149.9
			c-2.6,0.5-4.3,0.5-5.1-0.1c0,0,0.3-1.1,0.8-3.3c3.5,0.1,5.3,0.1,5.3,0.1C18,147.8,17.6,148.9,17.2,149.9z"/>
		<path fill-rule="evenodd" fill="#EAC7A8" stroke="#EAC7A8" stroke-width="0.5669" stroke-miterlimit="10" d="M45.3,149.2
			c-1.4,1.1-3.2,1.2-5.5,0.5c0,0,0-1.4,0-4.2c3.7,0,5.5,0,5.5,0C45.3,147.9,45.3,149.2,45.3,149.2L45.3,149.2z"/>
		<path fill-rule="evenodd" fill="#808080" stroke="#808080" stroke-width="0.5669" stroke-miterlimit="10" d="M62.9,113.8
			c-3.7,20.4-6.3,34.2-7.9,41.3c12.6,0.3,18.9,0.4,18.9,0.4c-2.8-27-4.2-40.5-4.2-40.5c-0.1-0.9-0.1-1.3-0.1-1.3
			C65.1,113.8,62.9,113.8,62.9,113.8L62.9,113.8z"/>
		<path fill-rule="evenodd" fill="#666666" stroke="#666666" stroke-width="0.5669" stroke-miterlimit="10" d="M69.5,113.7
			c2.9,27.6,4.3,41.5,4.4,41.8c9.7-0.1,14.7-0.2,14.8-0.1c-1.5-21.5-2.3-32.3-2.3-32.3c-0.8-6.2-1.1-9.4-1.1-9.4
			C74.8,113.7,69.5,113.7,69.5,113.7z"/>
		<path fill-rule="evenodd" fill="#89C5CC" d="M19.4,86.3c0.7,18.6-1.8,38.6-7.6,60.1c5.1,0.1,7.7,0.2,7.7,0.2
			c5-10.7,8.3-18.9,10-24.9c5.6-18.4,8.8-30.3,9.7-35.7C26,86.2,19.4,86.3,19.4,86.3z"/>
		<path fill-rule="evenodd" fill="#69A1AC" d="M39.2,86c-2.7,12-5.4,22.1-8,30.2c5.1,19.5,7.6,29.2,7.6,29.2c4.8,0,7.3,0,7.3,0
			c1-24.5-0.7-44.1-5-58.9C41,86.1,40.9,86,40.9,86C39.8,86,39.2,86,39.2,86z"/>
		<g id="_1824808986448">
			<path fill-rule="evenodd" fill="#F57189" d="M66.4,33.1c-1.5,2-2.3,3-2.3,3c-0.2-2.5-0.3-3.8-0.3-3.8c-2.4-1.4-3.3-3.3-2.7-5.8
				c-2.2-2.9-1.9-5.1,0.6-6.7c1-3.3,2.9-4.4,5.6-3.3c1.6-1.9,3.5-2.1,5.8-0.8c3-1.3,5.2-0.7,6.6,1.7c3.3,0.4,5,2,5.1,4.8
				c3.1,2.9,3.1,6.2,0.1,9.9c-1.2,0.5-2.6,0.4-4.3-0.3c-1.8,2.3-4.1,2.5-6.8,0.5C72.4,33.7,69.9,34,66.4,33.1L66.4,33.1z"/>
			<path fill-rule="evenodd" fill="#FF8D9E" d="M84.1,24.8c1.5,1.5,1.9,2.2,1.2,2.2c-0.9-1.1-1.9-1.8-3-2c-1.3-0.5-2.2,0-2.7,1.7
				c-1.5-0.3-2.6,0.1-3.1,1.3c-1-0.4-0.3-1.1,2-2.2C80.1,24,82,23.6,84.1,24.8z"/>
			<path fill-rule="evenodd" fill="#FF8D9E" d="M70,26.6c-0.3,1.5-0.7,2-1.2,1.6c0.8-2.9-0.5-4.4-3.7-4.5c-0.2-0.4,0-0.6,0.4-0.7
				C68.1,23.1,69.6,24.3,70,26.6z"/>
			<path fill-rule="evenodd" fill="#FF8D9E" d="M76.9,21c1-1.9,1.1-2.8,0.4-2.5c-0.5,1.4-1.2,2.3-2.1,2.9c-1.1,0.9-2.1,0.7-3.1-0.7
				c-1.3,0.8-2.5,0.8-3.4-0.2c-0.8,0.7,0.1,1.1,2.6,1.4C73.4,23,75.3,22.8,76.9,21z"/>
		</g>
		<path fill-rule="evenodd" fill="#2F3676" stroke="#2F3676" stroke-width="0.5669" stroke-miterlimit="10" d="M58.6,118.3
			c0-0.7,0-1.8,0.1-3.4c1.5-13.1,6.4-25.4,14.6-36.9c1.6-3,3.9-4.3,6.8-3.7c1.3,13.2,2.5,26.3,3.6,39.5c-4.5,0.6-9.4,0.7-14.5,0.2
			c-0.5,0-0.7,0.4-0.4,1.4c0.2,1.8,0.3,2.6,0.3,2.6C62.1,118.2,58.6,118.3,58.6,118.3z"/>
		<path fill-rule="evenodd" fill="#2A316A" d="M73.3,114.3c-1.3-0.1-2.7-0.2-4-0.3c0.3-8.8,0.4-13.2,0.4-13.2
			c0.3-1.1,0.6-0.6,0.7,1.7C70.7,108.8,71.7,112.7,73.3,114.3z"/>
		<path fill-rule="evenodd" fill="#595E91" d="M79.8,105.1c0.1-2.3,0.1-3.5,0.1-3.5c-4.7,2.2-7,3.3-7,3.3
			C77.5,105,79.8,105.1,79.8,105.1z"/>
		<path fill-rule="evenodd" fill="#191847" stroke="#2A316A" stroke-width="0.5669" stroke-miterlimit="10" d="M105.5,105.6
			c-9.1-7.8-15.9-16.5-21.4-27c1.1,14.6,5.6,26.9,13.4,37C102.9,108.9,105.1,106.3,105.5,105.6z"/>
		<path fill-rule="evenodd" fill="#4D4D4D" stroke="#4D4D4D" stroke-width="0.5669" stroke-miterlimit="10" d="M81.1,83.7
			c-0.3-3.6-0.6-6.6-0.9-9c1.8-0.2,2.9,0,3.3,0.6c0.5,1.3,0.9,4,1.2,8.2c1.5,10,4.1,18.1,7.8,24.4c-6.1,0.2-9.2,0.3-9.2,0.3
			C81.8,91.9,81.1,83.7,81.1,83.7z"/>
		<path fill-rule="evenodd" fill="#5C63AB" d="M83.8,113.8c-4.6,0.6-9.4,0.7-14.5,0.2c2.1,6.4,7.8,9.4,17.1,9.1
			c7.5,0.3,11.3,0.5,11.3,0.5c1.9,0.9,0.4,3.9-4.4,8.9c-4.2,5.4-6.3,8.1-6.3,8.1c8.7,5.6,13.1,8.4,13.1,8.4
			c8.3-13.5,12.4-20.3,12.4-20.3c3.7-5.9,3.6-9.9-0.3-11.8c-5-2-8.7-3.9-11.1-5.6c-2.3,2.8-3.5,4.3-3.5,4.3c-3.4-5.1-5-7.6-5-7.6
			c-6.1,0.2-9.2,0.3-9.2,0.3C83.6,111.9,83.8,113.8,83.8,113.8L83.8,113.8z"/>
		<path fill-rule="evenodd" fill="#2F3676" d="M111.3,130.6c2.3-3.4,3.5-6.1,3.8-8.2c7.9,15.8,11.9,23.7,11.9,23.7
			c-9.4,4.2-14.2,6.3-14.2,6.3c-3.6-10.3-5.5-15.4-5.5-15.4C110,132.8,111.3,130.6,111.3,130.6L111.3,130.6z"/>
		<path fill-rule="evenodd" fill="#EAC7A8" d="M89,146.3c-2.3,0.8-3.8,0.3-4.5-1.6c0,0,0.9-1.3,2.8-3.9c2.9,1.9,4.4,2.8,4.4,2.8
			C89.9,145.4,89,146.3,89,146.3L89,146.3z"/>
		<path fill-rule="evenodd" fill="#EAC7A8" d="M123.7,152.3c1.9,1.5,3.3,1.2,4.1-0.9c0,0-0.8-1.5-2.3-4.6c-3.1,1.4-4.6,2-4.6,2
			C122.7,151.2,123.7,152.3,123.7,152.3L123.7,152.3z"/>
		<path fill-rule="evenodd" fill="#2F3676" d="M96.8,156.3c0.2,2.8-4.9,0.2-15.2-7.7c0.4-1.1,1.4-2.4,2.9-3.9
			c0.6,1.8,2.1,2.4,4.4,1.7C92.8,150,95.4,153.3,96.8,156.3L96.8,156.3z"/>
		<path fill-rule="evenodd" fill="#2F3676" d="M125.9,153.2c-0.7,0-1.4-0.3-2.2-0.9c-1.5,1-2,2.5-1.5,4.8c9.8,0.1,14.7,0.2,14.7,0.2
			c2,0.1,2.8-0.3,2.4-1.3c-0.2-1.1-4.1-2.6-11.6-4.5C127.5,152.5,126.8,153,125.9,153.2L125.9,153.2z"/>
		<path fill-rule="evenodd" fill="#EAC7A8" stroke="#EAC7A8" stroke-width="0.5669" stroke-miterlimit="10" d="M82,73.4
			c0,0.8,0,1.2,0,1.2s-1.5-0.1-4.5-0.3c0.3-2.3,0.4-3.4,0.4-3.4c0.5-0.2,0.7-0.9,0.7-1.9c-0.3-3,0.1-4.7,1.1-5.1
			c0.6-0.3,1.5,0.3,2.5,1.7c0.7,0.4,1.2-0.2,1.6-1.9c1-1,2.5-1.2,4.4-0.6c0.7,4.1,0.4,7.3-1,9.4c-1.1,1.2-2.7,1.1-5-0.5
			C81.9,72.1,81.8,72.5,82,73.4L82,73.4z"/>
		<path fill="none" d="M81.9,74.6c-1.3-0.1-2.8-0.2-4.5-0.3"/>
		<path fill-rule="evenodd" fill="#191847" d="M84.2,63.4c1.1-0.7,2.4-0.8,4-0.2c1.1-1.5,0.6-3.2-1.5-5.2c-3-2-5.9-2.1-8.6-0.3
			c-2.5,1.7-3.4,3.9-2.8,6.4c1,1.3,1.6,2.6,1.9,4.1c0.2,0.9,0.4,1.7,0.6,2.7c0.6-0.6,0.9-1.4,0.7-2.4c-0.3-2.3,0.1-3.9,1.2-4.6
			c0.7-0.3,1.5,0.3,2.5,1.7c0.3,0.2,0.7,0.1,1.1-0.4C83.5,64.2,83.8,63.6,84.2,63.4L84.2,63.4z"/>
		<path fill-rule="evenodd" fill="#EAC7A8" d="M62.8,118.2c-1.4,0-2.6,0.1-3.6,0.1c-0.8,2.6-2.2,4.6-4.2,5.9c-1.9,1-2.9,2.2-2.9,3.5
			c0.2,0.9,1.7,0.8,4.5-0.2c2.3-1.4,3.7-1.8,4.2-1.3c1.1,1.3,1.8,1.8,2.2,1.5c0.5-0.3,0.2-1.2-0.9-2.7
			C61.5,122.7,61.8,120.4,62.8,118.2L62.8,118.2z"/>
		<path fill-rule="evenodd" fill="#EAC7A8" d="M105,106.2c-0.6,0.8-1.3,1.6-2,2.5c2.9,1.8,4.7,3.8,5.5,5.9c0.6,0.7,0.9,0.5,1.1-0.6
			c0-1.1,0.5-1.5,1.4-1.3c1.3,0.1,2.4,0.3,3.5,0.6c0.8-1.4-0.7-2.5-4.3-3.3C108.7,109.7,107,108.4,105,106.2L105,106.2z"/>
		<path fill-rule="evenodd" fill="#191847" d="M29.6,43.9c0.1-0.5,0.3-0.8,0.6-0.8c2-0.5,3.3-1.6,4-3.4c3.6,0.1,5.4-1,5.5-3.4
			c-5.7-1.1-9.6-0.6-11.6,1.6c-1.7,2.3-2.2,4.6-1.5,7.1c0.7,1.3,1.5,2.2,2.5,2.7C29.6,47,29.7,45.7,29.6,43.9z"/>
		<path fill-rule="evenodd" fill="#EAC7A8" stroke="#EAC7A8" stroke-width="0.5669" stroke-miterlimit="10" d="M34.2,39.6
			c1,0.1,2.3-0.1,4-0.7c0.6,4.6,1.1,7,1.1,7c0.3,3.2-1.4,5.1-3.1,5.2c-1.2,0-2.3-0.5-3.5-1.4c-0.1,1.9-0.1,2.8-0.1,2.8
			c-3,0-4.4,0-4.1,0c0-3.3,0.5-3.4,0.5-4.2c0-0.2,0-0.5,0.1-0.8c0.5-1.2,0.6-2.5,0.5-3.8c0.1-0.7,0.6-1.1,1.5-1.1
			C32.9,41.8,34,40.8,34.2,39.6z"/>
		<path fill-rule="evenodd" fill="#FF9B21" d="M13.5,99c1.3-4.1,2.4-6.1,3.1-6c12-0.2,18-0.3,18-0.3c2.2-8.1,1.3-19.3-2.8-33.6
			c-0.6-4.4-1.9-6.6-3.8-6.8c-7.3-1.8-11.4-1.5-12.4,1c-0.6,2.8,0.7,5.2,3.8,7.4c-4.5,5.3-7.6,13.4-9.1,24.1C9.4,89.3,9,94,9,98.9
			C12,99,13.5,99,13.5,99L13.5,99z"/>
		<path fill-rule="evenodd" fill="#E68C1E" d="M16.7,93c2.6,0,4.8-0.1,6.7-0.1c-1.7-6.8-2.5-10.1-2.5-10.1
			C18.1,89.6,16.7,93,16.7,93z"/>
		<path fill-rule="evenodd" fill="#FF9B21" stroke="#FF9B21" stroke-width="0.5669" stroke-miterlimit="10" d="M12.2,149.9
			c1.5,0.5,3.1,0.5,5,0c6.5,1.6,10.4,3,11.5,4.2c0.7,0.7,0.3,1.2-1,1.5c-10.8,0.1-16.2,0.2-16.2,0.2c-0.6,0-0.8-1.2-0.6-3.7
			C10.9,150.7,11.3,149.9,12.2,149.9L12.2,149.9z"/>
		<path fill-rule="evenodd" fill="#FF9B21" stroke="#FF9B21" stroke-width="0.5669" stroke-miterlimit="10" d="M56.6,155.1
			c0.3-0.1,0.3-0.4,0.1-0.9c-2-1.9-5.9-3.6-11.6-5.1c-1,1-2.8,1.2-5.5,0.5c-0.8,1.8-0.7,3.6,0,5.4C50.9,155.1,56.6,155.1,56.6,155.1
			L56.6,155.1z"/>
		<path fill-rule="evenodd" fill="#EAC7A8" d="M13.4,99c-1.6,0-3-0.1-4.4-0.1c-4,2.9-6,5.1-6,6.5c0.1,0.8,1.5,0.9,4.1,0.2
			c2.4-1.4,4-1.7,4.7-1.1c0.8,1.2,1.5,1.6,2.1,1.1c0.2-0.4-0.2-1.3-1.1-2.9C12.3,100.6,12.9,99.8,13.4,99L13.4,99z"/>
		<path fill-rule="evenodd" fill="#B3B3B3" stroke="#B3B3B3" stroke-width="0.5669" stroke-miterlimit="10" d="M31.8,59.1
			c-0.4-3.5-1.4-5.7-3-6.6c3.5,0,5.3,0,5.3,0c1.9,9.7,3.9,18.2,6.2,25.3c1.4,5.6,2.1,8.4,2.1,8.4c-4.4,0-6.7,0-6.7,0
			c0.3-4.3,0-8.7-0.7-13.3C34.2,68.5,33.2,63.9,31.8,59.1z"/>
		<path fill-rule="evenodd" fill="#E87613" stroke="#E87613" stroke-width="0.5669" stroke-miterlimit="10" d="M41,80.6
			c1.9,6.5,5.9,9.9,14.6,9.9c0,0,0.8-1.2,2.5-3.5c-5.4-4.3-9.5-9.2-12.4-14.6c-3.2-6.4-6.9-12-10.9-16.8C36,62.1,38,70.4,41,80.6z"
			/>
		<path fill-rule="evenodd" fill="#EAC7A8" d="M57.6,87.6c-0.6,0.7-1,1.3-1,1.8c1.3,1.8,2.5,3,3.7,3.7c0.4,0.3,0.6,0,0.5-0.7
			c-0.3-1.5,0.2-2.1,1.6-1.8c3.2,0.6,4,0.4,2.5-0.7C61.8,88.1,59.4,87.3,57.6,87.6z"/>
		<g id="_1824805129712">
			<path fill-rule="evenodd" fill="#98D6D5" d="M141.5,56.1c0.1,0,0.2,0,0.2,0c5.2-0.6,8.3-0.2,9.1,1c3.3,3.1,0.2,5.5-9.1,7.3
				c-10.2,0.6-19.8,0.5-28.9-0.2c-7.2-1.4-10.7-3.3-10.5-5.5c0.9-4.2,8.8-6.3,23.8-6.4c9.6-0.1,14.2,0.9,13.9,3
				C139.7,55.9,140.2,56.2,141.5,56.1L141.5,56.1z"/>
			<path fill-rule="evenodd" fill="#1081A1" d="M141.6,61.8c-4.1,0.6-6.1,0.3-5.9-0.9c2-2.2,4.3-2.4,7-0.6
				C143.6,61,143.3,61.5,141.6,61.8z"/>
			<path fill-rule="evenodd" fill="#CCF8F9" d="M137.1,58.2c-4.1,0.6-6.1,0.3-5.9-0.8c2-2.2,4.3-2.4,7-0.6
				C139.2,57.3,138.8,57.8,137.1,58.2z"/>
			<path fill-rule="evenodd" fill="#E36C44" d="M123.4,56.3c-4.1,0.6-6.1,0.3-5.9-0.8c2-2.2,4.3-2.4,7-0.6
				C125.4,55.5,125,56,123.4,56.3z"/>
			<path fill-rule="evenodd" fill="#F6D44E" d="M126.5,61.5c-4.1,0.6-6.1,0.3-5.9-0.9c2-2.2,4.3-2.4,7-0.6
				C128.5,60.7,128.2,61.1,126.5,61.5z"/>
			<path fill-rule="evenodd" fill="#FF8A42" d="M114.4,60c-4.1,0.6-6.1,0.3-5.9-0.8c2-2.2,4.3-2.4,7-0.6
				C116.5,59.2,116.1,59.7,114.4,60z"/>
		</g>
		<path fill-rule="evenodd" fill="#191847" d="M174.1,64.5c3.4-0.4,6.9-0.5,10.6-0.1c2.7,0.2,4.8-2.3,2.1-4.2
			c-2.8-2.4-4.1-5.2-3.7-8.3c0.4-3.5-1.3-5.6-5.1-6.3c-3.7-0.5-6.3,0.3-7.8,2.4c-3,6.8-3.8,12.2-2.2,16.2
			C168.5,64.7,170.5,64.8,174.1,64.5L174.1,64.5z"/>
		<path fill-rule="evenodd" fill="#DB2721" d="M173.1,71.8c1.2-3.4,1.5-6.2,1-8.5c-5.2,11.5-7.8,17.2-7.8,17.2
			c-1.1,2.9-2.9,3.1-7.2,3.5c-3.5-0.2-6.7-1.1-9.6-2.8c-1.6,2.7-2.4,4.1-2.4,4.1c4.1,4.6,9,7.4,14.6,8.4c2.5,0.3,4-0.3,4.3-1.8
			C170.7,78.5,173.1,71.8,173.1,71.8z"/>
		<path fill-rule="evenodd" fill="#69A1AC" stroke="#69A1AC" stroke-width="0.5669" stroke-miterlimit="10" d="M174.3,67.2
			c0.1-1.5,0.1-3-0.1-4.6c3.2-0.2,4.8-0.3,4.8-0.3c-1.8,4.7-3.4,10.8-4.9,18.4c-0.9,5.7-1.3,10.9-1.4,15.5c-4.7-0.1-7.1-0.2-7.1-0.2
			c0.3-2.7,0.4-4.1,0.4-4.1c2.4-6.9,4.1-11.6,4.9-14.1C173,72.6,174.1,69.1,174.3,67.2z"/>
		<path fill-rule="evenodd" fill="#1F28CF" d="M169.2,96c-0.6,0-1.2,0-1.8-0.1c-5.5,27.1-9.6,48-12.3,62.7c3.3,0.1,5,0.1,5,0.1
			c10-27.1,15-40.7,15-40.7c0.5-1,0.7-1.5,0.7-1.5C171.4,102.9,169.2,96,169.2,96L169.2,96z"/>
		<path fill-rule="evenodd" fill="#2B44FF" d="M180.6,129.8c-4.2-11.6-8-22.8-11.4-33.8c13.2,0,19.5,0,18.8,0
			c-0.1,15.1-0.1,22.6-0.1,22.6c0.1,3.8,0.1,5.7,0.1,5.7c1.3,3.1,6.9,7.8,16.9,14.2c4,3.1,6,4.6,6,4.6c-2.3,3.2-3.4,4.8-3.4,4.8
			C189.6,135.9,180.6,129.8,180.6,129.8L180.6,129.8z"/>
		<path fill-rule="evenodd" fill="#69A1AC" d="M216.5,148c-2-2.3-3.8-3.9-5.5-4.7c-2.3,3.2-3.4,4.8-3.4,4.8
			c-2.1,7.8-3.2,11.7-3.2,11.7c-0.2,0.8,0,1.1,0.8,1C212.7,152.2,216.5,148,216.5,148L216.5,148z"/>
		<path fill-rule="evenodd" fill="#69A1AC" d="M160.1,158.8c-1.8,0-3.4-0.1-5-0.1c-8.5,3.8-12.7,5.7-12.7,5.7
			c-0.6,0.5-0.5,0.9,0.3,1.2c11.7,0.1,17.5,0.1,17.5,0.1C160.7,164.6,160.7,162.3,160.1,158.8z"/>
		<path fill-rule="evenodd" fill="#FF4133" d="M183.7,63.5c-1.7-1.4-3.3-1.8-4.7-1.3c-3.6,10-5.6,19.6-6,28.7
			c-0.6,6.2-0.2,10.1,1.2,11.7c10.5,0.6,17.1,0.4,20-0.8c-1.6-9.2-2.4-13.7-2.4-13.7c1.5,0.2,5.3,5.8,11.3,16.9
			c3.6-0.4,5.4-0.6,5.4-0.6c-3-14-7.5-24.4-13.6-31.3C191.6,69.3,187.9,66,183.7,63.5L183.7,63.5z"/>
		<path fill-rule="evenodd" fill="#EAC7A8" d="M169.5,56.9c-0.1-4.3,0.4-7,1.4-8.1c1.6,2.2,3.5,3.5,5.6,3.8c1.8-0.4,2.7,0.3,2.7,2.1
			c-0.1,0.9-0.8,1.2-1.6,1.2c0,4.3,0,6.4,0,6.4c-1.4,0.1-2.1,0.1-2.1,0.1c0-1.3-0.1-2.1-0.1-2.1c-1.4,1-3,1.2-4.6,0.5
			C169.8,59.9,169.4,58.6,169.5,56.9L169.5,56.9z"/>
		<path fill-rule="evenodd" fill="#EAC7A8" d="M208.4,104.5c-1.4,0.2-2.6,0.3-3.7,0.4c0.7,2.1,0.8,3.7,0.2,4.8
			c-0.4,1.6-0.2,2.2,0.5,2c0.5-1,1.1-1.7,1.8-2.2c4.7,1.3,7.5,1.4,8.3,0.4c0.8-1-0.9-2.2-5.1-3.5C209.4,106,208.7,105.3,208.4,104.5
			L208.4,104.5z"/>
		<path fill-rule="evenodd" fill="#EAC7A8" d="M147.4,84.7c1-1.7,1.5-2.5,1.5-2.5c-6.7-5.3-9.8-7.2-9.3-5.8c0.7,1.1,1.2,2,1.6,2.7
			c1.2,1.4,0.8,2.1-1.1,2.1c-1,0.3-0.8,0.6,0.6,1C143.3,82.6,145.5,83.5,147.4,84.7L147.4,84.7z"/>
		<path fill-rule="evenodd" fill="#4D4D4D" d="M146.6,92.2l5.1-11.2c0.2-0.5,0.8-0.8,1.2-0.6l57.6,26.1c0.4,0.2,0.6,0.8,0.3,1.3
			l-5.1,11.2c-0.2,0.5-0.8,0.8-1.2,0.6l-57.6-26.1C146.5,93.4,146.4,92.8,146.6,92.2z"/>
		<path fill-rule="evenodd" fill="#808080" stroke="#808080" stroke-width="0.5669" stroke-miterlimit="10" d="M211.3,106.9
			c-5.2-2.4-7.8-3.5-7.8-3.5c-3.7,8.9-5.5,13.4-5.5,13.4c4.9,2.3,7.4,3.4,7.3,3.3C210.1,115.5,212.1,111.2,211.3,106.9z"/>
		<path fill-rule="evenodd" fill="#808080" d="M143.2,79.8c-3.8,0.2-5.6,0.2-5.6,0.2c2,2.8,2.9,4.3,2.9,4.3
			C142.8,82.4,143.8,80.9,143.2,79.8z"/>
		<path fill-rule="evenodd" fill="#CCCCCC" d="M142.9,79.8c0.2,1.7-0.6,3.2-2.6,4.4c4.2,6.7,6.7,9.5,6.7,9.5
			c4.4-4.8,6.2-8.9,5.8-13.4C146.2,79.9,142.9,79.8,142.9,79.8z"/>
		<path fill-rule="evenodd" fill="#CCCCCC" stroke="#CCCCCC" stroke-width="0.5669" stroke-miterlimit="10" d="M92.6,114.7
			c3.9-13.1,5.9-19.7,5.9-19.7c15.8,0.1,23.2,0.1,22.2,0.1c-3.1,13.1-4.6,19.7-4.6,19.7C100.4,114.7,92.6,114.7,92.6,114.7
			L92.6,114.7z"/>
		
			<rect x="77.6" y="114.1" fill-rule="evenodd" fill="#CCCCCC" stroke="#CCCCCC" stroke-width="0.5669" stroke-miterlimit="10" width="15.2" height="0.7"/>
	</g>
</g>
</svg>
