<?xml version="1.0" encoding="utf-8"?>
<!-- Generator: Adobe Illustrator 24.2.3, SVG Export Plug-In . SVG Version: 6.00 Build 0)  -->
<svg version="1.2" baseProfile="tiny" xmlns="http://www.w3.org/2000/svg" xmlns:xlink="http://www.w3.org/1999/xlink" x="0px"
	 y="0px" viewBox="0 0 172.5 227.2" overflow="visible" xml:space="preserve">
<g id="Layer_2">
</g>
<g id="Layer_1">
	<g>
		<g id="_1824804972016">
			<path fill-rule="evenodd" fill="#698262" d="M36.4,69.8c1.5,1.5,1.2,1.6,3.4,1c0.8-10.6,4.1-18,7.1-22.5
				c6-10.8,10.7-16.4,14.2-16.7c-2-3.2-4.5-2.7-7.3,1.4c-6.2,7.6-9.3,11.4-9.3,11.4c-1,1.5-1.1,0.3-0.2-3.7
				c1.7-11.6,2.5-17.4,2.5-17.6c-1-2.1-1.9-1.2-2.7,2.6c-1.8,12.5-2.7,18.8-2.7,18.8c-0.8,1.8-1.6,1.1-2.2-2.3
				c-3.7-11.1-5.7-16.5-5.8-16.1c-1.3-0.9-1.9,0.8-1.7,4.8c4.6,12.7,6.9,19,6.9,19C38.7,56,38.5,62.7,36.4,69.8L36.4,69.8z"/>
			<path fill-rule="evenodd" fill="#F65A03" d="M57.2,32.9c13.9,3,21.8-3.2,23.6-18.6C68.6,15,60.8,21.2,57.2,32.9z"/>
			<path fill-rule="evenodd" fill="#FFF7E8" d="M62.7,29.3c6.8-2.4,11.5-5.8,13.9-10.1C71.2,21.2,66.6,24.6,62.7,29.3z"/>
			<path fill-rule="evenodd" fill="#FFF7E8" d="M61.7,30.1c3.1-3,4.8-5.9,5-8.9C64.3,23.7,61.4,26.6,61.7,30.1z"/>
			<path fill-rule="evenodd" fill="#FFF7E8" d="M70.9,27.6c-3.5,2.5-6.7,3.5-9.7,3.2C64.1,28.9,67.3,27.8,70.9,27.6z"/>
			<path fill-rule="evenodd" fill="#F65A03" d="M45.7,30C35,20.6,35.4,10.6,46.8,0C53.4,10.2,53.1,20.2,45.7,30z"/>
			<path fill-rule="evenodd" fill="#FFF7E8" d="M45.5,23.5c-2.1-7-2.1-12.7,0-17.2C46.9,11.8,46.9,17.5,45.5,23.5z"/>
			<path fill-rule="evenodd" fill="#FFF7E8" d="M45.4,24.7c0.6-4.2,2-7.3,4.2-9.3C49,18.9,48.4,22.9,45.4,24.7z"/>
			<path fill-rule="evenodd" fill="#FFF7E8" d="M42,15.8c0.1,4.3,1.1,7.5,3.1,9.7C44.9,22.1,43.9,18.9,42,15.8z"/>
			<path fill-rule="evenodd" fill="#F65A03" d="M33.1,30.5c-13.7-4-17.6-13.2-11.8-27.6C31.7,9.3,35.6,18.6,33.1,30.5z"/>
			<path fill-rule="evenodd" fill="#FFF7E8" d="M30.1,24.7c-4.8-5.4-7.3-10.6-7.4-15.6C26.4,13.5,28.9,18.7,30.1,24.7z"/>
			<path fill-rule="evenodd" fill="#FFF7E8" d="M30.5,25.9c-1.3-4.1-1.3-7.5-0.2-10.2C31.4,19,32.5,23,30.5,25.9z"/>
			<path fill-rule="evenodd" fill="#FFF7E8" d="M23.7,19.3c1.9,3.8,4.2,6.3,6.9,7.4C29,23.7,26.7,21.2,23.7,19.3z"/>
			<path fill-rule="evenodd" fill="#698262" d="M40.4,55c1.5,0.1,1.3,0.3,2.2-1c-4.3-5.9-5.8-11.2-6.3-14.8
				c-1.7-8.3-1.7-13.3-0.1-15c-2.5-0.8-3.5,0.6-3.1,4c0.1,6.7,0.2,10.1,0.2,10.1c0.1,1.3-0.4,0.7-1.8-1.8C27.2,29.6,25,26.2,25,26.1
				c-1.4-0.6-1.5,0.2-0.2,2.5c4.6,7.3,7,11,7,11c0.4,1.3-0.4,1.2-2.2-0.2c-6.9-4.1-10.3-6-10.2-5.8c-1.1,0.1-0.6,1.2,1.3,3.3
				c8,4.5,12.1,6.8,12.1,6.8C35.4,46.8,38.3,50.4,40.4,55L40.4,55z"/>
			<path fill-rule="evenodd" fill="#F65A03" d="M34.8,26.5c8.6-4.6,9.9-11.3,3.9-20.2C32.7,12.2,31.4,18.9,34.8,26.5z"/>
			<path fill-rule="evenodd" fill="#FFF7E8" d="M36,22.2c2.5-4.3,3.4-8.1,2.7-11.5C36.8,14.2,35.9,18,36,22.2z"/>
			<path fill-rule="evenodd" fill="#FFF7E8" d="M35.9,23.1c0.3-2.9-0.2-5.2-1.3-6.8C34.3,18.6,34.1,21.4,35.9,23.1z"/>
			<path fill-rule="evenodd" fill="#FFF7E8" d="M39.5,17.7c-0.7,2.8-1.9,4.8-3.6,6C36.5,21.4,37.7,19.4,39.5,17.7z"/>
			<path fill-rule="evenodd" fill="#F65A03" d="M27.5,30.2c-9.7-0.1-14-5.5-12.8-16.1C22.7,16.4,27,21.8,27.5,30.2z"/>
			<path fill-rule="evenodd" fill="#FFF7E8" d="M24.5,26.9c-4.2-2.7-6.7-5.7-7.7-8.9C20,20.1,22.6,23.1,24.5,26.9z"/>
			<path fill-rule="evenodd" fill="#FFF7E8" d="M24.9,27.5c-1.6-2.5-2.2-4.7-2-6.7C24.3,22.9,25.7,25.3,24.9,27.5z"/>
			<path fill-rule="evenodd" fill="#FFF7E8" d="M19.2,24.4c2,2.2,3.9,3.4,5.9,3.7C23.6,26.4,21.6,25.2,19.2,24.4z"/>
			<path fill-rule="evenodd" fill="#F65A03" d="M21.2,36c-8.9,4-15,1-18.4-9.1C11,25.7,17.1,28.7,21.2,36z"/>
			<path fill-rule="evenodd" fill="#FFF7E8" d="M17,34.4c-4.9-0.7-8.5-2.3-10.8-4.8C10.2,30.2,13.7,31.8,17,34.4z"/>
			<path fill-rule="evenodd" fill="#FFF7E8" d="M17.8,34.8c-2.5-1.6-4-3.3-4.6-5.2C15.2,30.8,17.5,32.4,17.8,34.8z"/>
			<path fill-rule="evenodd" fill="#FFF7E8" d="M11.3,34.4c2.7,1.1,5,1.4,6.9,0.8C16,34.3,13.7,34.1,11.3,34.4z"/>
			<path fill-rule="evenodd" fill="#CCCCCC" d="M32.2,69.2h15.1c2.4,0,4.4,2,4.4,4.4v17.7c0,2.4-2,4.4-4.4,4.4H32.2
				c-2.4,0-4.4-2-4.4-4.4V73.6C27.9,71.2,29.8,69.2,32.2,69.2z"/>
			<path fill-rule="evenodd" fill="#698262" d="M36.4,69.8c1.5,1.5,1.2,1.6,3.4,1c0.8-10.6,4.1-18,7.1-22.5
				c6-10.8,10.7-16.4,14.2-16.7c-2-3.2-4.5-2.7-7.3,1.4c-6.2,7.6-9.3,11.4-9.3,11.4c-1,1.5-1.1,0.3-0.2-3.7
				c1.7-11.6,2.5-17.4,2.5-17.6c-1-2.1-1.9-1.2-2.7,2.6c-1.8,12.5-2.7,18.8-2.7,18.8c-0.8,1.8-1.6,1.1-2.2-2.3
				c-3.7-11.1-5.7-16.5-5.8-16.1c-1.3-0.9-1.9,0.8-1.7,4.8c4.6,12.7,6.9,19,6.9,19C38.7,56,38.5,62.7,36.4,69.8L36.4,69.8z"/>
			<path fill-rule="evenodd" fill="#F65A03" d="M57.2,32.9c13.9,3,21.8-3.2,23.6-18.6C68.6,15,60.8,21.2,57.2,32.9z"/>
			<path fill-rule="evenodd" fill="#FFF7E8" d="M62.7,29.3c6.8-2.4,11.5-5.8,13.9-10.1C71.2,21.2,66.6,24.6,62.7,29.3z"/>
			<path fill-rule="evenodd" fill="#FFF7E8" d="M61.7,30.1c3.1-3,4.8-5.9,5-8.9C64.3,23.7,61.4,26.6,61.7,30.1z"/>
			<path fill-rule="evenodd" fill="#FFF7E8" d="M70.9,27.6c-3.5,2.5-6.7,3.5-9.7,3.2C64.1,28.9,67.3,27.8,70.9,27.6z"/>
			<path fill-rule="evenodd" fill="#F65A03" d="M45.7,30C35,20.6,35.4,10.6,46.8,0C53.4,10.2,53.1,20.2,45.7,30z"/>
			<path fill-rule="evenodd" fill="#FFF7E8" d="M45.5,23.5c-2.1-7-2.1-12.7,0-17.2C46.9,11.8,46.9,17.5,45.5,23.5z"/>
			<path fill-rule="evenodd" fill="#FFF7E8" d="M45.4,24.7c0.6-4.2,2-7.3,4.2-9.3C49,18.9,48.4,22.9,45.4,24.7z"/>
			<path fill-rule="evenodd" fill="#FFF7E8" d="M42,15.8c0.1,4.3,1.1,7.5,3.1,9.7C44.9,22.1,43.9,18.9,42,15.8z"/>
			<path fill-rule="evenodd" fill="#F65A03" d="M33.1,30.5c-13.7-4-17.6-13.2-11.8-27.6C31.7,9.3,35.6,18.6,33.1,30.5z"/>
			<path fill-rule="evenodd" fill="#FFF7E8" d="M30.1,24.7c-4.8-5.4-7.3-10.6-7.4-15.6C26.4,13.5,28.9,18.7,30.1,24.7z"/>
			<path fill-rule="evenodd" fill="#FFF7E8" d="M30.5,25.9c-1.3-4.1-1.3-7.5-0.2-10.2C31.4,19,32.5,23,30.5,25.9z"/>
			<path fill-rule="evenodd" fill="#FFF7E8" d="M23.7,19.3c1.9,3.8,4.2,6.3,6.9,7.4C29,23.7,26.7,21.2,23.7,19.3z"/>
			<path fill-rule="evenodd" fill="#698262" d="M40.4,55c1.5,0.1,1.3,0.3,2.2-1c-4.3-5.9-5.8-11.2-6.3-14.8
				c-1.7-8.3-1.7-13.3-0.1-15c-2.5-0.8-3.5,0.6-3.1,4c0.1,6.7,0.2,10.1,0.2,10.1c0.1,1.3-0.4,0.7-1.8-1.8C27.2,29.6,25,26.2,25,26.1
				c-1.4-0.6-1.5,0.2-0.2,2.5c4.6,7.3,7,11,7,11c0.4,1.3-0.4,1.2-2.2-0.2c-6.9-4.1-10.3-6-10.2-5.8c-1.1,0.1-0.6,1.2,1.3,3.3
				c8,4.5,12.1,6.8,12.1,6.8C35.4,46.8,38.3,50.4,40.4,55L40.4,55z"/>
			<path fill-rule="evenodd" fill="#F65A03" d="M34.8,26.5c8.6-4.6,9.9-11.3,3.9-20.2C32.7,12.2,31.4,18.9,34.8,26.5z"/>
			<path fill-rule="evenodd" fill="#FFF7E8" d="M36,22.2c2.5-4.3,3.4-8.1,2.7-11.5C36.8,14.2,35.9,18,36,22.2z"/>
			<path fill-rule="evenodd" fill="#FFF7E8" d="M35.9,23.1c0.3-2.9-0.2-5.2-1.3-6.8C34.3,18.6,34.1,21.4,35.9,23.1z"/>
			<path fill-rule="evenodd" fill="#FFF7E8" d="M39.5,17.7c-0.7,2.8-1.9,4.8-3.6,6C36.5,21.4,37.7,19.4,39.5,17.7z"/>
			<path fill-rule="evenodd" fill="#F65A03" d="M27.5,30.2c-9.7-0.1-14-5.5-12.8-16.1C22.7,16.4,27,21.8,27.5,30.2z"/>
			<path fill-rule="evenodd" fill="#FFF7E8" d="M24.5,26.9c-4.2-2.7-6.7-5.7-7.7-8.9C20,20.1,22.6,23.1,24.5,26.9z"/>
			<path fill-rule="evenodd" fill="#FFF7E8" d="M24.9,27.5c-1.6-2.5-2.2-4.7-2-6.7C24.3,22.9,25.7,25.3,24.9,27.5z"/>
			<path fill-rule="evenodd" fill="#FFF7E8" d="M19.2,24.4c2,2.2,3.9,3.4,5.9,3.7C23.6,26.4,21.6,25.2,19.2,24.4z"/>
			<path fill-rule="evenodd" fill="#F65A03" d="M21.2,36c-8.9,4-15,1-18.4-9.1C11,25.7,17.1,28.7,21.2,36z"/>
			<path fill-rule="evenodd" fill="#FFF7E8" d="M17,34.4c-4.9-0.7-8.5-2.3-10.8-4.8C10.2,30.2,13.7,31.8,17,34.4z"/>
			<path fill-rule="evenodd" fill="#FFF7E8" d="M17.8,34.8c-2.5-1.6-4-3.3-4.6-5.2C15.2,30.8,17.5,32.4,17.8,34.8z"/>
			<path fill-rule="evenodd" fill="#FFF7E8" d="M11.3,34.4c2.7,1.1,5,1.4,6.9,0.8C16,34.3,13.7,34.1,11.3,34.4z"/>
			<path fill-rule="evenodd" fill="#CCCCCC" d="M32.2,69.2h15.1c2.4,0,4.4,2,4.4,4.4v17.7c0,2.4-2,4.4-4.4,4.4H32.2
				c-2.4,0-4.4-2-4.4-4.4V73.6C27.9,71.2,29.8,69.2,32.2,69.2z"/>
		</g>
		<g id="_1824804969008">
			<ellipse fill-rule="evenodd" fill="#FF3185" cx="108.3" cy="210.7" rx="64.1" ry="16.4"/>
			<path fill-rule="evenodd" fill="#191847" d="M101.9,81c4.5-0.6,9.3-0.6,14.2-0.2c3.7,0.2,6.4-3,2.8-5.6c-3.8-3.2-5.4-6.9-5-11.1
				c0.5-4.7-1.7-7.5-6.7-8.4c-4.9-0.7-8.4,0.4-10.4,3.2c-4,9.1-5,16.3-2.9,21.5C94.4,81.2,97.1,81.4,101.9,81z"/>
			<path fill-rule="evenodd" fill="#DB2721" d="M100.6,90.6c1.6-4.5,2.1-8.3,1.3-11.3c-6.9,15.3-10.4,23-10.4,23
				c-1.5,3.8-3.9,4.2-9.6,4.7c-4.6-0.2-8.9-1.4-12.8-3.7c-2.1,3.6-3.2,5.4-3.2,5.4c5.5,6.2,12,9.9,19.5,11.2
				c3.4,0.5,5.3-0.3,5.8-2.4C97.5,99.6,100.6,90.6,100.6,90.6L100.6,90.6z"/>
			<path fill-rule="evenodd" fill="#69A1AC" stroke="#69A1AC" stroke-width="0.5669" stroke-miterlimit="10" d="M102.1,84.5
				c0.2-1.9,0.2-4-0.1-6.1c4.3-0.3,6.5-0.5,6.5-0.5c-2.4,6.2-4.6,14.4-6.5,24.5c-1.2,7.6-1.8,14.5-1.9,20.7
				c-6.3-0.2-9.4-0.3-9.4-0.3c0.3-3.6,0.5-5.4,0.5-5.4c3.3-9.3,5.5-15.5,6.6-18.7C100.4,91.8,101.9,87.1,102.1,84.5L102.1,84.5z"/>
			<path fill-rule="evenodd" fill="#1F28CF" d="M95.4,123c-0.8,0-1.6,0-2.4-0.1c-7.4,36.1-12.8,64-16.4,83.6
				c4.5,0.1,6.7,0.1,6.7,0.1c13.4-36.2,20-54.2,20-54.2c0.6-1.3,0.9-2,0.9-2C98.3,132.2,95.4,123,95.4,123z"/>
			<path fill-rule="evenodd" fill="#2B44FF" d="M110.6,168.1c-5.6-15.4-10.7-30.5-15.2-45c17.6,0,25.9,0,25.1,0
				c-0.1,20.1-0.1,30.2-0.1,30.2c0.1,5.1,0.1,7.7,0.1,7.7c1.7,4.1,9.3,10.5,22.6,18.9c5.4,4.1,8.1,6.1,8.1,6.1
				c-3,4.3-4.5,6.4-4.5,6.4C122.6,176.2,110.6,168.1,110.6,168.1L110.6,168.1z"/>
			<path fill-rule="evenodd" fill="#69A1AC" d="M158.4,192.2c-2.6-3.1-5.1-5.2-7.3-6.3c-3,4.3-4.5,6.4-4.5,6.4
				c-2.8,10.4-4.2,15.5-4.2,15.5c-0.3,1,0,1.4,1.1,1.3C153.4,197.9,158.4,192.2,158.4,192.2z"/>
			<path fill-rule="evenodd" fill="#69A1AC" d="M83.3,206.7c-2.3,0-4.6-0.1-6.7-0.1c-11.3,5.1-16.9,7.6-16.9,7.6
				c-0.8,0.7-0.7,1.2,0.3,1.6c15.5,0.1,23.3,0.1,23.3,0.1C84.1,214.4,84.1,211.4,83.3,206.7L83.3,206.7z"/>
			<path fill-rule="evenodd" fill="#FF4133" d="M114.7,79.7c-2.3-1.8-4.4-2.4-6.2-1.7c-4.8,13.4-7.5,26.1-8.1,38.2
				c-0.8,8.2-0.2,13.5,1.6,15.7c14,0.8,22.8,0.5,26.6-1c-2.1-12.2-3.2-18.3-3.2-18.3c2.1,0.2,7.1,7.7,15.1,22.6
				c4.8-0.5,7.1-0.8,7.1-0.8c-3.9-18.6-10-32.5-18.1-41.7C125.3,87.3,120.3,83,114.7,79.7L114.7,79.7z"/>
			<path fill-rule="evenodd" fill="#EAC7A8" d="M95.9,70.8c-0.1-5.7,0.5-9.3,1.9-10.9c2.2,3,4.7,4.7,7.5,5.1
				c2.4-0.5,3.6,0.4,3.6,2.8c-0.2,1.2-1.1,1.6-2.2,1.6c0,5.7,0.1,8.6,0.1,8.6c-1.9,0-2.8,0.1-2.8,0.1c0-1.8-0.1-2.6-0.1-2.6
				c-1.9,1.3-3.9,1.5-6.2,0.6C96.3,74.9,95.7,73.1,95.9,70.8L95.9,70.8z"/>
			<path fill-rule="evenodd" fill="#EAC7A8" d="M147.6,134.3c-1.8,0.2-3.5,0.4-5,0.6c0.9,2.8,1,4.9,0.3,6.4c-0.5,2.1-0.3,3,0.7,2.6
				c0.7-1.3,1.5-2.3,2.4-2.9c6.3,1.7,10,1.8,11.1,0.5c1.1-1.3-1.2-2.9-6.9-4.7C149,136.2,148.1,135.4,147.6,134.3L147.6,134.3z"/>
			<path fill-rule="evenodd" fill="#EAC7A8" d="M66.3,107.9c1.3-2.2,1.9-3.3,1.9-3.3C59.3,97.6,55.2,95,55.8,97
				c0.9,1.4,1.6,2.6,2.2,3.6c1.6,1.9,1.1,2.8-1.5,2.7c-1.4,0.3-1.1,0.8,0.7,1.4C60.8,105.2,63.8,106.3,66.3,107.9z"/>
		</g>
	</g>
</g>
</svg>
