<?xml version="1.0" encoding="utf-8"?>
<!-- Generator: Adobe Illustrator 24.2.3, SVG Export Plug-In . SVG Version: 6.00 Build 0)  -->
<svg version="1.2" baseProfile="tiny" xmlns="http://www.w3.org/2000/svg" xmlns:xlink="http://www.w3.org/1999/xlink" x="0px"
	 y="0px" viewBox="0 0 171.9 229.3" overflow="visible" xml:space="preserve">
<g id="Layer_2">
</g>
<g id="Layer_1">
	<g>
		<ellipse fill-rule="evenodd" fill="#FF3185" cx="87.4" cy="207" rx="84.6" ry="21.6"/>
		<path fill-rule="evenodd" fill="#191847" d="M78.8,36c6-0.7,12.2-0.8,18.7-0.2c4.8,0.3,8.4-4,3.7-7.4c-5-4.3-7.2-9.1-6.5-14.6
			c0.7-6.2-2.3-9.9-8.9-11.1c-6.5-0.9-11.1,0.5-13.7,4.2c-5.3,12-6.6,21.5-3.8,28.4C69,36.3,72.5,36.6,78.8,36L78.8,36z"/>
		<path fill-rule="evenodd" fill="#DB2721" d="M77.2,48.8c2.1-6,2.7-10.9,1.7-15C69.7,54,65.2,64.1,65.2,64.1
			c-2,5.1-5.1,5.5-12.7,6.1c-6.1-0.3-11.8-1.9-16.9-4.9c-2.8,4.8-4.2,7.1-4.2,7.1c7.2,8.1,15.8,13.1,25.7,14.8
			c4.4,0.6,7-0.5,7.6-3.2C73,60.6,77.2,48.8,77.2,48.8L77.2,48.8z"/>
		<path fill-rule="evenodd" fill="#69A1AC" stroke="#69A1AC" stroke-width="0.5669" stroke-miterlimit="10" d="M79.2,40.7
			c0.2-2.6,0.2-5.2-0.1-8c5.7-0.4,8.5-0.6,8.5-0.6c-3.1,8.2-6,19-8.6,32.3c-1.5,10-2.4,19.1-2.5,27.3C68.2,91.4,64,91.3,64,91.3
			c0.5-4.8,0.7-7.1,0.7-7.1c4.3-12.2,7.2-20.4,8.7-24.7C76.9,50.3,78.9,44.1,79.2,40.7z"/>
		<path fill-rule="evenodd" fill="#1F28CF" d="M70.2,91.5c-1.1,0-2.1-0.1-3.2-0.1c-9.7,47.6-16.9,84.3-21.6,110.3
			c5.9,0.1,8.8,0.2,8.8,0.2c17.6-47.7,26.4-71.5,26.4-71.5c0.8-1.7,1.2-2.6,1.2-2.6C74.1,103.5,70.2,91.5,70.2,91.5L70.2,91.5z"/>
		<path fill-rule="evenodd" fill="#2B44FF" d="M90.3,150.9c-7.4-20.4-14.1-40.1-20-59.4c23.2,0,34.2,0,33.1,0
			c-0.1,26.5-0.2,39.8-0.2,39.8c0.1,6.7,0.2,10.1,0.2,10.1c2.3,5.5,12.2,13.8,29.7,25c7.1,5.4,10.6,8,10.6,8c-4,5.7-6,8.5-6,8.5
			C106.1,161.5,90.3,150.9,90.3,150.9L90.3,150.9z"/>
		<path fill-rule="evenodd" fill="#69A1AC" d="M153.4,182.7c-3.5-4.1-6.7-6.8-9.7-8.3c-4,5.7-6,8.5-6,8.5
			c-3.7,13.7-5.5,20.5-5.5,20.5c-0.4,1.3,0.1,1.9,1.4,1.7C146.8,190.1,153.4,182.7,153.4,182.7z"/>
		<path fill-rule="evenodd" fill="#69A1AC" d="M54.3,201.8c-3.1-0.1-6-0.1-8.8-0.2c-14.9,6.7-22.3,10-22.3,10
			c-1.1,0.9-0.9,1.6,0.5,2c20.5,0.1,30.7,0.2,30.7,0.2C55.4,211.9,55.4,207.9,54.3,201.8L54.3,201.8z"/>
		<path fill-rule="evenodd" fill="#FF4133" d="M95.7,34.4c-3-2.4-5.8-3.2-8.2-2.3c-6.3,17.7-9.8,34.5-10.6,50.4
			c-1,10.9-0.3,17.7,2.1,20.6c18.4,1.1,30.1,0.6,35.1-1.4c-2.8-16.1-4.3-24.1-4.3-24.1c2.7,0.3,9.3,10.2,19.9,29.7
			c6.3-0.7,9.4-1.1,9.4-1.1C134,81.7,126,63.4,115.3,51.4C109.7,44.4,103.1,38.7,95.7,34.4L95.7,34.4z"/>
		<path fill-rule="evenodd" fill="#EAC7A8" d="M70.9,22.7c-0.1-7.5,0.7-12.2,2.5-14.3c2.8,3.9,6.1,6.2,9.9,6.8
			c3.2-0.7,4.8,0.5,4.7,3.8C87.7,20.4,86.5,21,85,21c0.1,7.5,0.1,11.3,0.1,11.3c-2.5,0.1-3.7,0.1-3.7,0.1c-0.1-2.3-0.1-3.5-0.1-3.5
			c-2.5,1.8-5.2,2-8.1,0.8C71.4,28,70.6,25.6,70.9,22.7L70.9,22.7z"/>
		<path fill-rule="evenodd" fill="#EAC7A8" d="M139.2,106.3c-2.4,0.3-4.6,0.5-6.5,0.7c1.2,3.6,1.3,6.5,0.4,8.5
			c-0.7,2.7-0.4,3.9,0.9,3.5c0.9-1.8,2-3,3.2-3.9c8.3,2.2,13.2,2.4,14.6,0.7c1.4-1.7-1.6-3.8-9-6.2
			C141,108.9,139.8,107.8,139.2,106.3z"/>
		<path fill-rule="evenodd" fill="#EAC7A8" d="M31.9,71.6c1.7-2.9,2.6-4.4,2.6-4.4c-11.8-9.3-17.2-12.7-16.4-10.1
			c1.2,1.9,2.1,3.5,2.8,4.8c2.1,2.5,1.4,3.7-2,3.6c-1.8,0.4-1.5,1,1,1.8C24.7,67.9,28.7,69.4,31.9,71.6L31.9,71.6z"/>
		<path fill-rule="evenodd" fill="#4D4D4D" d="M30.6,84.8l8.9-19.7c0.4-1,1.4-1.5,2.1-1.1l101.2,45.9c0.8,0.3,1,1.4,0.6,2.3
			l-8.9,19.7c-0.4,1-1.4,1.5-2.1,1.1L31.2,87.1C30.4,86.8,30.2,85.7,30.6,84.8z"/>
		<path fill-rule="evenodd" fill="#808080" stroke="#808080" stroke-width="0.5669" stroke-miterlimit="10" d="M144.2,110.5
			c-9.1-4.1-13.7-6.2-13.7-6.2c-6.5,15.7-9.7,23.5-9.7,23.5c8.7,4.1,12.9,6,12.9,5.8C142.2,125.7,145.7,118,144.2,110.5L144.2,110.5
			z"/>
		<path fill-rule="evenodd" fill="#808080" d="M24.6,62.9c-6.6,0.3-9.9,0.4-9.9,0.4c3.4,5,5.1,7.5,5.1,7.5
			C24,67.5,25.6,64.8,24.6,62.9z"/>
		<path fill-rule="evenodd" fill="#CCCCCC" d="M24.1,62.8c0.4,3-1.1,5.5-4.5,7.7C27,82.3,31.3,87.3,31.3,87.3
			c7.8-8.4,10.8-15.6,10.2-23.6C29.9,63.1,24.1,62.8,24.1,62.8L24.1,62.8z"/>
	</g>
</g>
</svg>
