<?xml version="1.0" encoding="utf-8"?>
<!-- Generator: Adobe Illustrator 24.2.3, SVG Export Plug-In . SVG Version: 6.00 Build 0)  -->
<svg version="1.2" baseProfile="tiny" xmlns="http://www.w3.org/2000/svg" xmlns:xlink="http://www.w3.org/1999/xlink" x="0px"
	 y="0px" viewBox="0 0 228.2 170.1" overflow="visible" xml:space="preserve">
<g id="Layer_2">
</g>
<g id="Layer_1">
	<g>
		<path fill-rule="evenodd" fill="#EAC7A8" d="M208.5,140.1c2.4,0.2,3.7-0.7,3.9-2.7c0,0-1.2-1-3.7-3c-2.3,2.5-3.5,3.8-3.5,3.8
			C207.4,139.5,208.5,140.1,208.5,140.1z"/>
		<ellipse fill-rule="evenodd" fill="#FF3185" cx="126.4" cy="128.8" rx="28.1" ry="9.8"/>
		<ellipse fill-rule="evenodd" fill="#FF3185" cx="187.8" cy="153.1" rx="35.5" ry="12.7"/>
		<path fill-rule="evenodd" fill="#EAC7A8" stroke="#EAC7A8" stroke-width="0.5669" stroke-miterlimit="10" d="M113.8,122.7
			c-2.1,0.4-3.5,0.4-4.2-0.1c0,0,0.2-0.9,0.7-2.8c2.9,0.1,4.4,0.1,4.4,0.1C114.5,120.9,114.2,121.8,113.8,122.7L113.8,122.7z"/>
		<path fill-rule="evenodd" fill="#EAC7A8" stroke="#EAC7A8" stroke-width="0.5669" stroke-miterlimit="10" d="M137,122
			c-1.1,0.9-2.6,1-4.5,0.4c0,0,0-1.2,0-3.5c3,0,4.5,0,4.5,0C137,121,137,122,137,122L137,122z"/>
		<path fill-rule="evenodd" fill="#89C5CC" d="M115.7,70.3c0.6,15.3-1.5,31.8-6.3,49.5c4.2,0.1,6.3,0.1,6.3,0.1
			c4.1-8.8,6.8-15.6,8.2-20.5c4.6-15.1,7.3-24.9,8-29.4C121.1,70.2,115.7,70.3,115.7,70.3z"/>
		<path fill-rule="evenodd" fill="#69A1AC" d="M132,70.1c-2.3,9.9-4.5,18.2-6.6,24.9c4.2,16,6.2,24,6.2,24c4,0,6,0,6,0
			c0.8-20.2-0.6-36.3-4.1-48.5c-0.1-0.3-0.1-0.4-0.1-0.4C132.4,70.1,132,70.1,132,70.1L132,70.1z"/>
		<path fill-rule="evenodd" fill="#191847" stroke="#191847" stroke-width="0.5669" stroke-miterlimit="10" d="M124.1,35.4
			c0.1-0.4,0.2-0.6,0.5-0.7c1.6-0.4,2.7-1.3,3.3-2.8c2.9,0.1,4.5-0.8,4.6-2.8c-4.7-0.9-7.9-0.5-9.5,1.3c-1.4,1.9-1.8,3.8-1.2,5.8
			c0.5,1.1,1.2,1.8,2,2.2C124,37.9,124.2,36.9,124.1,35.4z"/>
		<path fill-rule="evenodd" fill="#EAC7A8" stroke="#EAC7A8" stroke-width="0.5669" stroke-miterlimit="10" d="M127.9,31.9
			c0.8,0.1,1.9-0.1,3.3-0.6c0.5,3.7,0.9,5.8,0.9,5.8c0.2,2.6-1.2,4.2-2.6,4.3c-1,0-1.9-0.4-2.9-1.2c-0.1,1.6-0.1,2.3-0.1,2.3
			c-2.5,0-3.6,0-3.4,0c0.2-2.7,0.3-3.2,0.3-3.2c0.1-0.3,0.1-0.7,0.2-0.9c0.4-1,0.5-2,0.4-3.1c0.1-0.6,0.5-0.9,1.2-0.9
			C126.8,33.7,127.7,32.8,127.9,31.9L127.9,31.9z"/>
		<path fill-rule="evenodd" fill="#FF9B21" d="M110.8,80.8c1.1-3.4,1.9-5.1,2.6-4.9c9.9-0.1,14.8-0.2,14.8-0.2
			c1.8-6.6,1.1-15.9-2.3-27.7c-0.5-3.6-1.5-5.5-3.1-5.6c-6-1.5-9.4-1.2-10.2,0.8c-0.5,2.3,0.6,4.3,3.1,6.1c-3.7,4.4-6.2,11-7.5,19.9
			c-0.7,3.6-1.1,7.5-1.1,11.5C109.6,80.7,110.8,80.8,110.8,80.8L110.8,80.8z"/>
		<path fill-rule="evenodd" fill="#E68C1E" d="M113.4,75.8c2.1,0,4-0.1,5.5-0.1c-1.4-5.6-2.1-8.3-2.1-8.3
			C114.6,73,113.4,75.8,113.4,75.8z"/>
		<path fill-rule="evenodd" fill="#FF9B21" stroke="#FF9B21" stroke-width="0.5669" stroke-miterlimit="10" d="M109.8,122.6
			c1.2,0.4,2.6,0.4,4.1,0c5.4,1.3,8.5,2.4,9.5,3.4c0.5,0.6,0.3,1-0.8,1.2c-8.9,0.1-13.4,0.1-13.4,0.1c-0.5,0-0.7-1-0.5-3
			C108.7,123.3,109,122.7,109.8,122.6L109.8,122.6z"/>
		<path fill-rule="evenodd" fill="#FF9B21" stroke="#FF9B21" stroke-width="0.5669" stroke-miterlimit="10" d="M146.3,127
			c0.2-0.1,0.2-0.3,0.1-0.7c-1.6-1.6-4.8-3-9.5-4.2c-0.8,0.8-2.3,1-4.5,0.4c-0.6,1.5-0.6,3,0,4.5C141.6,126.9,146.3,127,146.3,127
			L146.3,127z"/>
		<path fill-rule="evenodd" fill="#EAC7A8" d="M110.7,80.8c-1.3,0-2.5-0.1-3.6-0.1c-3.3,2.4-4.9,4.2-4.9,5.4
			c0.1,0.7,1.2,0.7,3.3,0.1c2-1.1,3.3-1.4,3.9-0.9c0.7,1,1.3,1.3,1.7,0.9c0.2-0.3-0.1-1.1-0.9-2.4C109.8,82.1,110.3,81.4,110.7,80.8
			L110.7,80.8z"/>
		<path fill-rule="evenodd" fill="#B3B3B3" stroke="#AFB9C5" stroke-width="0.5669" stroke-miterlimit="10" d="M125.9,47.9
			c-0.3-2.9-1.1-4.7-2.4-5.4c2.9,0,4.4,0,4.4,0c1.6,8,3.2,15,5.1,20.8c1.2,4.6,1.7,6.9,1.7,6.9c-3.7,0-5.5,0-5.5,0
			c0.2-3.5,0-7.2-0.6-10.9C127.9,55.6,127,51.8,125.9,47.9z"/>
		<path fill-rule="evenodd" fill="#E87613" stroke="#E87613" stroke-width="0.5669" stroke-miterlimit="10" d="M133.4,65.6
			c1.6,5.4,4.9,8.1,12,8.2c0,0,0.7-1,2-2.9c-4.5-3.6-7.8-7.6-10.2-12c-2.6-5.3-5.6-9.9-9-13.8C129.3,50.4,131,57.2,133.4,65.6z"/>
		<path fill-rule="evenodd" fill="#EAC7A8" d="M147.2,71.4c-0.5,0.6-0.8,1.1-0.8,1.5c1,1.5,2.1,2.5,3.1,3.1c0.3,0.2,0.5,0,0.4-0.6
			c-0.2-1.2,0.2-1.7,1.3-1.5c2.6,0.5,3.3,0.3,2-0.6C150.6,71.8,148.6,71.1,147.2,71.4z"/>
		<path fill-rule="evenodd" fill="#EAC7A8" d="M172.7,148.8c-1.9,1.5-3.3,1.2-4.1-0.9c0,0,0.8-1.5,2.3-4.5c3,1.3,4.5,2,4.5,2
			C173.6,147.7,172.7,148.8,172.7,148.8L172.7,148.8z"/>
		<path fill-rule="evenodd" fill="#2F3676" d="M170.6,149.6c0.6,0,1.4-0.3,2.2-0.9c1.5,0.9,2,2.5,1.5,4.7
			c-9.7,0.1-14.6,0.2-14.6,0.2c-2,0.1-2.8-0.3-2.4-1.3c0.2-1.1,4-2.6,11.5-4.5C169,148.9,169.6,149.5,170.6,149.6L170.6,149.6z"/>
		<path fill-rule="evenodd" fill="#5C63AB" stroke="#5C63AB" stroke-width="0.5669" stroke-miterlimit="10" d="M195.6,112.7
			c-0.6-9.7-1-16.9-1.2-21.5c-11.1,0.1-16.6,0.1-16.6,0.1c-0.2,15.5,3.3,27.6,10.5,36.2c8.7,10.2,13.1,15.3,13.1,15.3
			c7.1-8,10.6-12,10.6-12C201,118.8,195.6,112.7,195.6,112.7z"/>
		<path fill-rule="evenodd" fill="#2F3676" stroke="#2F3676" stroke-width="0.5669" stroke-miterlimit="10" d="M177.7,91.4
			c-0.6,10.1,1.7,20.5,6.8,30.9c-2.7,15.5-4.1,23.2-4.1,23.2c-11.2-0.6-16.8-0.9-16.8-0.9c8.3-35.6,12.4-53.4,12.4-53.4
			C177.2,91.3,177.7,91.4,177.7,91.4L177.7,91.4z"/>
		<path fill-rule="evenodd" fill="#EAC7A8" d="M202.7,101.2c1.4,0,2.6,0.1,3.6,0.1c0.8,2.6,2.2,4.5,4.1,5.9c1.9,1,2.9,2.2,2.9,3.5
			c-0.2,0.9-1.7,0.8-4.4-0.2c-2.3-1.3-3.6-1.8-4.1-1.2c-1.1,1.3-1.8,1.8-2.2,1.5c-0.5-0.3-0.2-1.2,0.9-2.7
			C204,105.6,203.8,103.3,202.7,101.2z"/>
		<path fill-rule="evenodd" fill="#2F3676" stroke="#2F3676" stroke-width="0.5669" stroke-miterlimit="10" d="M209.4,101.6
			c0-0.7,0-1.8-0.1-3.4c-1.5-13-6.3-25.1-14.4-36.5c-1.6-3-3.8-4.2-6.7-3.7c-1.3,13-2.5,26-3.6,39c4.5,0.6,9.3,0.7,14.3,0.2
			c0.5,0,0.7,0.4,0.4,1.4c-0.2,1.7-0.3,2.6-0.3,2.6C205.9,101.5,209.4,101.6,209.4,101.6L209.4,101.6z"/>
		<path fill-rule="evenodd" fill="#2A316A" d="M194.9,97.6c1.3-0.1,2.7-0.2,4-0.3c-0.3-8.7-0.4-13.1-0.4-13.1
			c-0.3-1.1-0.5-0.6-0.7,1.7C197.4,92.2,196.5,96,194.9,97.6L194.9,97.6z"/>
		<path fill-rule="evenodd" fill="#595E91" d="M188.4,88.5c-0.1-2.3-0.1-3.4-0.1-3.4c4.6,2.2,6.9,3.2,6.9,3.2
			C190.7,88.5,188.4,88.5,188.4,88.5z"/>
		<path fill-rule="evenodd" fill="#191847" stroke="#2A316A" stroke-width="0.5669" stroke-miterlimit="10" d="M163.1,89
			c9-7.7,15.7-16.4,21.1-26.7c-1.1,14.4-5.5,26.6-13.2,36.6C165.6,92.2,163.4,89.7,163.1,89L163.1,89z"/>
		<path fill-rule="evenodd" fill="#4D4D4D" stroke="#4D4D4D" stroke-width="0.5669" stroke-miterlimit="10" d="M187.2,67.4
			c0.3-3.6,0.7-6.7,1-9.1c-1.8-0.2-3,0.2-3.4,0.8c-0.5,1.3-0.9,4-1.1,8.1c-1.5,9.9-4.1,17.9-7.7,24.1c6,0.2,9.1,0.3,9.1,0.3
			C186.5,75.4,187.2,67.4,187.2,67.4L187.2,67.4z"/>
		<path fill-rule="evenodd" fill="#2F3676" d="M203.5,151.5c0.5,2.7,4.7-1,12.6-11.2c-0.6-0.9-1.9-1.9-3.7-3
			c-0.1,1.9-1.4,2.8-3.7,2.7C205.8,144.4,204,148.3,203.5,151.5L203.5,151.5z"/>
		<path fill-rule="evenodd" fill="#EAC7A8" d="M186.3,57.1c0,0.8,0,1.2,0,1.2s1.5-0.1,4.5-0.2c-0.3-2.3-0.4-3.4-0.4-3.4
			c-0.5-0.2-0.7-0.9-0.7-1.8c0.2-3-0.1-4.6-1.1-5c-0.6-0.3-1.4,0.2-2.5,1.7c-0.7,0.4-1.2-0.2-1.6-1.8c-1-1-2.4-1.2-4.4-0.6
			c-0.7,4.1-0.4,7.2,1,9.3c1,1.2,2.7,1.1,5-0.5C186.4,55.9,186.4,56.3,186.3,57.1L186.3,57.1z"/>
		<path fill="none" d="M186.3,58.3c1.3-0.1,2.8-0.2,4.5-0.2"/>
		<path fill-rule="evenodd" fill="#191847" stroke="#191847" stroke-width="0.5669" stroke-miterlimit="10" d="M184.1,47.3
			c-1.1-0.7-2.4-0.8-4-0.2c-1.1-1.4-0.6-3.2,1.5-5.2c3-2,5.9-2.1,8.5-0.3c2.5,1.7,3.4,3.8,2.8,6.4c-0.9,1.2-1.6,2.6-1.9,4.1
			c-0.2,0.8-0.4,1.7-0.6,2.6c-0.6-0.6-0.9-1.3-0.7-2.3c0.3-2.3-0.1-3.8-1.1-4.5c-0.7-0.3-1.5,0.3-2.5,1.7c-0.3,0.2-0.7,0.1-1.1-0.4
			C184.8,48.1,184.5,47.5,184.1,47.3z"/>
		<path fill-rule="evenodd" fill="#EAC7A8" d="M163.5,89.6c0.6,0.8,1.3,1.6,2,2.5c-2.9,1.8-4.7,3.8-5.4,5.9
			c-0.6,0.6-0.9,0.5-1.1-0.6c0-1.1-0.5-1.5-1.4-1.3c-1.3,0.1-2.4,0.3-3.4,0.6c-0.7-1.3,0.7-2.4,4.3-3.3
			C159.8,93.1,161.5,91.8,163.5,89.6z"/>
		<g id="_1824787983280">
			<g>
				<path fill-rule="evenodd" fill="#85A67B" d="M22.3,87.1c1,0.6,1.4,0.3,1.2-0.8c-1.9-3.3-2.3-5.7-1.2-7.2
					c3.1-6,3.9-10.5,2.6-13.6c-1.4-2.3-3-2.1-4.8,0.4c-1.5,4.4-2.7,5.6-3.7,3.5c1.4-4.9,1.9-8,1.6-9.3c-0.8-1.9-1.9-2-3.3-0.2
					c-1.4,1.4-2.2,1.3-2.2-0.3c0.2-2.4,0-3.9-0.8-4.4c-1.2-0.2-2,0.5-2.4,2.1c-0.4,0.8-1,0.3-1.8-1.6c-1.5-2.6-3-3-4.5-1.4
					c-0.5,1.1,0.1,2.9,2,5.4c0.6,1,0.4,1.5-0.7,1.5c-2.8,0.4-3.8,1.5-2.9,3.3c0.3,0.7,2.3,1.5,6,2.4c0.9,0.6,0.9,1.1,0,1.5
					c-2.8-0.2-4.4,0.4-4.7,2c-0.1,1.7,1.2,2.7,3.8,3c2.9-0.1,4.4,0.5,4.6,1.7c0.1,1.2-1.2,1.5-3.7,1.1c-1.9,0.5-2.4,1.6-1.4,3.3
					c1.3,2,5.5,3,12.6,3C19.5,83,20.7,84.5,22.3,87.1L22.3,87.1z"/>
				<path fill-rule="evenodd" fill="#BCDAB4" d="M18.4,80.6c1.4,2,2.4,2.8,2.8,2.6c-1.9-3.4-2.8-5.7-2.6-6.6c1-3,2-5.4,3.1-7.1
					c-0.2-0.6-0.6-0.4-1.4,0.6c-1.7,3.7-2.6,5.5-2.6,5.5c-0.4,0.2-0.8-0.2-1.2-1.1c-2-3.8-3-5.7-3-5.7c-0.4-0.3,0.5-2.3,2.7-5.9
					c0.1-0.7-0.2-0.6-1,0.5c-1.7,2.8-2.6,4.1-2.6,4.1c-1.7-3-2.6-4.5-2.6-4.5c-0.3-1.6,0-3.3,1-5.2c-0.3-1.2-0.7-0.4-1.4,2.3
					c-0.3,2.2-0.6,2.7-1,1.5c-2-3.4-3-5.1-3-5.1c-0.5,0.1-0.5,0.6,0.2,1.7c1.6,2.9,2.4,4.3,2.4,4.3C8,63,6.8,63.1,4.4,62.7
					c-1.1,0-0.9,0.2,0.7,0.8c3,0.2,4.8,1.2,5.3,3.1c1.3,2.4,2,3.6,2,3.6c-0.4,0.7-2.9,0.7-7.5-0.1c-0.6,0.3-0.5,0.6,0.4,0.9
					c2.1,0.7,4.7,0.9,7.6,0.5c0.4,0.1,1.5,1.8,3.3,5c0.8,1.2,0.9,1.9,0.3,2c-4.5-0.1-6.8-0.2-6.8-0.2c-1.1,0.3-1,0.6,0.4,0.8
					C15.1,79,17.8,79.5,18.4,80.6L18.4,80.6z"/>
			</g>
			<g>
				<path fill-rule="evenodd" fill="#85A67B" d="M20.3,105.6c0.5,1.7,1.2,1.8,2.2,0.4c1.5-5.7,3.7-8.8,6.6-9.2
					c10-3.2,15.9-7.3,17.8-12.2c0.9-4-1-5.7-5.8-4.9c-6.6,3.2-9.2,3.2-8-0.1c7-3.9,11-6.8,12-8.6c1.2-3,0.1-4.3-3.4-3.9
					c-3.2,0-3.9-0.9-2.1-2.8c2.9-2.5,4.3-4.4,4-5.7c-1.1-1.6-2.8-1.7-5-0.3c-1.4,0.4-1.5-0.8-0.3-3.8c1.1-4.6,0-6.7-3.5-6.5
					c-1.8,0.6-3,3.3-3.7,8.1c-0.4,1.7-1.2,2-2.4,0.8c-3.5-2.7-5.8-2.5-6.9,0.5c-0.4,1.1,0.9,4.1,4,9.2c0.3,1.7-0.2,2.2-1.7,1.6
					c-2.9-3.4-5.3-4.4-7.4-3c-2,1.8-1.7,4.3,0.8,7.6c3.2,3.1,4.3,5.4,3.3,6.9c-1.2,1.4-3,0.4-5.3-2.9c-2.7-1.6-4.4-0.9-5.1,2.1
					c-0.8,3.6,2.8,9.3,10.6,17.3C21.7,98,21.5,101.1,20.3,105.6L20.3,105.6z"/>
				<path fill-rule="evenodd" fill="#BCDAB4" d="M23.1,94.2c-0.6,3.7-0.5,5.7,0.3,6c1.7-5.9,3.2-9.3,4.5-10.2
					c4.4-2.2,8.2-3.7,11.3-4.4c0.5-0.9-0.2-1.1-2.2-0.8c-5.9,2.2-8.9,3.3-8.9,3.3c-0.7-0.2-0.7-1.1-0.1-2.6c2-6.4,3-9.6,3-9.6
					c0-0.8,3.1-2,9.5-3.6c0.9-0.7,0.4-0.9-1.6-0.5c-4.9,1.2-7.4,1.7-7.4,1.7c1.4-5.2,2.1-7.8,2.1-7.8c1.4-2.1,3.6-3.6,6.8-4.7
					c1-1.6-0.4-1.3-4.1,1c-2.8,2.2-3.7,2.3-2.8,0.5c1.5-5.9,2.3-8.9,2.3-8.9c-0.7-0.5-1.2,0.2-1.6,2.1c-1.4,4.9-2.1,7.4-2.1,7.4
					c-0.8,0.4-2.3-1-4.4-4c-1.2-1.2-1.2-0.7-0.1,1.6c3.2,3.5,4,6.7,2.5,9.4c-1.2,4.1-1.8,6.2-1.8,6.2c-1.2,0.4-3.9-2.4-8.3-8.4
					c-0.9-0.4-1.1,0.1-0.5,1.4c1.6,3.1,4.2,6.1,7.8,8.9c0.3,0.6-0.4,3.6-1.9,9.1c-0.5,2.2-1.1,3-1.8,2.5c-4.9-5.1-7.3-7.7-7.3-7.7
					c-1.6-0.9-1.7-0.5-0.4,1.4C21.2,88.8,23.7,92.3,23.1,94.2L23.1,94.2z"/>
			</g>
			<g>
				<path fill-rule="evenodd" fill="#85A67B" d="M18.2,110.9c0.7,1,1.2,0.9,1.5-0.3c-0.4-4.1,0.3-6.6,2.1-7.6
					c5.7-4.5,8.6-8.6,8.7-12.3c-0.4-2.9-2-3.5-4.9-1.8c-3.5,3.7-5.2,4.3-5.2,1.8c3.6-4.2,5.5-7.1,5.8-8.5c0.1-2.2-1-2.8-3.2-1.7
					c-2.1,0.8-2.8,0.3-2.1-1.3c1.3-2.3,1.7-3.9,1.2-4.7c-1.1-0.8-2.3-0.4-3.4,1c-0.8,0.6-1.1-0.2-1.1-2.4c-0.4-3.3-1.6-4.4-3.8-3.4
					c-1,0.8-1.2,2.9-0.5,6.2c0.2,1.2-0.3,1.6-1.4,1.1c-2.9-0.9-4.4-0.2-4.4,2c0,0.8,1.6,2.5,4.8,5.1c0.6,1,0.4,1.5-0.7,1.5
					c-2.7-1.5-4.5-1.6-5.5-0.2c-0.9,1.7-0.1,3.3,2.4,4.7c2.9,1.2,4.1,2.5,3.8,3.7c-0.5,1.2-1.9,1-4.2-0.6C6,93,5.1,93.9,5.3,96
					c0.4,2.5,4.1,5.4,11.1,8.7C17.2,105.6,17.8,107.7,18.2,110.9L18.2,110.9z"/>
				<path fill-rule="evenodd" fill="#BCDAB4" d="M17.2,102.8c0.5,2.6,1.1,3.9,1.6,3.8c-0.3-4.3-0.2-6.8,0.4-7.7
					c2.3-2.5,4.4-4.4,6.3-5.6c0.1-0.7-0.4-0.7-1.6,0c-3.4,2.9-5,4.3-5,4.3c-0.5,0-0.7-0.5-0.7-1.7c-0.2-4.7-0.3-7-0.3-7
					c-0.2-0.5,1.6-2.1,5.3-4.7c0.4-0.7,0-0.6-1.2,0.1c-2.9,2-4.4,2.9-4.4,2.9c-0.4-3.7-0.5-5.6-0.5-5.6c0.4-1.7,1.5-3.3,3.3-4.7
					c0.3-1.3-0.5-0.7-2.5,1.6c-1.3,2.1-1.8,2.4-1.7,1c-0.4-4.2-0.6-6.4-0.6-6.4C15,73.1,14.8,73.6,15,75c0.3,3.5,0.4,5.3,0.4,5.3
					c-0.4,0.4-1.7-0.1-3.8-1.5c-1.1-0.5-1-0.2,0.4,1.1c2.9,1.5,4.2,3.4,3.9,5.5c0.2,3,0.3,4.4,0.3,4.4c-0.7,0.5-3.2-0.6-7.4-3.5
					c-0.7,0-0.7,0.3,0,1.1c1.8,1.7,4.2,3,7.2,3.9c0.3,0.3,0.6,2.4,1,6.4c0.2,1.5,0,2.2-0.6,2.1c-4.4-2.2-6.7-3.2-6.7-3.2
					c-1.3-0.2-1.2,0.1,0,1C14.7,99.7,17.2,101.4,17.2,102.8L17.2,102.8z"/>
			</g>
			<path fill-rule="evenodd" fill="#B3B3B3" d="M25.8,123.1c-14.4,2.1-21.7-3.4-21.9-16.4c22.4,0,33.6,0,33.6,0
				C38.3,113.6,33.6,122.3,25.8,123.1L25.8,123.1z"/>
		</g>
		
			<rect x="166.9" y="0" fill-rule="evenodd" fill="#6699FF" stroke="#6699FF" stroke-width="0.5669" stroke-miterlimit="10" width="0.8" height="14.9"/>
		<path fill-rule="evenodd" fill="#6699FF" stroke="#6699FF" stroke-width="0.5669" stroke-miterlimit="10" d="M162.4,23.7
			c-2.5-0.2-3.8-0.3-3.8-0.3c1.7-5.5,4.6-8.3,8.8-8.5c5.1,0.5,7.9,3.5,8.3,8.8c-2.2-0.1-3.9,0.2-4.9,0.9
			C168.3,26.2,165.5,25.9,162.4,23.7z"/>
		
			<rect x="193.1" fill-rule="evenodd" fill="#6699FF" stroke="#6699FF" stroke-width="0.5669" stroke-miterlimit="10" width="0.8" height="11.9"/>
		<path fill-rule="evenodd" fill="#6699FF" stroke="#6699FF" stroke-width="0.5669" stroke-miterlimit="10" d="M188.6,14.5
			c-2.5-0.2-3.8-0.3-3.8-0.3c1.7-5.5,4.6-8.3,8.8-8.5c5.1,0.5,7.9,3.5,8.3,8.8c-2.2-0.1-3.9,0.2-4.9,0.9
			C194.5,17,191.7,16.7,188.6,14.5L188.6,14.5z"/>
		<ellipse fill-rule="evenodd" fill="#FF3185" cx="80.7" cy="157.4" rx="37.8" ry="12.7"/>
		<path fill-rule="evenodd" fill="#191847" d="M83.1,78.8c-2.8-0.3-5.7-0.4-8.7-0.1c-2.2,0.2-3.9-1.9-1.7-3.5c2.3-2,3.3-4.2,3-6.8
			c-0.3-2.9,1.1-4.6,4.1-5.2c3-0.4,5.2,0.2,6.4,1.9c2.5,5.6,3.1,10,1.8,13.2C87.6,78.9,86,79.1,83.1,78.8L83.1,78.8z"/>
		<path fill-rule="evenodd" fill="#DB2721" d="M83.9,84.7c-1-2.8-1.3-5.1-0.8-7c4.3,9.4,6.4,14.1,6.4,14.1c0.9,2.4,2.4,2.6,5.9,2.9
			c2.8-0.1,5.5-0.9,7.9-2.3c1.3,2.2,1.9,3.3,1.9,3.3c-3.3,3.8-7.3,6.1-12,6.9c-2.1,0.3-3.2-0.2-3.5-1.5
			C85.8,90.2,83.9,84.7,83.9,84.7L83.9,84.7z"/>
		<path fill-rule="evenodd" fill="#69A1AC" stroke="#69A1AC" stroke-width="0.5669" stroke-miterlimit="10" d="M82.9,81
			c-0.1-1.2-0.1-2.4,0.1-3.7C80.3,77,79,77,79,77c1.5,3.8,2.8,8.8,4,15c0.7,4.7,1.1,8.9,1.1,12.7c3.9-0.1,5.8-0.2,5.8-0.2
			c-0.2-2.2-0.3-3.3-0.3-3.3c-2-5.7-3.3-9.5-4-11.5C84,85.4,83.1,82.5,82.9,81L82.9,81z"/>
		<path fill-rule="evenodd" fill="#1F28CF" stroke="#1F28CF" stroke-width="0.5669" stroke-miterlimit="10" d="M87.1,104.6
			c0.5,0,1,0,1.5,0c4.5,22.1,7.9,39.3,10,51.3c-2.7,0-4.1,0.1-4.1,0.1c-8.2-22.2-12.3-33.3-12.3-33.3c-0.4-0.8-0.6-1.2-0.6-1.2
			C85.3,110.2,87.1,104.6,87.1,104.6L87.1,104.6z"/>
		<path fill-rule="evenodd" fill="#2B44FF" d="M77.8,132.2c3.5-9.5,6.6-18.8,9.4-27.7c-10.8,0-16,0-15.5,0c0,12.4,0.1,18.6,0.1,18.6
			c0,3.1-0.1,4.7-0.1,4.7c-1.1,2.6-5.7,6.4-13.9,11.7c-3.3,2.5-5,3.8-5,3.8c1.9,2.6,2.8,4,2.8,4C70.4,137.2,77.8,132.2,77.8,132.2
			L77.8,132.2z"/>
		<path fill-rule="evenodd" fill="#69A1AC" d="M48.4,147.1c1.6-1.9,3.1-3.2,4.5-3.9c1.9,2.6,2.8,4,2.8,4c1.7,6.4,2.6,9.5,2.6,9.5
			c0.2,0.6,0,0.9-0.7,0.8C51.4,150.6,48.4,147.1,48.4,147.1L48.4,147.1z"/>
		<path fill-rule="evenodd" fill="#69A1AC" d="M94.5,156c1.4,0,2.8,0,4.1-0.1c6.9,3.1,10.4,4.6,10.4,4.6c0.5,0.4,0.4,0.8-0.2,1
			c-9.5,0-14.3,0.1-14.3,0.1C94,160.7,94,158.8,94.5,156z"/>
		<path fill-rule="evenodd" fill="#FF4133" d="M75.2,78c1.4-1.1,2.7-1.5,3.8-1.1c2.9,8.2,4.6,16,4.9,23.5c0.5,5.1,0.2,8.3-1,9.6
			c-8.6,0.5-14,0.3-16.3-0.6c1.3-7.5,2-11.2,2-11.2c-1.3,0.1-4.3,4.8-9.3,13.9c-2.9-0.3-4.4-0.5-4.4-0.5c2.4-11.4,6.1-20,11.1-25.6
			C68.7,82.7,71.8,80.1,75.2,78L75.2,78z"/>
		<path fill-rule="evenodd" fill="#EAC7A8" d="M86.8,72.6c0-3.5-0.3-5.7-1.1-6.7c-1.3,1.8-2.9,2.9-4.6,3.1c-1.5-0.3-2.2,0.2-2.2,1.7
			c0.1,0.7,0.7,1,1.3,1c0,3.5,0,5.3,0,5.3c1.1,0,1.7,0,1.7,0c0-1.1,0-1.6,0-1.6c1.2,0.8,2.4,0.9,3.8,0.4
			C86.5,75.1,86.9,74,86.8,72.6z"/>
		<path fill-rule="evenodd" fill="#EAC7A8" d="M55,111.5c1.1,0.1,2.1,0.2,3,0.3c-0.6,1.7-0.6,3-0.2,4c0.3,1.3,0.2,1.8-0.4,1.6
			c-0.4-0.8-0.9-1.4-1.5-1.8c-3.9,1-6.1,1.1-6.8,0.3c-0.7-0.8,0.7-1.8,4.2-2.9C54.1,112.7,54.7,112.2,55,111.5L55,111.5z"/>
		<path fill-rule="evenodd" fill="#EAC7A8" d="M104.9,95.3c-0.8-1.4-1.2-2-1.2-2c5.5-4.3,8-5.9,7.6-4.7c-0.5,0.9-1,1.6-1.3,2.2
			c-1,1.2-0.6,1.7,0.9,1.7c0.8,0.2,0.7,0.5-0.5,0.8C108.3,93.6,106.4,94.3,104.9,95.3L104.9,95.3z"/>
	</g>
</g>
</svg>
