<?xml version="1.0" encoding="utf-8"?>
<!-- Generator: Adobe Illustrator 24.2.3, SVG Export Plug-In . SVG Version: 6.00 Build 0)  -->
<svg version="1.1" id="Layer_1" xmlns="http://www.w3.org/2000/svg" xmlns:xlink="http://www.w3.org/1999/xlink" x="0px" y="0px"
	 viewBox="0 0 595.3 419.5" style="enable-background:new 0 0 595.3 419.5;" xml:space="preserve">
<style type="text/css">
	.st0{fill-rule:evenodd;clip-rule:evenodd;fill:#DDE3E9;}
	.st1{fill-rule:evenodd;clip-rule:evenodd;fill:#FFFFFF;}
	.st2{fill-rule:evenodd;clip-rule:evenodd;fill:#C5CFD6;}
	.st3{fill-rule:evenodd;clip-rule:evenodd;fill:#AFB9C5;}
</style>
<g id="Layer_x0020_1">
	<rect x="59.7" y="28.7" class="st0" width="475.9" height="356.9"/>
	<circle class="st1" cx="160.2" cy="171.2" r="40.7"/>
	<path class="st2" d="M337.6,384.2c-166-0.6-249.1-0.9-249.1-0.9c71.2-91.1,106.8-136.6,106.8-136.6c13.2-15.4,19.6-17,29.1-6.8
		C299.9,336.1,337.6,384.2,337.6,384.2L337.6,384.2z"/>
	<path class="st3" d="M335.3,384.2c-41.5-55.3-62.3-82.9-62.3-82.9c53.3-86.5,80-129.7,80-129.7c94,139.2,141.1,208.8,141.1,208.8
		c1.5,2.6,2.3,3.8,2.3,3.8C389.1,384.1,335.3,384.2,335.3,384.2z"/>
</g>
</svg>
