<?xml version="1.0" encoding="utf-8"?>
<!-- Generator: Adobe Illustrator 24.2.3, SVG Export Plug-In . SVG Version: 6.00 Build 0)  -->
<svg version="1.2" baseProfile="tiny" xmlns="http://www.w3.org/2000/svg" xmlns:xlink="http://www.w3.org/1999/xlink" x="0px"
	 y="0px" viewBox="0 0 175.9 234.5" overflow="visible" xml:space="preserve">
<g id="Layer_2">
</g>
<g id="Layer_1">
	<g>
		<ellipse fill-rule="evenodd" fill="#FF3185" cx="76.9" cy="214.6" rx="50.6" ry="17"/>
		<g id="_1824804958032">
			<path fill-rule="evenodd" fill="#F2F2F2" d="M5.7,5.4h109.5c1.8,0,3.3,1.5,3.3,3.3v113.7c0,1.8-1.5,3.3-3.3,3.3H5.7
				c-1.8,0-3.3-1.5-3.3-3.3V8.8C2.4,6.9,3.8,5.4,5.7,5.4z"/>
			<rect x="8.8" y="22.5" fill-rule="evenodd" fill="#FFFFFF" width="73.8" height="16.2"/>
			<path fill-rule="evenodd" fill="#FFFFFF" d="M13,27.3h49.6c0.4,0,0.7,0.3,0.7,0.7v1c0,0.4-0.3,0.7-0.7,0.7H13
				c-0.4,0-0.7-0.3-0.7-0.7v-1C12.4,27.6,12.6,27.3,13,27.3z"/>
			<path fill-rule="evenodd" fill="#FFFFFF" d="M12.9,31.5h33.3c0.3,0,0.5,0.3,0.5,0.8V33c0,0.4-0.2,0.8-0.5,0.8H12.9
				c-0.3,0-0.5-0.3-0.5-0.8v-0.8C12.4,31.8,12.6,31.5,12.9,31.5z"/>
			<ellipse fill-rule="evenodd" fill="#FFFFFF" cx="74.9" cy="30.7" rx="2.2" ry="2.1"/>
			<path fill-rule="evenodd" fill="#C5CFD6" d="M2.4,8.9c0,2.6,0,4.5,0,5.7c34.9,0,52.3,0,52.3,0c41.6,0,62.4-0.1,62.4-0.1
				c1.2,0.1,1.7,0,1.4-0.5c0-3.9,0-5.8,0-5.8c-0.3-1.8-1.4-2.8-3.3-2.9c-23.7,0-35.5,0-35.5,0c-34.2,0-51.3,0-51.3,0
				c-15,0-22.5,0-22.5,0C3.7,5.5,2.5,6.7,2.4,8.9L2.4,8.9z"/>
			<path fill-rule="evenodd" fill="#DDE3E9" d="M13,27.3h49.6c0.4,0,0.7,0.3,0.7,0.7v1c0,0.4-0.3,0.7-0.7,0.7H13
				c-0.4,0-0.7-0.3-0.7-0.7v-1C12.4,27.6,12.6,27.3,13,27.3z"/>
			<path fill-rule="evenodd" fill="#DDE3E9" d="M12.9,31.5h33.3c0.3,0,0.5,0.3,0.5,0.8V33c0,0.4-0.2,0.8-0.5,0.8H12.9
				c-0.3,0-0.5-0.3-0.5-0.8v-0.8C12.4,31.8,12.6,31.5,12.9,31.5z"/>
			<ellipse fill-rule="evenodd" fill="#FFFFFF" cx="7.6" cy="10.8" rx="1.1" ry="1.2"/>
			<ellipse fill-rule="evenodd" fill="#FFFFFF" cx="12.1" cy="10.8" rx="1.1" ry="1.2"/>
			<ellipse fill-rule="evenodd" fill="#FFFFFF" cx="17" cy="10.8" rx="1.1" ry="1.2"/>
			<rect x="8.8" y="45.4" fill-rule="evenodd" fill="#FFFFFF" width="73.8" height="16.2"/>
			<path fill-rule="evenodd" fill="#FFFFFF" d="M13,50.2h49.6c0.4,0,0.7,0.3,0.7,0.7v1c0,0.4-0.3,0.7-0.7,0.7H13
				c-0.4,0-0.7-0.3-0.7-0.7v-1C12.4,50.5,12.6,50.2,13,50.2z"/>
			<path fill-rule="evenodd" fill="#FFFFFF" d="M12.9,54.4h33.3c0.3,0,0.5,0.3,0.5,0.8V56c0,0.4-0.2,0.8-0.5,0.8H12.9
				c-0.3,0-0.5-0.3-0.5-0.8v-0.8C12.4,54.8,12.6,54.4,12.9,54.4z"/>
			<ellipse fill-rule="evenodd" fill="#FFFFFF" cx="74.9" cy="53.7" rx="2.2" ry="2.1"/>
			<path fill-rule="evenodd" fill="#DDE3E9" d="M13,50.2h49.6c0.4,0,0.7,0.3,0.7,0.7v1c0,0.4-0.3,0.7-0.7,0.7H13
				c-0.4,0-0.7-0.3-0.7-0.7v-1C12.4,50.5,12.6,50.2,13,50.2z"/>
			<path fill-rule="evenodd" fill="#DDE3E9" d="M12.9,54.4h33.3c0.3,0,0.5,0.3,0.5,0.8V56c0,0.4-0.2,0.8-0.5,0.8H12.9
				c-0.3,0-0.5-0.3-0.5-0.8v-0.8C12.4,54.8,12.6,54.4,12.9,54.4z"/>
			<rect x="8.8" y="68.8" fill-rule="evenodd" fill="#FFFFFF" width="73.8" height="16.2"/>
			<path fill-rule="evenodd" fill="#FFFFFF" d="M13,73.6h49.6c0.4,0,0.7,0.3,0.7,0.7v1c0,0.4-0.3,0.7-0.7,0.7H13
				c-0.4,0-0.7-0.3-0.7-0.7v-1C12.4,73.9,12.6,73.6,13,73.6z"/>
			<path fill-rule="evenodd" fill="#FFFFFF" d="M12.9,77.8h33.3c0.3,0,0.5,0.3,0.5,0.8v0.8c0,0.4-0.2,0.8-0.5,0.8H12.9
				c-0.3,0-0.5-0.3-0.5-0.8v-0.8C12.4,78.1,12.6,77.8,12.9,77.8z"/>
			<ellipse fill-rule="evenodd" fill="#FFFFFF" cx="74.9" cy="77" rx="2.2" ry="2.1"/>
			<path fill-rule="evenodd" fill="#DDE3E9" d="M13,73.6h49.6c0.4,0,0.7,0.3,0.7,0.7v1c0,0.4-0.3,0.7-0.7,0.7H13
				c-0.4,0-0.7-0.3-0.7-0.7v-1C12.4,73.9,12.6,73.6,13,73.6z"/>
			<path fill-rule="evenodd" fill="#DDE3E9" d="M12.9,77.8h33.3c0.3,0,0.5,0.3,0.5,0.8v0.8c0,0.4-0.2,0.8-0.5,0.8H12.9
				c-0.3,0-0.5-0.3-0.5-0.8v-0.8C12.4,78.1,12.6,77.8,12.9,77.8z"/>
			<rect x="8.8" y="93.2" fill-rule="evenodd" fill="#FFFFFF" width="73.8" height="16.2"/>
			<path fill-rule="evenodd" fill="#FFFFFF" d="M13,98h49.6c0.4,0,0.7,0.3,0.7,0.7v1c0,0.4-0.3,0.7-0.7,0.7H13
				c-0.4,0-0.7-0.3-0.7-0.7v-1C12.4,98.3,12.6,98,13,98z"/>
			<path fill-rule="evenodd" fill="#FFFFFF" d="M12.9,102.2h33.3c0.3,0,0.5,0.3,0.5,0.8v0.8c0,0.4-0.2,0.8-0.5,0.8H12.9
				c-0.3,0-0.5-0.3-0.5-0.8V103C12.4,102.6,12.6,102.2,12.9,102.2z"/>
			<ellipse fill-rule="evenodd" fill="#FFFFFF" cx="74.9" cy="101.5" rx="2.2" ry="2.1"/>
			<path fill-rule="evenodd" fill="#DDE3E9" d="M13,98h49.6c0.4,0,0.7,0.3,0.7,0.7v1c0,0.4-0.3,0.7-0.7,0.7H13
				c-0.4,0-0.7-0.3-0.7-0.7v-1C12.4,98.3,12.6,98,13,98z"/>
			<path fill-rule="evenodd" fill="#DDE3E9" d="M12.9,102.2h33.3c0.3,0,0.5,0.3,0.5,0.8v0.8c0,0.4-0.2,0.8-0.5,0.8H12.9
				c-0.3,0-0.5-0.3-0.5-0.8V103C12.4,102.6,12.6,102.2,12.9,102.2z"/>
		</g>
		<g id="_1824804957648">
			<rect x="98.1" y="15.8" fill-rule="evenodd" fill="#DDE3E9" width="54.5" height="35.5"/>
			<circle fill-rule="evenodd" fill="#FFFFFF" cx="109.5" cy="26.8" r="4.7"/>
			<path fill-rule="evenodd" fill="#C5CFD6" d="M129.8,51.3c-19.1-0.1-28.6-0.1-28.6-0.1c8.2-10.5,12.3-15.7,12.3-15.7
				c1.5-1.8,2.2-1.9,3.3-0.8C125.5,45.8,129.8,51.3,129.8,51.3L129.8,51.3z"/>
			<path fill-rule="evenodd" fill="#AFB9C5" d="M129.6,51.3c-4.8-6.3-7.2-9.5-7.2-9.5c6.1-9.9,9.2-14.9,9.2-14.9
				c10.8,16,16.2,24,16.2,24c0.2,0.3,0.3,0.4,0.3,0.4C135.7,51.3,129.6,51.3,129.6,51.3L129.6,51.3z"/>
		</g>
		<g id="_1824805021008">
			<rect x="118.1" y="100.9" fill-rule="evenodd" fill="#DDE3E9" width="53.5" height="34.9"/>
			<circle fill-rule="evenodd" fill="#FFFFFF" cx="129.3" cy="111.7" r="4.6"/>
			<path fill-rule="evenodd" fill="#C5CFD6" d="M149.3,135.8c-18.7-0.1-28.1-0.1-28.1-0.1c8-10.3,12-15.4,12-15.4
				c1.5-1.7,2.2-1.9,3.3-0.8C145,130.3,149.3,135.8,149.3,135.8z"/>
			<path fill-rule="evenodd" fill="#AFB9C5" d="M149,135.8c-4.7-6.2-7-9.4-7-9.4c6-9.8,9-14.6,9-14.6c10.6,15.7,15.9,23.6,15.9,23.6
				c0.2,0.3,0.3,0.4,0.3,0.4C155.1,135.8,149,135.8,149,135.8L149,135.8z"/>
		</g>
		<path fill-rule="evenodd" fill="#EAC7A8" d="M50,204.3c-4.1,0.8-6.8,0.8-8-0.2c0,0,0.4-1.8,1.3-5.3c5.6,0.1,8.4,0.2,8.4,0.2
			C51.2,201,50.7,202.7,50,204.3z"/>
		<path fill-rule="evenodd" fill="#EAC7A8" d="M94.4,203.1c-2.1,1.7-5,1.9-8.7,0.8c0,0,0-2.2-0.1-6.7c5.8,0,8.7,0,8.7,0
			C94.4,201.2,94.4,203.1,94.4,203.1L94.4,203.1z"/>
		<path fill-rule="evenodd" fill="#89C5CC" stroke="#98D6D5" stroke-width="0.5669" stroke-miterlimit="10" d="M53.5,103.9
			c1.1,29.3-2.9,61-12,94.9c8.1,0.2,12.1,0.3,12.1,0.3c7.8-16.8,13.1-29.9,15.8-39.3c8.9-29.1,14-47.8,15.3-56.3
			C63.9,103.8,53.5,103.9,53.5,103.9z"/>
		<path fill-rule="evenodd" fill="#69A1AC" d="M84.7,103.5c-4.3,19-8.5,34.9-12.7,47.7c8,30.7,12,46.1,12,46.1
			c7.6,0,11.5-0.1,11.5-0.1c1.6-38.7-1.1-69.7-7.8-93.1c-0.1-0.5-0.2-0.8-0.2-0.8C85.6,103.4,84.7,103.5,84.7,103.5L84.7,103.5z"/>
		<path fill-rule="evenodd" fill="#191847" stroke="#191847" stroke-width="0.5669" stroke-miterlimit="10" d="M69.7,36.9
			c0.1-0.8,0.4-1.2,1-1.3c3.2-0.8,5.3-2.5,6.3-5.3c5.6,0.2,8.5-1.6,8.7-5.3c-9-1.7-15.1-0.9-18.3,2.6C64.8,31,64,34.8,65,38.6
			c1.1,2,2.3,3.4,3.9,4.2C69.5,41.8,69.8,39.8,69.7,36.9L69.7,36.9z"/>
		<path fill-rule="evenodd" fill="#EAC7A8" d="M76.9,30.2c1.5,0.2,3.6-0.1,6.3-1.1c1,7.2,1.8,11.1,1.8,11.1c0.5,5-2.2,8.1-4.9,8.2
			c-1.8,0-3.7-0.8-5.5-2.3c-0.1,3-0.2,4.5-0.2,4.5c-4.8,0-6.9,0-6.4,0c0.5-4.9,0.7-5.9,0.7-5.9c0.1-0.6,0.1-1.1,0.3-2
			c0.8-1.9,1-3.9,0.8-5.9c0.2-1.1,0.9-1.7,2.4-1.8C74.9,33.6,76.5,32,76.9,30.2L76.9,30.2z"/>
		<path fill-rule="evenodd" fill="#FF9B21" d="M44.2,123.9c2.1-6.5,3.7-9.7,5-9.5c18.9-0.3,28.4-0.4,28.4-0.4
			c3.5-12.7,2-30.4-4.5-53.1c-0.9-6.9-2.9-10.5-5.9-10.7c-11.5-2.9-18-2.4-19.6,1.6c-0.9,4.4,1.1,8.2,6,11.7
			c-7.1,8.4-11.9,21.1-14.4,38.1c-1.3,7-2,14.3-2,22.1C41.8,123.9,44.2,123.9,44.2,123.9L44.2,123.9z"/>
		<path fill-rule="evenodd" fill="#E68C1E" d="M49.2,114.5c4.1-0.1,7.6-0.1,10.6-0.2c-2.7-10.7-4-16-4-16
			C51.4,109.1,49.2,114.5,49.2,114.5z"/>
		<path fill-rule="evenodd" fill="#FF9B21" d="M42.1,204.2c2.3,0.8,4.9,0.8,7.8,0c10.3,2.5,16.4,4.7,18.2,6.6c1,1.1,0.5,1.9-1.5,2.4
			c-17.1,0.2-25.6,0.2-25.6,0.2c-1,0.1-1.3-1.9-1-5.8C40,205.5,40.7,204.4,42.1,204.2L42.1,204.2z"/>
		<path fill-rule="evenodd" fill="#FF9B21" d="M112.2,212.6c0.4-0.2,0.5-0.7,0.1-1.4c-3.1-3-9.3-5.7-18.3-8.1
			c-1.6,1.6-4.4,1.9-8.7,0.8c-1.2,2.8-1.2,5.7,0,8.6C103.3,212.5,112.2,212.6,112.2,212.6L112.2,212.6z"/>
		<path fill-rule="evenodd" fill="#EAC7A8" d="M44,123.9c-2.6-0.1-4.8-0.1-7-0.2c-6.3,4.6-9.4,8-9.4,10.3c0.2,1.3,2.3,1.3,6.4,0.3
			c3.8-2.1,6.3-2.7,7.4-1.8c1.3,1.9,2.4,2.5,3.3,1.8c0.4-0.6-0.3-2.1-1.8-4.6C42.3,126.5,43.2,125.3,44,123.9L44,123.9z"/>
		<path fill-rule="evenodd" fill="#B3B3B3" stroke="#AFB9C5" stroke-width="0.5669" stroke-miterlimit="10" d="M73,61
			c-0.6-5.5-2.1-8.9-4.7-10.4c5.6,0,8.3,0,8.3,0c3,15.4,6.2,28.7,9.7,39.9c2.2,8.9,3.3,13.3,3.3,13.3c-7,0-10.5,0-10.5,0
			c0.4-6.8,0-13.7-1.2-20.9C76.9,75.7,75.2,68.4,73,61L73,61z"/>
		<path fill-rule="evenodd" fill="#E87613" d="M87.6,94.9c3,10.3,9.3,15.6,23.1,15.7c0,0,1.3-1.9,3.9-5.6c-8.5-6.8-15-14.5-19.5-23
			C90,71.9,84.2,63,77.8,55.5C79.7,65.6,82.9,78.8,87.6,94.9L87.6,94.9z"/>
		<path fill-rule="evenodd" fill="#EAC7A8" d="M113.9,105.9c-1,1.2-1.5,2.1-1.6,2.9c2,2.8,3.9,4.8,5.9,5.9c0.6,0.5,0.9,0.1,0.9-1.1
			c-0.5-2.4,0.4-3.3,2.5-2.9c5.1,0.9,6.4,0.6,3.9-1.1C120.5,106.7,116.6,105.5,113.9,105.9z"/>
		<g id="_1824805015056">
			<rect x="104.8" y="56.5" fill-rule="evenodd" fill="#DDE3E9" width="54.5" height="35.5"/>
			<circle fill-rule="evenodd" fill="#FFFFFF" cx="116.2" cy="67.5" r="4.7"/>
			<path fill-rule="evenodd" fill="#C5CFD6" d="M136.6,92c-19.1-0.1-28.6-0.1-28.6-0.1c8.2-10.5,12.3-15.7,12.3-15.7
				c1.5-1.8,2.2-1.9,3.3-0.8C132.2,86.5,136.6,92,136.6,92L136.6,92z"/>
			<path fill-rule="evenodd" fill="#AFB9C5" d="M136.3,92c-4.8-6.3-7.2-9.5-7.2-9.5c6.1-9.9,9.2-14.9,9.2-14.9
				c10.8,16,16.2,24,16.2,24c0.2,0.3,0.3,0.4,0.3,0.4C142.5,92,136.3,92,136.3,92z"/>
		</g>
		<polygon fill-rule="evenodd" fill="#FF3185" points="150.2,6.8 153,15.1 162.2,15 154.8,20.1 157.6,28.3 150.2,23.2 142.8,28.3 
			145.6,20.1 138.2,15 147.4,15.1 		"/>
	</g>
</g>
</svg>
