<?xml version="1.0" encoding="utf-8"?>
<!-- Generator: Adobe Illustrator 24.2.3, SVG Export Plug-In . SVG Version: 6.00 Build 0)  -->
<svg version="1.2" baseProfile="tiny" xmlns="http://www.w3.org/2000/svg" xmlns:xlink="http://www.w3.org/1999/xlink" x="0px"
	 y="0px" viewBox="0 0 177.3 234.5" overflow="visible" xml:space="preserve">
<g id="Layer_2">
</g>
<g id="Layer_1">
	<g>
		<ellipse fill-rule="evenodd" fill="#FF3185" cx="109.8" cy="218.7" rx="47.2" ry="15.8"/>
		<g id="_1824805001648">
			<path fill-rule="evenodd" fill="#F2F2F2" d="M25.7,7.8h102.1c1.7,0,3.1,1.4,3.1,3.1v106c0,1.7-1.4,3.1-3.1,3.1H25.7
				c-1.7,0-3.1-1.4-3.1-3.1V11C22.6,9.2,24,7.8,25.7,7.8z"/>
			<rect x="28.6" y="23.7" fill-rule="evenodd" fill="#FFFFFF" width="68.8" height="15.1"/>
			<path fill-rule="evenodd" fill="#FFFFFF" d="M32.5,28.2h46.2c0.3,0,0.6,0.3,0.6,0.6v0.9c0,0.3-0.3,0.6-0.6,0.6H32.5
				c-0.3,0-0.6-0.3-0.6-0.6v-0.9C31.9,28.5,32.2,28.2,32.5,28.2z"/>
			<path fill-rule="evenodd" fill="#FFFFFF" d="M32.4,32.2h31.1c0.3,0,0.5,0.3,0.5,0.7v0.7c0,0.4-0.2,0.7-0.5,0.7H32.4
				c-0.3,0-0.5-0.3-0.5-0.7v-0.7C31.9,32.5,32.1,32.2,32.4,32.2z"/>
			<ellipse fill-rule="evenodd" fill="#FFFFFF" cx="90.2" cy="31.4" rx="2.1" ry="2"/>
			<path fill-rule="evenodd" fill="#C5CFD6" d="M22.6,11.1c0,2.4,0,4.2,0,5.3c32.5,0,48.8,0,48.8,0c38.8,0,58.2-0.1,58.2-0.1
				c1.1,0.1,1.6,0,1.3-0.5c0-3.6,0-5.4,0-5.4c-0.3-1.7-1.3-2.6-3.1-2.7c-22.1,0-33.1,0-33.1,0c-31.9,0-47.8,0-47.8,0
				c-14,0-21,0-21,0C23.8,7.9,22.7,9,22.6,11.1z"/>
			<path fill-rule="evenodd" fill="#DDE3E9" d="M32.5,28.2h46.2c0.3,0,0.6,0.3,0.6,0.6v0.9c0,0.3-0.3,0.6-0.6,0.6H32.5
				c-0.3,0-0.6-0.3-0.6-0.6v-0.9C31.9,28.5,32.2,28.2,32.5,28.2z"/>
			<path fill-rule="evenodd" fill="#DDE3E9" d="M32.4,32.2h31.1c0.3,0,0.5,0.3,0.5,0.7v0.7c0,0.4-0.2,0.7-0.5,0.7H32.4
				c-0.3,0-0.5-0.3-0.5-0.7v-0.7C31.9,32.5,32.1,32.2,32.4,32.2z"/>
			<ellipse fill-rule="evenodd" fill="#FFFFFF" cx="27.5" cy="12.9" rx="1" ry="1.1"/>
			<ellipse fill-rule="evenodd" fill="#FFFFFF" cx="31.7" cy="12.9" rx="1" ry="1.1"/>
			<ellipse fill-rule="evenodd" fill="#FFFFFF" cx="36.2" cy="12.9" rx="1" ry="1.1"/>
			<rect x="28.6" y="45.2" fill-rule="evenodd" fill="#FFFFFF" width="68.8" height="15.1"/>
			<path fill-rule="evenodd" fill="#FFFFFF" d="M32.5,49.6h46.2c0.3,0,0.6,0.3,0.6,0.6v0.9c0,0.3-0.3,0.6-0.6,0.6H32.5
				c-0.3,0-0.6-0.3-0.6-0.6v-0.9C31.9,49.9,32.2,49.6,32.5,49.6z"/>
			<path fill-rule="evenodd" fill="#FFFFFF" d="M32.4,53.6h31.1c0.3,0,0.5,0.3,0.5,0.7V55c0,0.4-0.2,0.7-0.5,0.7H32.4
				c-0.3,0-0.5-0.3-0.5-0.7v-0.7C31.9,53.9,32.1,53.6,32.4,53.6z"/>
			<ellipse fill-rule="evenodd" fill="#FFFFFF" cx="90.2" cy="52.9" rx="2.1" ry="2"/>
			<path fill-rule="evenodd" fill="#DDE3E9" d="M32.5,49.6h46.2c0.3,0,0.6,0.3,0.6,0.6v0.9c0,0.3-0.3,0.6-0.6,0.6H32.5
				c-0.3,0-0.6-0.3-0.6-0.6v-0.9C31.9,49.9,32.2,49.6,32.5,49.6z"/>
			<path fill-rule="evenodd" fill="#DDE3E9" d="M32.4,53.6h31.1c0.3,0,0.5,0.3,0.5,0.7V55c0,0.4-0.2,0.7-0.5,0.7H32.4
				c-0.3,0-0.5-0.3-0.5-0.7v-0.7C31.9,53.9,32.1,53.6,32.4,53.6z"/>
			<rect x="28.6" y="66.9" fill-rule="evenodd" fill="#FFFFFF" width="68.8" height="15.1"/>
			<path fill-rule="evenodd" fill="#FFFFFF" d="M32.5,71.4h46.2c0.3,0,0.6,0.3,0.6,0.6V73c0,0.3-0.3,0.6-0.6,0.6H32.5
				c-0.3,0-0.6-0.3-0.6-0.6V72C31.9,71.7,32.2,71.4,32.5,71.4z"/>
			<path fill-rule="evenodd" fill="#FFFFFF" d="M32.4,75.4h31.1c0.3,0,0.5,0.3,0.5,0.7v0.7c0,0.4-0.2,0.7-0.5,0.7H32.4
				c-0.3,0-0.5-0.3-0.5-0.7v-0.7C31.9,75.7,32.1,75.4,32.4,75.4z"/>
			<ellipse fill-rule="evenodd" fill="#FFFFFF" cx="90.2" cy="74.6" rx="2.1" ry="2"/>
			<path fill-rule="evenodd" fill="#DDE3E9" d="M32.5,71.4h46.2c0.3,0,0.6,0.3,0.6,0.6V73c0,0.3-0.3,0.6-0.6,0.6H32.5
				c-0.3,0-0.6-0.3-0.6-0.6V72C31.9,71.7,32.2,71.4,32.5,71.4z"/>
			<path fill-rule="evenodd" fill="#DDE3E9" d="M32.4,75.4h31.1c0.3,0,0.5,0.3,0.5,0.7v0.7c0,0.4-0.2,0.7-0.5,0.7H32.4
				c-0.3,0-0.5-0.3-0.5-0.7v-0.7C31.9,75.7,32.1,75.4,32.4,75.4z"/>
			<rect x="28.6" y="89.7" fill-rule="evenodd" fill="#FFFFFF" width="68.8" height="15.1"/>
			<path fill-rule="evenodd" fill="#FFFFFF" d="M32.5,94.2h46.2c0.3,0,0.6,0.3,0.6,0.6v0.9c0,0.3-0.3,0.6-0.6,0.6H32.5
				c-0.3,0-0.6-0.3-0.6-0.6v-0.9C31.9,94.5,32.2,94.2,32.5,94.2z"/>
			<path fill-rule="evenodd" fill="#FFFFFF" d="M32.4,98.1h31.1c0.3,0,0.5,0.3,0.5,0.7v0.7c0,0.4-0.2,0.7-0.5,0.7H32.4
				c-0.3,0-0.5-0.3-0.5-0.7v-0.7C31.9,98.4,32.1,98.1,32.4,98.1z"/>
			<ellipse fill-rule="evenodd" fill="#FFFFFF" cx="90.2" cy="97.4" rx="2.1" ry="2"/>
			<path fill-rule="evenodd" fill="#DDE3E9" d="M32.5,94.2h46.2c0.3,0,0.6,0.3,0.6,0.6v0.9c0,0.3-0.3,0.6-0.6,0.6H32.5
				c-0.3,0-0.6-0.3-0.6-0.6v-0.9C31.9,94.5,32.2,94.2,32.5,94.2z"/>
			<path fill-rule="evenodd" fill="#DDE3E9" d="M32.4,98.1h31.1c0.3,0,0.5,0.3,0.5,0.7v0.7c0,0.4-0.2,0.7-0.5,0.7H32.4
				c-0.3,0-0.5-0.3-0.5-0.7v-0.7C31.9,98.4,32.1,98.1,32.4,98.1z"/>
		</g>
		<g id="_1824805001904">
			<rect x="1.5" y="58.7" fill-rule="evenodd" fill="#DDE3E9" width="50.8" height="33.1"/>
			<circle fill-rule="evenodd" fill="#FFFFFF" cx="12.1" cy="69" r="4.4"/>
			<path fill-rule="evenodd" fill="#C5CFD6" d="M31,91.8c-17.8-0.1-26.7-0.1-26.7-0.1C12,82,15.8,77.1,15.8,77.1
				c1.4-1.7,2.1-1.8,3.1-0.7C27,86.7,31,91.8,31,91.8L31,91.8z"/>
			<path fill-rule="evenodd" fill="#AFB9C5" d="M30.8,91.8c-4.4-5.9-6.7-8.9-6.7-8.9c5.7-9.3,8.6-13.9,8.6-13.9
				c10.1,14.9,15.1,22.3,15.1,22.3c0.2,0.3,0.2,0.4,0.2,0.4C36.6,91.8,30.8,91.8,30.8,91.8z"/>
		</g>
		<g id="_1824804999248">
			<rect x="120.8" y="60.4" fill-rule="evenodd" fill="#DDE3E9" width="50.8" height="33.1"/>
			<circle fill-rule="evenodd" fill="#FFFFFF" cx="131.4" cy="70.7" r="4.4"/>
			<path fill-rule="evenodd" fill="#C5CFD6" d="M150.4,93.5c-17.8-0.1-26.7-0.1-26.7-0.1c7.6-9.7,11.4-14.6,11.4-14.6
				c1.4-1.7,2.1-1.8,3.1-0.7C146.4,88.4,150.4,93.5,150.4,93.5L150.4,93.5z"/>
			<path fill-rule="evenodd" fill="#AFB9C5" d="M150.2,93.5c-4.4-5.9-6.7-8.9-6.7-8.9c5.7-9.3,8.6-13.9,8.6-13.9
				c10.1,14.9,15.1,22.3,15.1,22.3c0.2,0.3,0.2,0.4,0.2,0.4C155.9,93.5,150.2,93.5,150.2,93.5z"/>
		</g>
		<g id="_1824804997680">
			<rect x="57.8" y="58.5" fill-rule="evenodd" fill="#DDE3E9" width="50.8" height="33.1"/>
			<circle fill-rule="evenodd" fill="#FFFFFF" cx="68.4" cy="68.8" r="4.4"/>
			<path fill-rule="evenodd" fill="#C5CFD6" d="M87.4,91.6c-17.8-0.1-26.7-0.1-26.7-0.1c7.6-9.7,11.4-14.6,11.4-14.6
				c1.4-1.7,2.1-1.8,3.1-0.7C83.4,86.5,87.4,91.6,87.4,91.6L87.4,91.6z"/>
			<path fill-rule="evenodd" fill="#AFB9C5" d="M87.2,91.6c-4.5-5.9-6.7-8.9-6.7-8.9c5.7-9.3,8.6-13.9,8.6-13.9
				c10.1,14.9,15.1,22.3,15.1,22.3c0.2,0.3,0.2,0.4,0.2,0.4C92.9,91.6,87.2,91.6,87.2,91.6L87.2,91.6z"/>
		</g>
		<g id="_1824804993904">
			<path fill-rule="evenodd" fill="#EAC7A8" d="M72,108.1c1.1,1.2,1.6,2.2,1.6,3c-2.1,2.9-4.1,5-6.1,6.1c-0.7,0.5-1,0.1-0.9-1.2
				c0.5-2.5-0.4-3.5-2.6-3c-5.3,1-6.6,0.6-4.1-1.1C65.1,108.9,69.1,107.6,72,108.1z"/>
			<g>
				<path fill-rule="evenodd" fill="#EAC7A8" d="M138.6,210.6c4.3,0.9,7.1,0.8,8.4-0.2c0,0-0.5-1.8-1.4-5.5
					c-5.8,0.1-8.7,0.2-8.7,0.2C137.3,207.1,137.9,209,138.6,210.6L138.6,210.6z"/>
				<path fill-rule="evenodd" fill="#EAC7A8" d="M92.3,209.4c2.2,1.7,5.2,2,9,0.8c0,0,0-2.3,0.1-7c-6,0-9.1,0-9.1,0
					C92.3,207.3,92.3,209.4,92.3,209.4L92.3,209.4z"/>
				<path fill-rule="evenodd" fill="#89C5CC" d="M135,106c-1.1,30.6,3,63.6,12.5,98.9c-8.4,0.2-12.7,0.3-12.7,0.3
					c-8.2-17.5-13.7-31.2-16.5-40.9c-9.3-30.3-14.6-49.9-15.9-58.7C124.1,105.8,135,106,135,106z"/>
				<path fill-rule="evenodd" fill="#69A1AC" stroke="#69A1AC" stroke-width="0.5669" stroke-miterlimit="10" d="M102.4,105.5
					c4.5,19.8,8.9,36.4,13.2,49.7c-8.3,32.1-12.5,48.1-12.5,48.1c-8,0-11.9-0.1-11.9-0.1c-1.6-40.3,1.1-72.6,8.2-97
					c0.1-0.5,0.2-0.8,0.2-0.8C101.5,105.5,102.4,105.5,102.4,105.5L102.4,105.5z"/>
				<path fill-rule="evenodd" fill="#EAC7A8" d="M110.6,29.1c-1.6,0.2-3.8-0.2-6.5-1.1c-1,7.5-1.9,11.6-1.9,11.6
					c-0.5,5.3,2.3,8.4,5.1,8.6c1.9,0,3.8-0.8,5.7-2.4c0.1,3.1,0.2,4.7,0.2,4.7c5,0,7.2,0,6.7,0c0.1-5.4-0.7-6.6-0.6-6.8
					c-0.3-0.5-0.2-0.3-0.3-1.4c-0.8-2-1.1-4-0.8-6.2c-0.2-1.1-1-1.7-2.5-1.8C112.7,32.7,111,31,110.6,29.1L110.6,29.1z"/>
				<path fill-rule="evenodd" fill="#FF9B21" d="M144.7,126.8c-2.2-6.8-3.9-10.1-5.2-9.9c-19.7-0.3-29.6-0.4-29.6-0.4
					c-3.7-13.3-2.1-31.7,4.7-55.3c1-7.2,3-10.9,6.2-11.2c12-3,18.8-2.5,20.5,1.6c1,4.5-1.1,8.6-6.3,12.2c7.5,8.8,12.5,22,15,39.7
					c1.4,7.3,2.1,14.9,2.1,23C147.2,126.8,144.7,126.8,144.7,126.8z"/>
				<path fill-rule="evenodd" fill="#E68C1E" d="M139.5,116.9c-4.3-0.1-8-0.1-11.1-0.2c2.8-11.1,4.2-16.7,4.2-16.7
					C137.2,111.3,139.5,116.9,139.5,116.9L139.5,116.9z"/>
				<path fill-rule="evenodd" fill="#FF9B21" d="M146.8,210.6c-2.4,0.8-5.1,0.9-8.2,0c-10.7,2.6-17.1,4.9-18.9,6.9
					c-1.1,1.1-0.5,1.9,1.6,2.5c17.8,0.2,26.7,0.2,26.7,0.2c1.1,0.1,1.4-1.9,1-6C149,211.9,148.3,210.7,146.8,210.6L146.8,210.6z"/>
				<path fill-rule="evenodd" fill="#FF9B21" d="M73.7,219.2c-0.5-0.2-0.5-0.7-0.1-1.5c3.3-3.2,9.6-6,19.1-8.4c1.6,1.7,4.6,2,9,0.8
					c1.2,2.9,1.2,5.9,0,9C83.1,219.2,73.7,219.2,73.7,219.2z"/>
				<path fill-rule="evenodd" fill="#EAC7A8" d="M144.9,126.8c2.7-0.1,5-0.1,7.3-0.2c6.5,4.7,9.8,8.3,9.8,10.7
					c-0.2,1.3-2.4,1.4-6.7,0.3c-4-2.2-6.5-2.9-7.7-1.8c-1.4,2-2.5,2.6-3.5,1.8c-0.4-0.6,0.3-2.2,1.8-4.8
					C146.6,129.5,145.7,128.2,144.9,126.8L144.9,126.8z"/>
				<path fill-rule="evenodd" fill="#B3B3B3" stroke="#B3B3B3" stroke-width="0.5669" stroke-miterlimit="10" d="M114.6,61.2
					c0.6-5.7,2.2-9.3,4.9-10.8c-5.8,0-8.7,0-8.7,0c-3.1,16-6.5,29.9-10.1,41.6c-2.3,9.2-3.5,13.9-3.5,13.9c7.3,0,11,0,11,0
					c-0.4-7.1,0-14.3,1.2-21.8C110.6,76.6,112.3,69,114.6,61.2L114.6,61.2z"/>
				<path fill-rule="evenodd" fill="#E87613" d="M99.5,96.6c-3.1,10.7-9.7,16.2-24.1,16.3c0,0-1.4-1.9-4.1-5.8
					C80.2,100,87,92,91.7,83.1c5.3-10.5,11.3-19.7,18-27.6C107.7,66,104.3,79.7,99.5,96.6L99.5,96.6z"/>
				<path fill-rule="evenodd" fill="#191847" stroke="#191847" stroke-width="0.5669" stroke-miterlimit="10" d="M118.1,36.1
					c-0.1-0.8-0.5-1.2-1-1.4c-3.3-0.8-5.5-2.6-6.5-5.5c-5.9,0.2-8.9-1.6-9.1-5.5c9.4-1.8,15.8-0.9,19.1,2.7
					c2.7,3.8,3.6,7.6,2.5,11.6c-1.1,2.1-2.4,3.6-4.1,4.4C118.3,41.2,118,39.1,118.1,36.1L118.1,36.1z"/>
			</g>
		</g>
	</g>
</g>
</svg>
